<?xml version="1.0" encoding="utf-8" standalone="no"?>
<!DOCTYPE svg PUBLIC "-//W3C//DTD SVG 1.1//EN"
  "http://www.w3.org/Graphics/SVG/1.1/DTD/svg11.dtd">
<svg xmlns:xlink="http://www.w3.org/1999/xlink" width="720pt" height="576pt" viewBox="0 0 720 576" xmlns="http://www.w3.org/2000/svg" version="1.1">
 <metadata>
  <rdf:RDF xmlns:dc="http://purl.org/dc/elements/1.1/" xmlns:cc="http://creativecommons.org/ns#" xmlns:rdf="http://www.w3.org/1999/02/22-rdf-syntax-ns#">
   <cc:Work>
    <dc:type rdf:resource="http://purl.org/dc/dcmitype/StillImage"/>
    <dc:date>2026-03-09T17:50:25.773315</dc:date>
    <dc:format>image/svg+xml</dc:format>
    <dc:creator>
     <cc:Agent>
      <dc:title>Matplotlib v3.10.8, https://matplotlib.org/</dc:title>
     </cc:Agent>
    </dc:creator>
   </cc:Work>
  </rdf:RDF>
 </metadata>
 <defs>
  <style type="text/css">*{stroke-linejoin: round; stroke-linecap: butt}</style>
 </defs>
 <g id="figure_1">
  <g id="patch_1">
   <path d="M 0 576 
L 720 576 
L 720 0 
L 0 0 
z
" style="fill: #ffffff"/>
  </g>
  <g id="axes_1">
   <g id="patch_2">
    <path d="M 43.2 264.436364 
L 691.2 264.436364 
L 691.2 28.8 
L 43.2 28.8 
z
" style="fill: #ffffff"/>
   </g>
   <g id="patch_3">
    <path d="M 265.420557 230.052453 
L 293.787828 230.882425 
L 293.890092 198.506406 
L 265.522821 197.676434 
z
" clip-path="url(#pf68aba0f43)" style="fill: #ffffff; stroke: #ed746a; stroke-width: 1.5; stroke-linejoin: miter"/>
   </g>
   <g id="patch_4">
    <path d="M 467.148721 232.598478 
L 495.517291 232.676993 
L 495.526965 200.299492 
L 467.158395 200.220977 
z
" clip-path="url(#pf68aba0f43)" style="fill: #ffffff; stroke: #638dee; stroke-width: 1.5; stroke-linejoin: miter"/>
   </g>
   <g id="patch_5">
    <path d="M 443.035426 167.393761 
L 471.403791 167.055838 
L 471.362154 134.678571 
L 442.99379 135.016495 
z
" clip-path="url(#pf68aba0f43)" style="fill: #ffffff; stroke: #aa66eb; stroke-width: 1.5; stroke-linejoin: miter"/>
   </g>
   <g id="patch_6">
    <path d="M 83.700057 179.715204 
L 112.05608 177.146306 
L 111.739558 144.783126 
L 83.383536 147.352024 
z
" clip-path="url(#pf68aba0f43)" style="fill: #ffffff; stroke: #dbaa77; stroke-width: 1.5; stroke-linejoin: miter"/>
   </g>
   <g id="patch_7">
    <path d="M 362.378147 232.253518 
L 390.746214 232.773723 
L 390.81031 200.396796 
L 362.442243 199.876591 
z
" clip-path="url(#pf68aba0f43)" style="fill: #f6bab4; stroke: #ed746a; stroke-width: 1.5; stroke-linejoin: miter"/>
   </g>
   <g id="patch_8">
    <path d="M 564.695271 232.778353 
L 593.06385 232.734708 
L 593.058472 200.357197 
L 564.689894 200.400843 
z
" clip-path="url(#pf68aba0f43)" style="fill: #b1c6f6; stroke: #638dee; stroke-width: 1.5; stroke-linejoin: miter"/>
   </g>
   <g id="patch_9">
    <path d="M -105.876931 241.472316 
L -77.508429 241.677823 
L -77.483108 209.3004 
L -105.851609 209.094893 
z
" clip-path="url(#pf68aba0f43)" style="fill: #b2e4cc; stroke: #66c999; stroke-width: 1.5; stroke-linejoin: miter"/>
   </g>
   <g id="patch_10">
    <path d="M 541.281341 165.924781 
L 569.649634 165.535281 
L 569.601643 133.158096 
L 541.23335 133.547596 
z
" clip-path="url(#pf68aba0f43)" style="fill: #d4b2f5; stroke: #aa66eb; stroke-width: 1.5; stroke-linejoin: miter"/>
   </g>
   <g id="patch_11">
    <path d="M 180.38964 171.740742 
L 208.749919 169.651986 
L 208.492557 137.283948 
L 180.132278 139.372704 
z
" clip-path="url(#pf68aba0f43)" style="fill: #edd4bb; stroke: #dbaa77; stroke-width: 1.5; stroke-linejoin: miter"/>
   </g>
   <g id="patch_12">
    <path d="M 440.610861 233.239377 
L 468.979285 233.526877 
L 469.014709 201.149541 
L 440.646285 200.862042 
z
" clip-path="url(#pf68aba0f43)" style="fill: #ed746a; stroke: #ed746a; stroke-width: 1.5; stroke-linejoin: miter"/>
   </g>
   <g id="patch_13">
    <path d="M 661.946316 232.328666 
L 690.314842 232.158293 
L 690.29385 199.780841 
L 661.925324 199.951214 
z
" clip-path="url(#pf68aba0f43)" style="fill: #638dee; stroke: #638dee; stroke-width: 1.5; stroke-linejoin: miter"/>
   </g>
   <g id="patch_14">
    <path d="M -10.625477 241.951983 
L 17.743092 242.032187 
L 17.752975 209.654686 
L -10.615595 209.574482 
z
" clip-path="url(#pf68aba0f43)" style="fill: #66c999; stroke: #66c999; stroke-width: 1.5; stroke-linejoin: miter"/>
   </g>
   <g id="patch_15">
    <path d="M 639.931114 164.605698 
L 668.299511 164.293862 
L 668.261089 131.916558 
L 639.892692 132.228394 
z
" clip-path="url(#pf68aba0f43)" style="fill: #aa66eb; stroke: #aa66eb; stroke-width: 1.5; stroke-linejoin: miter"/>
   </g>
   <g id="patch_16">
    <path d="M 277.581583 165.505073 
L 305.945423 163.926427 
L 305.750913 131.554325 
L 277.387074 133.132971 
z
" clip-path="url(#pf68aba0f43)" style="fill: #dbaa77; stroke: #dbaa77; stroke-width: 1.5; stroke-linejoin: miter"/>
   </g>
   <g id="matplotlib.axis_1">
    <g id="xtick_1">
     <g id="line2d_1">
      <defs>
       <path id="m8161005071" d="M 0 0 
L 0 3.5 
" style="stroke: #000000; stroke-width: 0.8"/>
      </defs>
      <g>
       <use xlink:href="#m8161005071" x="90.821753" y="264.436364" style="stroke: #000000; stroke-width: 0.8"/>
      </g>
     </g>
     <g id="text_1">
      <!-- 40 -->
      <g transform="translate(84.459253 279.034801) scale(0.1 -0.1)">
       <defs>
        <path id="DejaVuSans-34" d="M 2419 4116 
L 825 1625 
L 2419 1625 
L 2419 4116 
z
M 2253 4666 
L 3047 4666 
L 3047 1625 
L 3713 1625 
L 3713 1100 
L 3047 1100 
L 3047 0 
L 2419 0 
L 2419 1100 
L 313 1100 
L 313 1709 
L 2253 4666 
z
" transform="scale(0.015625)"/>
        <path id="DejaVuSans-30" d="M 2034 4250 
Q 1547 4250 1301 3770 
Q 1056 3291 1056 2328 
Q 1056 1369 1301 889 
Q 1547 409 2034 409 
Q 2525 409 2770 889 
Q 3016 1369 3016 2328 
Q 3016 3291 2770 3770 
Q 2525 4250 2034 4250 
z
M 2034 4750 
Q 2819 4750 3233 4129 
Q 3647 3509 3647 2328 
Q 3647 1150 3233 529 
Q 2819 -91 2034 -91 
Q 1250 -91 836 529 
Q 422 1150 422 2328 
Q 422 3509 836 4129 
Q 1250 4750 2034 4750 
z
" transform="scale(0.015625)"/>
       </defs>
       <use xlink:href="#DejaVuSans-34"/>
       <use xlink:href="#DejaVuSans-30" transform="translate(63.623047 0)"/>
      </g>
     </g>
    </g>
    <g id="xtick_2">
     <g id="line2d_2">
      <g>
       <use xlink:href="#m8161005071" x="209.024177" y="264.436364" style="stroke: #000000; stroke-width: 0.8"/>
      </g>
     </g>
     <g id="text_2">
      <!-- 60 -->
      <g transform="translate(202.661677 279.034801) scale(0.1 -0.1)">
       <defs>
        <path id="DejaVuSans-36" d="M 2113 2584 
Q 1688 2584 1439 2293 
Q 1191 2003 1191 1497 
Q 1191 994 1439 701 
Q 1688 409 2113 409 
Q 2538 409 2786 701 
Q 3034 994 3034 1497 
Q 3034 2003 2786 2293 
Q 2538 2584 2113 2584 
z
M 3366 4563 
L 3366 3988 
Q 3128 4100 2886 4159 
Q 2644 4219 2406 4219 
Q 1781 4219 1451 3797 
Q 1122 3375 1075 2522 
Q 1259 2794 1537 2939 
Q 1816 3084 2150 3084 
Q 2853 3084 3261 2657 
Q 3669 2231 3669 1497 
Q 3669 778 3244 343 
Q 2819 -91 2113 -91 
Q 1303 -91 875 529 
Q 447 1150 447 2328 
Q 447 3434 972 4092 
Q 1497 4750 2381 4750 
Q 2619 4750 2861 4703 
Q 3103 4656 3366 4563 
z
" transform="scale(0.015625)"/>
       </defs>
       <use xlink:href="#DejaVuSans-36"/>
       <use xlink:href="#DejaVuSans-30" transform="translate(63.623047 0)"/>
      </g>
     </g>
    </g>
    <g id="xtick_3">
     <g id="line2d_3">
      <g>
       <use xlink:href="#m8161005071" x="327.226601" y="264.436364" style="stroke: #000000; stroke-width: 0.8"/>
      </g>
     </g>
     <g id="text_3">
      <!-- 80 -->
      <g transform="translate(320.864101 279.034801) scale(0.1 -0.1)">
       <defs>
        <path id="DejaVuSans-38" d="M 2034 2216 
Q 1584 2216 1326 1975 
Q 1069 1734 1069 1313 
Q 1069 891 1326 650 
Q 1584 409 2034 409 
Q 2484 409 2743 651 
Q 3003 894 3003 1313 
Q 3003 1734 2745 1975 
Q 2488 2216 2034 2216 
z
M 1403 2484 
Q 997 2584 770 2862 
Q 544 3141 544 3541 
Q 544 4100 942 4425 
Q 1341 4750 2034 4750 
Q 2731 4750 3128 4425 
Q 3525 4100 3525 3541 
Q 3525 3141 3298 2862 
Q 3072 2584 2669 2484 
Q 3125 2378 3379 2068 
Q 3634 1759 3634 1313 
Q 3634 634 3220 271 
Q 2806 -91 2034 -91 
Q 1263 -91 848 271 
Q 434 634 434 1313 
Q 434 1759 690 2068 
Q 947 2378 1403 2484 
z
M 1172 3481 
Q 1172 3119 1398 2916 
Q 1625 2713 2034 2713 
Q 2441 2713 2670 2916 
Q 2900 3119 2900 3481 
Q 2900 3844 2670 4047 
Q 2441 4250 2034 4250 
Q 1625 4250 1398 4047 
Q 1172 3844 1172 3481 
z
" transform="scale(0.015625)"/>
       </defs>
       <use xlink:href="#DejaVuSans-38"/>
       <use xlink:href="#DejaVuSans-30" transform="translate(63.623047 0)"/>
      </g>
     </g>
    </g>
    <g id="xtick_4">
     <g id="line2d_4">
      <g>
       <use xlink:href="#m8161005071" x="445.429026" y="264.436364" style="stroke: #000000; stroke-width: 0.8"/>
      </g>
     </g>
     <g id="text_4">
      <!-- 100 -->
      <g transform="translate(435.885276 279.034801) scale(0.1 -0.1)">
       <defs>
        <path id="DejaVuSans-31" d="M 794 531 
L 1825 531 
L 1825 4091 
L 703 3866 
L 703 4441 
L 1819 4666 
L 2450 4666 
L 2450 531 
L 3481 531 
L 3481 0 
L 794 0 
L 794 531 
z
" transform="scale(0.015625)"/>
       </defs>
       <use xlink:href="#DejaVuSans-31"/>
       <use xlink:href="#DejaVuSans-30" transform="translate(63.623047 0)"/>
       <use xlink:href="#DejaVuSans-30" transform="translate(127.246094 0)"/>
      </g>
     </g>
    </g>
    <g id="xtick_5">
     <g id="line2d_5">
      <g>
       <use xlink:href="#m8161005071" x="563.63145" y="264.436364" style="stroke: #000000; stroke-width: 0.8"/>
      </g>
     </g>
     <g id="text_5">
      <!-- 120 -->
      <g transform="translate(554.0877 279.034801) scale(0.1 -0.1)">
       <defs>
        <path id="DejaVuSans-32" d="M 1228 531 
L 3431 531 
L 3431 0 
L 469 0 
L 469 531 
Q 828 903 1448 1529 
Q 2069 2156 2228 2338 
Q 2531 2678 2651 2914 
Q 2772 3150 2772 3378 
Q 2772 3750 2511 3984 
Q 2250 4219 1831 4219 
Q 1534 4219 1204 4116 
Q 875 4013 500 3803 
L 500 4441 
Q 881 4594 1212 4672 
Q 1544 4750 1819 4750 
Q 2544 4750 2975 4387 
Q 3406 4025 3406 3419 
Q 3406 3131 3298 2873 
Q 3191 2616 2906 2266 
Q 2828 2175 2409 1742 
Q 1991 1309 1228 531 
z
" transform="scale(0.015625)"/>
       </defs>
       <use xlink:href="#DejaVuSans-31"/>
       <use xlink:href="#DejaVuSans-32" transform="translate(63.623047 0)"/>
       <use xlink:href="#DejaVuSans-30" transform="translate(127.246094 0)"/>
      </g>
     </g>
    </g>
    <g id="xtick_6">
     <g id="line2d_6">
      <g>
       <use xlink:href="#m8161005071" x="681.833874" y="264.436364" style="stroke: #000000; stroke-width: 0.8"/>
      </g>
     </g>
     <g id="text_6">
      <!-- 140 -->
      <g transform="translate(672.290124 279.034801) scale(0.1 -0.1)">
       <use xlink:href="#DejaVuSans-31"/>
       <use xlink:href="#DejaVuSans-34" transform="translate(63.623047 0)"/>
       <use xlink:href="#DejaVuSans-30" transform="translate(127.246094 0)"/>
      </g>
     </g>
    </g>
   </g>
   <g id="matplotlib.axis_2">
    <g id="ytick_1">
     <g id="line2d_7">
      <defs>
       <path id="mee8bcd1448" d="M 0 0 
L -3.5 0 
" style="stroke: #000000; stroke-width: 0.8"/>
      </defs>
      <g>
       <use xlink:href="#mee8bcd1448" x="43.2" y="251.125612" style="stroke: #000000; stroke-width: 0.8"/>
      </g>
     </g>
     <g id="text_7">
      <!-- 26 -->
      <g transform="translate(23.475 254.92483) scale(0.1 -0.1)">
       <use xlink:href="#DejaVuSans-32"/>
       <use xlink:href="#DejaVuSans-36" transform="translate(63.623047 0)"/>
      </g>
     </g>
    </g>
    <g id="ytick_2">
     <g id="line2d_8">
      <g>
       <use xlink:href="#mee8bcd1448" x="43.2" y="215.150595" style="stroke: #000000; stroke-width: 0.8"/>
      </g>
     </g>
     <g id="text_8">
      <!-- 28 -->
      <g transform="translate(23.475 218.949814) scale(0.1 -0.1)">
       <use xlink:href="#DejaVuSans-32"/>
       <use xlink:href="#DejaVuSans-38" transform="translate(63.623047 0)"/>
      </g>
     </g>
    </g>
    <g id="ytick_3">
     <g id="line2d_9">
      <g>
       <use xlink:href="#mee8bcd1448" x="43.2" y="179.175579" style="stroke: #000000; stroke-width: 0.8"/>
      </g>
     </g>
     <g id="text_9">
      <!-- 30 -->
      <g transform="translate(23.475 182.974798) scale(0.1 -0.1)">
       <defs>
        <path id="DejaVuSans-33" d="M 2597 2516 
Q 3050 2419 3304 2112 
Q 3559 1806 3559 1356 
Q 3559 666 3084 287 
Q 2609 -91 1734 -91 
Q 1441 -91 1130 -33 
Q 819 25 488 141 
L 488 750 
Q 750 597 1062 519 
Q 1375 441 1716 441 
Q 2309 441 2620 675 
Q 2931 909 2931 1356 
Q 2931 1769 2642 2001 
Q 2353 2234 1838 2234 
L 1294 2234 
L 1294 2753 
L 1863 2753 
Q 2328 2753 2575 2939 
Q 2822 3125 2822 3475 
Q 2822 3834 2567 4026 
Q 2313 4219 1838 4219 
Q 1578 4219 1281 4162 
Q 984 4106 628 3988 
L 628 4550 
Q 988 4650 1302 4700 
Q 1616 4750 1894 4750 
Q 2613 4750 3031 4423 
Q 3450 4097 3450 3541 
Q 3450 3153 3228 2886 
Q 3006 2619 2597 2516 
z
" transform="scale(0.015625)"/>
       </defs>
       <use xlink:href="#DejaVuSans-33"/>
       <use xlink:href="#DejaVuSans-30" transform="translate(63.623047 0)"/>
      </g>
     </g>
    </g>
    <g id="ytick_4">
     <g id="line2d_10">
      <g>
       <use xlink:href="#mee8bcd1448" x="43.2" y="143.200563" style="stroke: #000000; stroke-width: 0.8"/>
      </g>
     </g>
     <g id="text_10">
      <!-- 32 -->
      <g transform="translate(23.475 146.999782) scale(0.1 -0.1)">
       <use xlink:href="#DejaVuSans-33"/>
       <use xlink:href="#DejaVuSans-32" transform="translate(63.623047 0)"/>
      </g>
     </g>
    </g>
    <g id="ytick_5">
     <g id="line2d_11">
      <g>
       <use xlink:href="#mee8bcd1448" x="43.2" y="107.225547" style="stroke: #000000; stroke-width: 0.8"/>
      </g>
     </g>
     <g id="text_11">
      <!-- 34 -->
      <g transform="translate(23.475 111.024765) scale(0.1 -0.1)">
       <use xlink:href="#DejaVuSans-33"/>
       <use xlink:href="#DejaVuSans-34" transform="translate(63.623047 0)"/>
      </g>
     </g>
    </g>
    <g id="ytick_6">
     <g id="line2d_12">
      <g>
       <use xlink:href="#mee8bcd1448" x="43.2" y="71.25053" style="stroke: #000000; stroke-width: 0.8"/>
      </g>
     </g>
     <g id="text_12">
      <!-- 36 -->
      <g transform="translate(23.475 75.049749) scale(0.1 -0.1)">
       <use xlink:href="#DejaVuSans-33"/>
       <use xlink:href="#DejaVuSans-36" transform="translate(63.623047 0)"/>
      </g>
     </g>
    </g>
    <g id="ytick_7">
     <g id="line2d_13">
      <g>
       <use xlink:href="#mee8bcd1448" x="43.2" y="35.275514" style="stroke: #000000; stroke-width: 0.8"/>
      </g>
     </g>
     <g id="text_13">
      <!-- 38 -->
      <g transform="translate(23.475 39.074733) scale(0.1 -0.1)">
       <use xlink:href="#DejaVuSans-33"/>
       <use xlink:href="#DejaVuSans-38" transform="translate(63.623047 0)"/>
      </g>
     </g>
    </g>
   </g>
   <g id="line2d_14">
    <path d="M 43.2 255.44261 
L 691.2 255.44261 
" clip-path="url(#pf68aba0f43)" style="fill: none; stroke-dasharray: 5.55,2.4; stroke-dashoffset: 0; stroke: #808080; stroke-width: 1.5"/>
   </g>
   <g id="line2d_15">
    <path d="M 43.2 180.794458 
L 691.2 180.794458 
" clip-path="url(#pf68aba0f43)" style="fill: none; stroke-dasharray: 5.55,2.4; stroke-dashoffset: 0; stroke: #808080; stroke-width: 1.5"/>
   </g>
   <g id="line2d_16">
    <path d="M 43.2 115.499784 
L 691.2 115.499784 
" clip-path="url(#pf68aba0f43)" style="fill: none; stroke-dasharray: 5.55,2.4; stroke-dashoffset: 0; stroke: #808080; stroke-width: 1.5"/>
   </g>
   <g id="line2d_17">
    <path d="M 43.2 37.793754 
L 691.2 37.793754 
" clip-path="url(#pf68aba0f43)" style="fill: none; stroke-dasharray: 5.55,2.4; stroke-dashoffset: 0; stroke: #808080; stroke-width: 1.5"/>
   </g>
   <g id="patch_17">
    <path d="M 43.2 264.436364 
L 43.2 28.8 
" style="fill: none; stroke: #000000; stroke-width: 0.8; stroke-linejoin: miter; stroke-linecap: square"/>
   </g>
   <g id="patch_18">
    <path d="M 691.2 264.436364 
L 691.2 28.8 
" style="fill: none; stroke: #000000; stroke-width: 0.8; stroke-linejoin: miter; stroke-linecap: square"/>
   </g>
   <g id="patch_19">
    <path d="M 43.2 264.436364 
L 691.2 264.436364 
" style="fill: none; stroke: #000000; stroke-width: 0.8; stroke-linejoin: miter; stroke-linecap: square"/>
   </g>
   <g id="patch_20">
    <path d="M 43.2 28.8 
L 691.2 28.8 
" style="fill: none; stroke: #000000; stroke-width: 0.8; stroke-linejoin: miter; stroke-linecap: square"/>
   </g>
   <g id="text_14">
    <!-- t = 0.0 s -->
    <g transform="translate(258.131411 258.832466) scale(0.1 -0.1)">
     <defs>
      <path id="DejaVuSans-74" d="M 1172 4494 
L 1172 3500 
L 2356 3500 
L 2356 3053 
L 1172 3053 
L 1172 1153 
Q 1172 725 1289 603 
Q 1406 481 1766 481 
L 2356 481 
L 2356 0 
L 1766 0 
Q 1100 0 847 248 
Q 594 497 594 1153 
L 594 3053 
L 172 3053 
L 172 3500 
L 594 3500 
L 594 4494 
L 1172 4494 
z
" transform="scale(0.015625)"/>
      <path id="DejaVuSans-20" transform="scale(0.015625)"/>
      <path id="DejaVuSans-3d" d="M 678 2906 
L 4684 2906 
L 4684 2381 
L 678 2381 
L 678 2906 
z
M 678 1631 
L 4684 1631 
L 4684 1100 
L 678 1100 
L 678 1631 
z
" transform="scale(0.015625)"/>
      <path id="DejaVuSans-2e" d="M 684 794 
L 1344 794 
L 1344 0 
L 684 0 
L 684 794 
z
" transform="scale(0.015625)"/>
      <path id="DejaVuSans-73" d="M 2834 3397 
L 2834 2853 
Q 2591 2978 2328 3040 
Q 2066 3103 1784 3103 
Q 1356 3103 1142 2972 
Q 928 2841 928 2578 
Q 928 2378 1081 2264 
Q 1234 2150 1697 2047 
L 1894 2003 
Q 2506 1872 2764 1633 
Q 3022 1394 3022 966 
Q 3022 478 2636 193 
Q 2250 -91 1575 -91 
Q 1294 -91 989 -36 
Q 684 19 347 128 
L 347 722 
Q 666 556 975 473 
Q 1284 391 1588 391 
Q 1994 391 2212 530 
Q 2431 669 2431 922 
Q 2431 1156 2273 1281 
Q 2116 1406 1581 1522 
L 1381 1569 
Q 847 1681 609 1914 
Q 372 2147 372 2553 
Q 372 3047 722 3315 
Q 1072 3584 1716 3584 
Q 2034 3584 2315 3537 
Q 2597 3491 2834 3397 
z
" transform="scale(0.015625)"/>
     </defs>
     <use xlink:href="#DejaVuSans-74"/>
     <use xlink:href="#DejaVuSans-20" transform="translate(39.208984 0)"/>
     <use xlink:href="#DejaVuSans-3d" transform="translate(70.996094 0)"/>
     <use xlink:href="#DejaVuSans-20" transform="translate(154.785156 0)"/>
     <use xlink:href="#DejaVuSans-30" transform="translate(186.572266 0)"/>
     <use xlink:href="#DejaVuSans-2e" transform="translate(250.195312 0)"/>
     <use xlink:href="#DejaVuSans-30" transform="translate(281.982422 0)"/>
     <use xlink:href="#DejaVuSans-20" transform="translate(345.605469 0)"/>
     <use xlink:href="#DejaVuSans-73" transform="translate(377.392578 0)"/>
    </g>
   </g>
   <g id="text_15">
    <!-- t = 0.5 s -->
    <g transform="translate(355.089 261.033531) scale(0.1 -0.1)">
     <defs>
      <path id="DejaVuSans-35" d="M 691 4666 
L 3169 4666 
L 3169 4134 
L 1269 4134 
L 1269 2991 
Q 1406 3038 1543 3061 
Q 1681 3084 1819 3084 
Q 2600 3084 3056 2656 
Q 3513 2228 3513 1497 
Q 3513 744 3044 326 
Q 2575 -91 1722 -91 
Q 1428 -91 1123 -41 
Q 819 9 494 109 
L 494 744 
Q 775 591 1075 516 
Q 1375 441 1709 441 
Q 2250 441 2565 725 
Q 2881 1009 2881 1497 
Q 2881 1984 2565 2268 
Q 2250 2553 1709 2553 
Q 1456 2553 1204 2497 
Q 953 2441 691 2322 
L 691 4666 
z
" transform="scale(0.015625)"/>
     </defs>
     <use xlink:href="#DejaVuSans-74"/>
     <use xlink:href="#DejaVuSans-20" transform="translate(39.208984 0)"/>
     <use xlink:href="#DejaVuSans-3d" transform="translate(70.996094 0)"/>
     <use xlink:href="#DejaVuSans-20" transform="translate(154.785156 0)"/>
     <use xlink:href="#DejaVuSans-30" transform="translate(186.572266 0)"/>
     <use xlink:href="#DejaVuSans-2e" transform="translate(250.195312 0)"/>
     <use xlink:href="#DejaVuSans-35" transform="translate(281.982422 0)"/>
     <use xlink:href="#DejaVuSans-20" transform="translate(345.605469 0)"/>
     <use xlink:href="#DejaVuSans-73" transform="translate(377.392578 0)"/>
    </g>
   </g>
   <g id="text_16">
    <!-- t = 1.0 s -->
    <g transform="translate(433.321714 262.01939) scale(0.1 -0.1)">
     <use xlink:href="#DejaVuSans-74"/>
     <use xlink:href="#DejaVuSans-20" transform="translate(39.208984 0)"/>
     <use xlink:href="#DejaVuSans-3d" transform="translate(70.996094 0)"/>
     <use xlink:href="#DejaVuSans-20" transform="translate(154.785156 0)"/>
     <use xlink:href="#DejaVuSans-31" transform="translate(186.572266 0)"/>
     <use xlink:href="#DejaVuSans-2e" transform="translate(250.195312 0)"/>
     <use xlink:href="#DejaVuSans-30" transform="translate(281.982422 0)"/>
     <use xlink:href="#DejaVuSans-20" transform="translate(345.605469 0)"/>
     <use xlink:href="#DejaVuSans-73" transform="translate(377.392578 0)"/>
    </g>
   </g>
  </g>
  <g id="axes_2">
   <g id="patch_21">
    <path d="M 43.2 547.2 
L 691.2 547.2 
L 691.2 311.563636 
L 43.2 311.563636 
z
" style="fill: #ffffff"/>
   </g>
   <g id="patch_22">
    <path d="M 284.679983 516.484541 
L 315.507169 516.633213 
L 315.527075 484.255746 
L 284.699889 484.107074 
z
" clip-path="url(#pe8e7cbed24)" style="fill: #ffffff; stroke: #ed746a; stroke-width: 1.5; stroke-linejoin: miter"/>
   </g>
   <g id="patch_23">
    <path d="M 547.997647 514.282864 
L 578.824809 514.099218 
L 578.80022 481.721777 
L 547.973058 481.905423 
z
" clip-path="url(#pe8e7cbed24)" style="fill: #ffffff; stroke: #638dee; stroke-width: 1.5; stroke-linejoin: miter"/>
   </g>
   <g id="patch_24">
    <path d="M -184.202629 524.715619 
L -153.375408 524.644484 
L -153.384932 492.26698 
L -184.212153 492.338115 
z
" clip-path="url(#pe8e7cbed24)" style="fill: #ffffff; stroke: #66c999; stroke-width: 1.5; stroke-linejoin: miter"/>
   </g>
   <g id="patch_25">
    <path d="M 525.166228 446.469958 
L 555.99341 446.313546 
L 555.972467 413.936084 
L 525.145286 414.092497 
z
" clip-path="url(#pe8e7cbed24)" style="fill: #ffffff; stroke: #aa66eb; stroke-width: 1.5; stroke-linejoin: miter"/>
   </g>
   <g id="patch_26">
    <path d="M 129.978242 443.771832 
L 160.80299 442.67579 
L 160.656239 410.300884 
L 129.831491 411.396927 
z
" clip-path="url(#pe8e7cbed24)" style="fill: #ffffff; stroke: #dbaa77; stroke-width: 1.5; stroke-linejoin: miter"/>
   </g>
   <g id="patch_27">
    <path d="M 364.684165 516.745814 
L 395.511382 516.831114 
L 395.522803 484.453615 
L 364.695586 484.368315 
z
" clip-path="url(#pe8e7cbed24)" style="fill: #f6bab4; stroke: #ed746a; stroke-width: 1.5; stroke-linejoin: miter"/>
   </g>
   <g id="patch_28">
    <path d="M 653.281207 513.653301 
L 684.108403 513.522026 
L 684.090826 481.144549 
L 653.26363 481.275824 
z
" clip-path="url(#pe8e7cbed24)" style="fill: #b1c6f6; stroke: #638dee; stroke-width: 1.5; stroke-linejoin: miter"/>
   </g>
   <g id="patch_29">
    <path d="M -80.342688 524.175994 
L -49.515575 523.936346 
L -49.547662 491.558956 
L -80.374775 491.798604 
z
" clip-path="url(#pe8e7cbed24)" style="fill: #b2e4cc; stroke: #66c999; stroke-width: 1.5; stroke-linejoin: miter"/>
   </g>
   <g id="patch_30">
    <path d="M 631.413139 446.380021 
L 662.240358 446.301411 
L 662.229833 413.92391 
L 631.402614 414.00252 
z
" clip-path="url(#pe8e7cbed24)" style="fill: #d4b2f5; stroke: #aa66eb; stroke-width: 1.5; stroke-linejoin: miter"/>
   </g>
   <g id="patch_31">
    <path d="M 235.443768 440.624018 
L 266.270107 439.966759 
L 266.182106 407.590183 
L 235.355767 408.247442 
z
" clip-path="url(#pe8e7cbed24)" style="fill: #edd4bb; stroke: #dbaa77; stroke-width: 1.5; stroke-linejoin: miter"/>
   </g>
   <g id="matplotlib.axis_3">
    <g id="xtick_7">
     <g id="line2d_18">
      <g>
       <use xlink:href="#m8161005071" x="78.67445" y="547.2" style="stroke: #000000; stroke-width: 0.8"/>
      </g>
     </g>
     <g id="text_17">
      <!-- 80 -->
      <g transform="translate(72.31195 561.798437) scale(0.1 -0.1)">
       <use xlink:href="#DejaVuSans-38"/>
       <use xlink:href="#DejaVuSans-30" transform="translate(63.623047 0)"/>
      </g>
     </g>
    </g>
    <g id="xtick_8">
     <g id="line2d_19">
      <g>
       <use xlink:href="#m8161005071" x="207.121249" y="547.2" style="stroke: #000000; stroke-width: 0.8"/>
      </g>
     </g>
     <g id="text_18">
      <!-- 100 -->
      <g transform="translate(197.577499 561.798437) scale(0.1 -0.1)">
       <use xlink:href="#DejaVuSans-31"/>
       <use xlink:href="#DejaVuSans-30" transform="translate(63.623047 0)"/>
       <use xlink:href="#DejaVuSans-30" transform="translate(127.246094 0)"/>
      </g>
     </g>
    </g>
    <g id="xtick_9">
     <g id="line2d_20">
      <g>
       <use xlink:href="#m8161005071" x="335.568049" y="547.2" style="stroke: #000000; stroke-width: 0.8"/>
      </g>
     </g>
     <g id="text_19">
      <!-- 120 -->
      <g transform="translate(326.024299 561.798437) scale(0.1 -0.1)">
       <use xlink:href="#DejaVuSans-31"/>
       <use xlink:href="#DejaVuSans-32" transform="translate(63.623047 0)"/>
       <use xlink:href="#DejaVuSans-30" transform="translate(127.246094 0)"/>
      </g>
     </g>
    </g>
    <g id="xtick_10">
     <g id="line2d_21">
      <g>
       <use xlink:href="#m8161005071" x="464.014848" y="547.2" style="stroke: #000000; stroke-width: 0.8"/>
      </g>
     </g>
     <g id="text_20">
      <!-- 140 -->
      <g transform="translate(454.471098 561.798437) scale(0.1 -0.1)">
       <use xlink:href="#DejaVuSans-31"/>
       <use xlink:href="#DejaVuSans-34" transform="translate(63.623047 0)"/>
       <use xlink:href="#DejaVuSans-30" transform="translate(127.246094 0)"/>
      </g>
     </g>
    </g>
    <g id="xtick_11">
     <g id="line2d_22">
      <g>
       <use xlink:href="#m8161005071" x="592.461647" y="547.2" style="stroke: #000000; stroke-width: 0.8"/>
      </g>
     </g>
     <g id="text_21">
      <!-- 160 -->
      <g transform="translate(582.917897 561.798437) scale(0.1 -0.1)">
       <use xlink:href="#DejaVuSans-31"/>
       <use xlink:href="#DejaVuSans-36" transform="translate(63.623047 0)"/>
       <use xlink:href="#DejaVuSans-30" transform="translate(127.246094 0)"/>
      </g>
     </g>
    </g>
   </g>
   <g id="matplotlib.axis_4">
    <g id="ytick_8">
     <g id="line2d_23">
      <g>
       <use xlink:href="#mee8bcd1448" x="43.2" y="533.889248" style="stroke: #000000; stroke-width: 0.8"/>
      </g>
     </g>
     <g id="text_22">
      <!-- 26 -->
      <g transform="translate(23.475 537.688467) scale(0.1 -0.1)">
       <use xlink:href="#DejaVuSans-32"/>
       <use xlink:href="#DejaVuSans-36" transform="translate(63.623047 0)"/>
      </g>
     </g>
    </g>
    <g id="ytick_9">
     <g id="line2d_24">
      <g>
       <use xlink:href="#mee8bcd1448" x="43.2" y="497.914232" style="stroke: #000000; stroke-width: 0.8"/>
      </g>
     </g>
     <g id="text_23">
      <!-- 28 -->
      <g transform="translate(23.475 501.713451) scale(0.1 -0.1)">
       <use xlink:href="#DejaVuSans-32"/>
       <use xlink:href="#DejaVuSans-38" transform="translate(63.623047 0)"/>
      </g>
     </g>
    </g>
    <g id="ytick_10">
     <g id="line2d_25">
      <g>
       <use xlink:href="#mee8bcd1448" x="43.2" y="461.939215" style="stroke: #000000; stroke-width: 0.8"/>
      </g>
     </g>
     <g id="text_24">
      <!-- 30 -->
      <g transform="translate(23.475 465.738434) scale(0.1 -0.1)">
       <use xlink:href="#DejaVuSans-33"/>
       <use xlink:href="#DejaVuSans-30" transform="translate(63.623047 0)"/>
      </g>
     </g>
    </g>
    <g id="ytick_11">
     <g id="line2d_26">
      <g>
       <use xlink:href="#mee8bcd1448" x="43.2" y="425.964199" style="stroke: #000000; stroke-width: 0.8"/>
      </g>
     </g>
     <g id="text_25">
      <!-- 32 -->
      <g transform="translate(23.475 429.763418) scale(0.1 -0.1)">
       <use xlink:href="#DejaVuSans-33"/>
       <use xlink:href="#DejaVuSans-32" transform="translate(63.623047 0)"/>
      </g>
     </g>
    </g>
    <g id="ytick_12">
     <g id="line2d_27">
      <g>
       <use xlink:href="#mee8bcd1448" x="43.2" y="389.989183" style="stroke: #000000; stroke-width: 0.8"/>
      </g>
     </g>
     <g id="text_26">
      <!-- 34 -->
      <g transform="translate(23.475 393.788402) scale(0.1 -0.1)">
       <use xlink:href="#DejaVuSans-33"/>
       <use xlink:href="#DejaVuSans-34" transform="translate(63.623047 0)"/>
      </g>
     </g>
    </g>
    <g id="ytick_13">
     <g id="line2d_28">
      <g>
       <use xlink:href="#mee8bcd1448" x="43.2" y="354.014167" style="stroke: #000000; stroke-width: 0.8"/>
      </g>
     </g>
     <g id="text_27">
      <!-- 36 -->
      <g transform="translate(23.475 357.813385) scale(0.1 -0.1)">
       <use xlink:href="#DejaVuSans-33"/>
       <use xlink:href="#DejaVuSans-36" transform="translate(63.623047 0)"/>
      </g>
     </g>
    </g>
    <g id="ytick_14">
     <g id="line2d_29">
      <g>
       <use xlink:href="#mee8bcd1448" x="43.2" y="318.03915" style="stroke: #000000; stroke-width: 0.8"/>
      </g>
     </g>
     <g id="text_28">
      <!-- 38 -->
      <g transform="translate(23.475 321.838369) scale(0.1 -0.1)">
       <use xlink:href="#DejaVuSans-33"/>
       <use xlink:href="#DejaVuSans-38" transform="translate(63.623047 0)"/>
      </g>
     </g>
    </g>
   </g>
   <g id="line2d_30">
    <path d="M 43.2 538.206246 
L 691.2 538.206246 
" clip-path="url(#pe8e7cbed24)" style="fill: none; stroke-dasharray: 5.55,2.4; stroke-dashoffset: 0; stroke: #808080; stroke-width: 1.5"/>
   </g>
   <g id="line2d_31">
    <path d="M 43.2 463.558094 
L 691.2 463.558094 
" clip-path="url(#pe8e7cbed24)" style="fill: none; stroke-dasharray: 5.55,2.4; stroke-dashoffset: 0; stroke: #808080; stroke-width: 1.5"/>
   </g>
   <g id="line2d_32">
    <path d="M 43.2 398.26342 
L 691.2 398.26342 
" clip-path="url(#pe8e7cbed24)" style="fill: none; stroke-dasharray: 5.55,2.4; stroke-dashoffset: 0; stroke: #808080; stroke-width: 1.5"/>
   </g>
   <g id="line2d_33">
    <path d="M 43.2 320.55739 
L 691.2 320.55739 
" clip-path="url(#pe8e7cbed24)" style="fill: none; stroke-dasharray: 5.55,2.4; stroke-dashoffset: 0; stroke: #808080; stroke-width: 1.5"/>
   </g>
   <g id="patch_32">
    <path d="M 43.2 547.2 
L 43.2 311.563636 
" style="fill: none; stroke: #000000; stroke-width: 0.8; stroke-linejoin: miter; stroke-linecap: square"/>
   </g>
   <g id="patch_33">
    <path d="M 691.2 547.2 
L 691.2 311.563636 
" style="fill: none; stroke: #000000; stroke-width: 0.8; stroke-linejoin: miter; stroke-linecap: square"/>
   </g>
   <g id="patch_34">
    <path d="M 43.2 547.2 
L 691.2 547.2 
" style="fill: none; stroke: #000000; stroke-width: 0.8; stroke-linejoin: miter; stroke-linecap: square"/>
   </g>
   <g id="patch_35">
    <path d="M 43.2 311.563636 
L 691.2 311.563636 
" style="fill: none; stroke: #000000; stroke-width: 0.8; stroke-linejoin: miter; stroke-linecap: square"/>
   </g>
   <g id="text_29">
    <!-- t = 1.5 s -->
    <g transform="translate(278.620161 545.264554) scale(0.1 -0.1)">
     <use xlink:href="#DejaVuSans-74"/>
     <use xlink:href="#DejaVuSans-20" transform="translate(39.208984 0)"/>
     <use xlink:href="#DejaVuSans-3d" transform="translate(70.996094 0)"/>
     <use xlink:href="#DejaVuSans-20" transform="translate(154.785156 0)"/>
     <use xlink:href="#DejaVuSans-31" transform="translate(186.572266 0)"/>
     <use xlink:href="#DejaVuSans-2e" transform="translate(250.195312 0)"/>
     <use xlink:href="#DejaVuSans-35" transform="translate(281.982422 0)"/>
     <use xlink:href="#DejaVuSans-20" transform="translate(345.605469 0)"/>
     <use xlink:href="#DejaVuSans-73" transform="translate(377.392578 0)"/>
    </g>
   </g>
   <g id="text_30">
    <!-- t = 2.0 s -->
    <g transform="translate(358.624344 545.525827) scale(0.1 -0.1)">
     <use xlink:href="#DejaVuSans-74"/>
     <use xlink:href="#DejaVuSans-20" transform="translate(39.208984 0)"/>
     <use xlink:href="#DejaVuSans-3d" transform="translate(70.996094 0)"/>
     <use xlink:href="#DejaVuSans-20" transform="translate(154.785156 0)"/>
     <use xlink:href="#DejaVuSans-32" transform="translate(186.572266 0)"/>
     <use xlink:href="#DejaVuSans-2e" transform="translate(250.195312 0)"/>
     <use xlink:href="#DejaVuSans-30" transform="translate(281.982422 0)"/>
     <use xlink:href="#DejaVuSans-20" transform="translate(345.605469 0)"/>
     <use xlink:href="#DejaVuSans-73" transform="translate(377.392578 0)"/>
    </g>
   </g>
  </g>
 </g>
 <defs>
  <clipPath id="pf68aba0f43">
   <rect x="43.2" y="28.8" width="648" height="235.636364"/>
  </clipPath>
  <clipPath id="pe8e7cbed24">
   <rect x="43.2" y="311.563636" width="648" height="235.636364"/>
  </clipPath>
 </defs>
</svg>
