<?xml version="1.0" encoding="utf-8" standalone="no"?>
<!DOCTYPE svg PUBLIC "-//W3C//DTD SVG 1.1//EN"
  "http://www.w3.org/Graphics/SVG/1.1/DTD/svg11.dtd">
<svg xmlns:xlink="http://www.w3.org/1999/xlink" width="504pt" height="432pt" viewBox="0 0 504 432" xmlns="http://www.w3.org/2000/svg" version="1.1">
 <metadata>
  <rdf:RDF xmlns:dc="http://purl.org/dc/elements/1.1/" xmlns:cc="http://creativecommons.org/ns#" xmlns:rdf="http://www.w3.org/1999/02/22-rdf-syntax-ns#">
   <cc:Work>
    <dc:type rdf:resource="http://purl.org/dc/dcmitype/StillImage"/>
    <dc:date>2026-03-10T15:30:03.439667</dc:date>
    <dc:format>image/svg+xml</dc:format>
    <dc:creator>
     <cc:Agent>
      <dc:title>Matplotlib v3.10.8, https://matplotlib.org/</dc:title>
     </cc:Agent>
    </dc:creator>
   </cc:Work>
  </rdf:RDF>
 </metadata>
 <defs>
  <style type="text/css">*{stroke-linejoin: round; stroke-linecap: butt}</style>
 </defs>
 <g id="figure_1">
  <g id="patch_1">
   <path d="M 0 432 
L 504 432 
L 504 0 
L 0 0 
z
" style="fill: #ffffff"/>
  </g>
  <g id="axes_1">
   <g id="patch_2">
    <path d="M 70.56 63.749189 
L 483.84 63.749189 
L 483.84 12.96 
L 70.56 12.96 
z
" style="fill: #ffffff"/>
   </g>
   <g id="matplotlib.axis_1">
    <g id="xtick_1">
     <g id="line2d_1">
      <defs>
       <path id="md9a0fe8c18" d="M 0 0 
L 0 3.5 
" style="stroke: #000000; stroke-width: 0.8"/>
      </defs>
      <g>
       <use xlink:href="#md9a0fe8c18" x="70.56" y="63.749189" style="stroke: #000000; stroke-width: 0.8"/>
      </g>
     </g>
     <g id="text_1">
      <!-- 0.0 -->
      <g transform="translate(62.608438 78.347627) scale(0.1 -0.1)">
       <defs>
        <path id="DejaVuSans-30" d="M 2034 4250 
Q 1547 4250 1301 3770 
Q 1056 3291 1056 2328 
Q 1056 1369 1301 889 
Q 1547 409 2034 409 
Q 2525 409 2770 889 
Q 3016 1369 3016 2328 
Q 3016 3291 2770 3770 
Q 2525 4250 2034 4250 
z
M 2034 4750 
Q 2819 4750 3233 4129 
Q 3647 3509 3647 2328 
Q 3647 1150 3233 529 
Q 2819 -91 2034 -91 
Q 1250 -91 836 529 
Q 422 1150 422 2328 
Q 422 3509 836 4129 
Q 1250 4750 2034 4750 
z
" transform="scale(0.015625)"/>
        <path id="DejaVuSans-2e" d="M 684 794 
L 1344 794 
L 1344 0 
L 684 0 
L 684 794 
z
" transform="scale(0.015625)"/>
       </defs>
       <use xlink:href="#DejaVuSans-30"/>
       <use xlink:href="#DejaVuSans-2e" transform="translate(63.623047 0)"/>
       <use xlink:href="#DejaVuSans-30" transform="translate(95.410156 0)"/>
      </g>
     </g>
    </g>
    <g id="xtick_2">
     <g id="line2d_2">
      <g>
       <use xlink:href="#md9a0fe8c18" x="172.18623" y="63.749189" style="stroke: #000000; stroke-width: 0.8"/>
      </g>
     </g>
     <g id="text_2">
      <!-- 1.5 -->
      <g transform="translate(164.234667 78.347627) scale(0.1 -0.1)">
       <defs>
        <path id="DejaVuSans-31" d="M 794 531 
L 1825 531 
L 1825 4091 
L 703 3866 
L 703 4441 
L 1819 4666 
L 2450 4666 
L 2450 531 
L 3481 531 
L 3481 0 
L 794 0 
L 794 531 
z
" transform="scale(0.015625)"/>
        <path id="DejaVuSans-35" d="M 691 4666 
L 3169 4666 
L 3169 4134 
L 1269 4134 
L 1269 2991 
Q 1406 3038 1543 3061 
Q 1681 3084 1819 3084 
Q 2600 3084 3056 2656 
Q 3513 2228 3513 1497 
Q 3513 744 3044 326 
Q 2575 -91 1722 -91 
Q 1428 -91 1123 -41 
Q 819 9 494 109 
L 494 744 
Q 775 591 1075 516 
Q 1375 441 1709 441 
Q 2250 441 2565 725 
Q 2881 1009 2881 1497 
Q 2881 1984 2565 2268 
Q 2250 2553 1709 2553 
Q 1456 2553 1204 2497 
Q 953 2441 691 2322 
L 691 4666 
z
" transform="scale(0.015625)"/>
       </defs>
       <use xlink:href="#DejaVuSans-31"/>
       <use xlink:href="#DejaVuSans-2e" transform="translate(63.623047 0)"/>
       <use xlink:href="#DejaVuSans-35" transform="translate(95.410156 0)"/>
      </g>
     </g>
    </g>
    <g id="xtick_3">
     <g id="line2d_3">
      <g>
       <use xlink:href="#md9a0fe8c18" x="273.812459" y="63.749189" style="stroke: #000000; stroke-width: 0.8"/>
      </g>
     </g>
     <g id="text_3">
      <!-- 3.0 -->
      <g transform="translate(265.860897 78.347627) scale(0.1 -0.1)">
       <defs>
        <path id="DejaVuSans-33" d="M 2597 2516 
Q 3050 2419 3304 2112 
Q 3559 1806 3559 1356 
Q 3559 666 3084 287 
Q 2609 -91 1734 -91 
Q 1441 -91 1130 -33 
Q 819 25 488 141 
L 488 750 
Q 750 597 1062 519 
Q 1375 441 1716 441 
Q 2309 441 2620 675 
Q 2931 909 2931 1356 
Q 2931 1769 2642 2001 
Q 2353 2234 1838 2234 
L 1294 2234 
L 1294 2753 
L 1863 2753 
Q 2328 2753 2575 2939 
Q 2822 3125 2822 3475 
Q 2822 3834 2567 4026 
Q 2313 4219 1838 4219 
Q 1578 4219 1281 4162 
Q 984 4106 628 3988 
L 628 4550 
Q 988 4650 1302 4700 
Q 1616 4750 1894 4750 
Q 2613 4750 3031 4423 
Q 3450 4097 3450 3541 
Q 3450 3153 3228 2886 
Q 3006 2619 2597 2516 
z
" transform="scale(0.015625)"/>
       </defs>
       <use xlink:href="#DejaVuSans-33"/>
       <use xlink:href="#DejaVuSans-2e" transform="translate(63.623047 0)"/>
       <use xlink:href="#DejaVuSans-30" transform="translate(95.410156 0)"/>
      </g>
     </g>
    </g>
    <g id="xtick_4">
     <g id="line2d_4">
      <g>
       <use xlink:href="#md9a0fe8c18" x="375.438689" y="63.749189" style="stroke: #000000; stroke-width: 0.8"/>
      </g>
     </g>
     <g id="text_4">
      <!-- 4.5 -->
      <g transform="translate(367.487126 78.347627) scale(0.1 -0.1)">
       <defs>
        <path id="DejaVuSans-34" d="M 2419 4116 
L 825 1625 
L 2419 1625 
L 2419 4116 
z
M 2253 4666 
L 3047 4666 
L 3047 1625 
L 3713 1625 
L 3713 1100 
L 3047 1100 
L 3047 0 
L 2419 0 
L 2419 1100 
L 313 1100 
L 313 1709 
L 2253 4666 
z
" transform="scale(0.015625)"/>
       </defs>
       <use xlink:href="#DejaVuSans-34"/>
       <use xlink:href="#DejaVuSans-2e" transform="translate(63.623047 0)"/>
       <use xlink:href="#DejaVuSans-35" transform="translate(95.410156 0)"/>
      </g>
     </g>
    </g>
    <g id="xtick_5">
     <g id="line2d_5">
      <g>
       <use xlink:href="#md9a0fe8c18" x="477.064918" y="63.749189" style="stroke: #000000; stroke-width: 0.8"/>
      </g>
     </g>
     <g id="text_5">
      <!-- 6.0 -->
      <g transform="translate(469.113356 78.347627) scale(0.1 -0.1)">
       <defs>
        <path id="DejaVuSans-36" d="M 2113 2584 
Q 1688 2584 1439 2293 
Q 1191 2003 1191 1497 
Q 1191 994 1439 701 
Q 1688 409 2113 409 
Q 2538 409 2786 701 
Q 3034 994 3034 1497 
Q 3034 2003 2786 2293 
Q 2538 2584 2113 2584 
z
M 3366 4563 
L 3366 3988 
Q 3128 4100 2886 4159 
Q 2644 4219 2406 4219 
Q 1781 4219 1451 3797 
Q 1122 3375 1075 2522 
Q 1259 2794 1537 2939 
Q 1816 3084 2150 3084 
Q 2853 3084 3261 2657 
Q 3669 2231 3669 1497 
Q 3669 778 3244 343 
Q 2819 -91 2113 -91 
Q 1303 -91 875 529 
Q 447 1150 447 2328 
Q 447 3434 972 4092 
Q 1497 4750 2381 4750 
Q 2619 4750 2861 4703 
Q 3103 4656 3366 4563 
z
" transform="scale(0.015625)"/>
       </defs>
       <use xlink:href="#DejaVuSans-36"/>
       <use xlink:href="#DejaVuSans-2e" transform="translate(63.623047 0)"/>
       <use xlink:href="#DejaVuSans-30" transform="translate(95.410156 0)"/>
      </g>
     </g>
    </g>
    <g id="text_6">
     <!-- Time(s) -->
     <g transform="translate(258.460156 92.025752) scale(0.1 -0.1)">
      <defs>
       <path id="DejaVuSans-54" d="M -19 4666 
L 3928 4666 
L 3928 4134 
L 2272 4134 
L 2272 0 
L 1638 0 
L 1638 4134 
L -19 4134 
L -19 4666 
z
" transform="scale(0.015625)"/>
       <path id="DejaVuSans-69" d="M 603 3500 
L 1178 3500 
L 1178 0 
L 603 0 
L 603 3500 
z
M 603 4863 
L 1178 4863 
L 1178 4134 
L 603 4134 
L 603 4863 
z
" transform="scale(0.015625)"/>
       <path id="DejaVuSans-6d" d="M 3328 2828 
Q 3544 3216 3844 3400 
Q 4144 3584 4550 3584 
Q 5097 3584 5394 3201 
Q 5691 2819 5691 2113 
L 5691 0 
L 5113 0 
L 5113 2094 
Q 5113 2597 4934 2840 
Q 4756 3084 4391 3084 
Q 3944 3084 3684 2787 
Q 3425 2491 3425 1978 
L 3425 0 
L 2847 0 
L 2847 2094 
Q 2847 2600 2669 2842 
Q 2491 3084 2119 3084 
Q 1678 3084 1418 2786 
Q 1159 2488 1159 1978 
L 1159 0 
L 581 0 
L 581 3500 
L 1159 3500 
L 1159 2956 
Q 1356 3278 1631 3431 
Q 1906 3584 2284 3584 
Q 2666 3584 2933 3390 
Q 3200 3197 3328 2828 
z
" transform="scale(0.015625)"/>
       <path id="DejaVuSans-65" d="M 3597 1894 
L 3597 1613 
L 953 1613 
Q 991 1019 1311 708 
Q 1631 397 2203 397 
Q 2534 397 2845 478 
Q 3156 559 3463 722 
L 3463 178 
Q 3153 47 2828 -22 
Q 2503 -91 2169 -91 
Q 1331 -91 842 396 
Q 353 884 353 1716 
Q 353 2575 817 3079 
Q 1281 3584 2069 3584 
Q 2775 3584 3186 3129 
Q 3597 2675 3597 1894 
z
M 3022 2063 
Q 3016 2534 2758 2815 
Q 2500 3097 2075 3097 
Q 1594 3097 1305 2825 
Q 1016 2553 972 2059 
L 3022 2063 
z
" transform="scale(0.015625)"/>
       <path id="DejaVuSans-28" d="M 1984 4856 
Q 1566 4138 1362 3434 
Q 1159 2731 1159 2009 
Q 1159 1288 1364 580 
Q 1569 -128 1984 -844 
L 1484 -844 
Q 1016 -109 783 600 
Q 550 1309 550 2009 
Q 550 2706 781 3412 
Q 1013 4119 1484 4856 
L 1984 4856 
z
" transform="scale(0.015625)"/>
       <path id="DejaVuSans-73" d="M 2834 3397 
L 2834 2853 
Q 2591 2978 2328 3040 
Q 2066 3103 1784 3103 
Q 1356 3103 1142 2972 
Q 928 2841 928 2578 
Q 928 2378 1081 2264 
Q 1234 2150 1697 2047 
L 1894 2003 
Q 2506 1872 2764 1633 
Q 3022 1394 3022 966 
Q 3022 478 2636 193 
Q 2250 -91 1575 -91 
Q 1294 -91 989 -36 
Q 684 19 347 128 
L 347 722 
Q 666 556 975 473 
Q 1284 391 1588 391 
Q 1994 391 2212 530 
Q 2431 669 2431 922 
Q 2431 1156 2273 1281 
Q 2116 1406 1581 1522 
L 1381 1569 
Q 847 1681 609 1914 
Q 372 2147 372 2553 
Q 372 3047 722 3315 
Q 1072 3584 1716 3584 
Q 2034 3584 2315 3537 
Q 2597 3491 2834 3397 
z
" transform="scale(0.015625)"/>
       <path id="DejaVuSans-29" d="M 513 4856 
L 1013 4856 
Q 1481 4119 1714 3412 
Q 1947 2706 1947 2009 
Q 1947 1309 1714 600 
Q 1481 -109 1013 -844 
L 513 -844 
Q 928 -128 1133 580 
Q 1338 1288 1338 2009 
Q 1338 2731 1133 3434 
Q 928 4138 513 4856 
z
" transform="scale(0.015625)"/>
      </defs>
      <use xlink:href="#DejaVuSans-54"/>
      <use xlink:href="#DejaVuSans-69" transform="translate(57.958984 0)"/>
      <use xlink:href="#DejaVuSans-6d" transform="translate(85.742188 0)"/>
      <use xlink:href="#DejaVuSans-65" transform="translate(183.154297 0)"/>
      <use xlink:href="#DejaVuSans-28" transform="translate(244.677734 0)"/>
      <use xlink:href="#DejaVuSans-73" transform="translate(283.691406 0)"/>
      <use xlink:href="#DejaVuSans-29" transform="translate(335.791016 0)"/>
     </g>
    </g>
   </g>
   <g id="matplotlib.axis_2">
    <g id="ytick_1">
     <g id="line2d_6">
      <defs>
       <path id="ma3b93f17ea" d="M 0 0 
L -3.5 0 
" style="stroke: #000000; stroke-width: 0.8"/>
      </defs>
      <g>
       <use xlink:href="#ma3b93f17ea" x="70.56" y="57.259894" style="stroke: #000000; stroke-width: 0.8"/>
      </g>
     </g>
     <g id="text_7">
      <!-- 100 -->
      <g transform="translate(44.4725 61.059112) scale(0.1 -0.1)">
       <use xlink:href="#DejaVuSans-31"/>
       <use xlink:href="#DejaVuSans-30" transform="translate(63.623047 0)"/>
       <use xlink:href="#DejaVuSans-30" transform="translate(127.246094 0)"/>
      </g>
     </g>
    </g>
    <g id="ytick_2">
     <g id="line2d_7">
      <g>
       <use xlink:href="#ma3b93f17ea" x="70.56" y="47.04823" style="stroke: #000000; stroke-width: 0.8"/>
      </g>
     </g>
     <g id="text_8">
      <!-- 150 -->
      <g transform="translate(44.4725 50.847449) scale(0.1 -0.1)">
       <use xlink:href="#DejaVuSans-31"/>
       <use xlink:href="#DejaVuSans-35" transform="translate(63.623047 0)"/>
       <use xlink:href="#DejaVuSans-30" transform="translate(127.246094 0)"/>
      </g>
     </g>
    </g>
    <g id="ytick_3">
     <g id="line2d_8">
      <g>
       <use xlink:href="#ma3b93f17ea" x="70.56" y="36.836567" style="stroke: #000000; stroke-width: 0.8"/>
      </g>
     </g>
     <g id="text_9">
      <!-- 200 -->
      <g transform="translate(44.4725 40.635786) scale(0.1 -0.1)">
       <defs>
        <path id="DejaVuSans-32" d="M 1228 531 
L 3431 531 
L 3431 0 
L 469 0 
L 469 531 
Q 828 903 1448 1529 
Q 2069 2156 2228 2338 
Q 2531 2678 2651 2914 
Q 2772 3150 2772 3378 
Q 2772 3750 2511 3984 
Q 2250 4219 1831 4219 
Q 1534 4219 1204 4116 
Q 875 4013 500 3803 
L 500 4441 
Q 881 4594 1212 4672 
Q 1544 4750 1819 4750 
Q 2544 4750 2975 4387 
Q 3406 4025 3406 3419 
Q 3406 3131 3298 2873 
Q 3191 2616 2906 2266 
Q 2828 2175 2409 1742 
Q 1991 1309 1228 531 
z
" transform="scale(0.015625)"/>
       </defs>
       <use xlink:href="#DejaVuSans-32"/>
       <use xlink:href="#DejaVuSans-30" transform="translate(63.623047 0)"/>
       <use xlink:href="#DejaVuSans-30" transform="translate(127.246094 0)"/>
      </g>
     </g>
    </g>
    <g id="ytick_4">
     <g id="line2d_9">
      <g>
       <use xlink:href="#ma3b93f17ea" x="70.56" y="26.624904" style="stroke: #000000; stroke-width: 0.8"/>
      </g>
     </g>
     <g id="text_10">
      <!-- 250 -->
      <g transform="translate(44.4725 30.424123) scale(0.1 -0.1)">
       <use xlink:href="#DejaVuSans-32"/>
       <use xlink:href="#DejaVuSans-35" transform="translate(63.623047 0)"/>
       <use xlink:href="#DejaVuSans-30" transform="translate(127.246094 0)"/>
      </g>
     </g>
    </g>
    <g id="ytick_5">
     <g id="line2d_10">
      <g>
       <use xlink:href="#ma3b93f17ea" x="70.56" y="16.413241" style="stroke: #000000; stroke-width: 0.8"/>
      </g>
     </g>
     <g id="text_11">
      <!-- 300 -->
      <g transform="translate(44.4725 20.21246) scale(0.1 -0.1)">
       <use xlink:href="#DejaVuSans-33"/>
       <use xlink:href="#DejaVuSans-30" transform="translate(63.623047 0)"/>
       <use xlink:href="#DejaVuSans-30" transform="translate(127.246094 0)"/>
      </g>
     </g>
    </g>
    <g id="text_12">
     <!-- s (m) -->
     <g transform="translate(38.392812 51.32022) rotate(-90) scale(0.1 -0.1)">
      <defs>
       <path id="DejaVuSans-20" transform="scale(0.015625)"/>
      </defs>
      <use xlink:href="#DejaVuSans-73"/>
      <use xlink:href="#DejaVuSans-20" transform="translate(52.099609 0)"/>
      <use xlink:href="#DejaVuSans-28" transform="translate(83.886719 0)"/>
      <use xlink:href="#DejaVuSans-6d" transform="translate(122.900391 0)"/>
      <use xlink:href="#DejaVuSans-29" transform="translate(220.3125 0)"/>
     </g>
    </g>
   </g>
   <g id="line2d_11">
    <path d="M 70.56 61.44059 
L 77.335082 60.642725 
L 84.110164 59.85355 
L 90.885246 59.064615 
L 97.660328 58.275759 
L 104.43541 57.487338 
L 111.210492 56.699833 
L 117.985574 55.913122 
L 124.760656 55.127253 
L 131.535738 54.342303 
L 138.31082 53.558367 
L 145.085902 52.775499 
L 151.860984 51.993471 
L 158.636066 51.212441 
L 165.411148 50.432437 
L 172.18623 49.653342 
L 178.961311 48.875233 
L 185.736393 48.098013 
L 192.511475 47.321801 
L 199.286557 46.54618 
L 206.061639 45.771219 
L 212.836721 44.997288 
L 219.611803 44.224022 
L 226.386885 43.451447 
L 233.161967 42.679587 
L 239.937049 41.908456 
L 246.712131 41.138048 
L 253.487213 40.368359 
L 260.262295 39.599382 
L 267.037377 38.831104 
L 273.812459 38.063505 
L 280.587541 37.296565 
L 287.362623 36.530275 
L 294.137705 35.764613 
L 300.912787 34.999554 
L 307.687869 34.235083 
L 314.462951 33.471181 
L 321.238033 32.707824 
L 328.013115 31.944981 
L 334.788197 31.182645 
L 341.563279 30.420809 
L 348.338361 29.659447 
L 355.113443 28.898551 
L 361.888525 28.138105 
L 368.663607 27.378097 
L 375.438689 26.618516 
L 382.21377 25.859343 
L 388.988852 25.100573 
L 395.763934 24.342204 
L 402.539016 23.584207 
L 409.314098 22.826582 
L 416.08918 22.069315 
L 422.864262 21.312403 
L 429.639344 20.555839 
L 436.414426 19.799609 
L 443.189508 19.043701 
L 449.96459 18.288107 
L 456.739672 17.532807 
L 463.514754 16.777798 
L 470.289836 16.023062 
L 477.064918 15.2686 
" clip-path="url(#p7678bee876)" style="fill: none; stroke: #000000; stroke-width: 1.5; stroke-linecap: square"/>
   </g>
   <g id="patch_3">
    <path d="M 70.56 63.749189 
L 70.56 12.96 
" style="fill: none; stroke: #000000; stroke-width: 0.8; stroke-linejoin: miter; stroke-linecap: square"/>
   </g>
   <g id="patch_4">
    <path d="M 483.84 63.749189 
L 483.84 12.96 
" style="fill: none; stroke: #000000; stroke-width: 0.8; stroke-linejoin: miter; stroke-linecap: square"/>
   </g>
   <g id="patch_5">
    <path d="M 70.56 63.749189 
L 483.84 63.749189 
" style="fill: none; stroke: #000000; stroke-width: 0.8; stroke-linejoin: miter; stroke-linecap: square"/>
   </g>
   <g id="patch_6">
    <path d="M 70.56 12.96 
L 483.84 12.96 
" style="fill: none; stroke: #000000; stroke-width: 0.8; stroke-linejoin: miter; stroke-linecap: square"/>
   </g>
  </g>
  <g id="axes_2">
   <g id="patch_7">
    <path d="M 70.56 145.011892 
L 483.84 145.011892 
L 483.84 94.222703 
L 70.56 94.222703 
z
" style="fill: #ffffff"/>
   </g>
   <g id="matplotlib.axis_3">
    <g id="xtick_6">
     <g id="line2d_12">
      <g>
       <use xlink:href="#md9a0fe8c18" x="70.56" y="145.011892" style="stroke: #000000; stroke-width: 0.8"/>
      </g>
     </g>
     <g id="text_13">
      <!-- 0.0 -->
      <g transform="translate(62.608438 159.610329) scale(0.1 -0.1)">
       <use xlink:href="#DejaVuSans-30"/>
       <use xlink:href="#DejaVuSans-2e" transform="translate(63.623047 0)"/>
       <use xlink:href="#DejaVuSans-30" transform="translate(95.410156 0)"/>
      </g>
     </g>
    </g>
    <g id="xtick_7">
     <g id="line2d_13">
      <g>
       <use xlink:href="#md9a0fe8c18" x="172.18623" y="145.011892" style="stroke: #000000; stroke-width: 0.8"/>
      </g>
     </g>
     <g id="text_14">
      <!-- 1.5 -->
      <g transform="translate(164.234667 159.610329) scale(0.1 -0.1)">
       <use xlink:href="#DejaVuSans-31"/>
       <use xlink:href="#DejaVuSans-2e" transform="translate(63.623047 0)"/>
       <use xlink:href="#DejaVuSans-35" transform="translate(95.410156 0)"/>
      </g>
     </g>
    </g>
    <g id="xtick_8">
     <g id="line2d_14">
      <g>
       <use xlink:href="#md9a0fe8c18" x="273.812459" y="145.011892" style="stroke: #000000; stroke-width: 0.8"/>
      </g>
     </g>
     <g id="text_15">
      <!-- 3.0 -->
      <g transform="translate(265.860897 159.610329) scale(0.1 -0.1)">
       <use xlink:href="#DejaVuSans-33"/>
       <use xlink:href="#DejaVuSans-2e" transform="translate(63.623047 0)"/>
       <use xlink:href="#DejaVuSans-30" transform="translate(95.410156 0)"/>
      </g>
     </g>
    </g>
    <g id="xtick_9">
     <g id="line2d_15">
      <g>
       <use xlink:href="#md9a0fe8c18" x="375.438689" y="145.011892" style="stroke: #000000; stroke-width: 0.8"/>
      </g>
     </g>
     <g id="text_16">
      <!-- 4.5 -->
      <g transform="translate(367.487126 159.610329) scale(0.1 -0.1)">
       <use xlink:href="#DejaVuSans-34"/>
       <use xlink:href="#DejaVuSans-2e" transform="translate(63.623047 0)"/>
       <use xlink:href="#DejaVuSans-35" transform="translate(95.410156 0)"/>
      </g>
     </g>
    </g>
    <g id="xtick_10">
     <g id="line2d_16">
      <g>
       <use xlink:href="#md9a0fe8c18" x="477.064918" y="145.011892" style="stroke: #000000; stroke-width: 0.8"/>
      </g>
     </g>
     <g id="text_17">
      <!-- 6.0 -->
      <g transform="translate(469.113356 159.610329) scale(0.1 -0.1)">
       <use xlink:href="#DejaVuSans-36"/>
       <use xlink:href="#DejaVuSans-2e" transform="translate(63.623047 0)"/>
       <use xlink:href="#DejaVuSans-30" transform="translate(95.410156 0)"/>
      </g>
     </g>
    </g>
    <g id="text_18">
     <!-- Time(s) -->
     <g transform="translate(258.460156 173.288454) scale(0.1 -0.1)">
      <use xlink:href="#DejaVuSans-54"/>
      <use xlink:href="#DejaVuSans-69" transform="translate(57.958984 0)"/>
      <use xlink:href="#DejaVuSans-6d" transform="translate(85.742188 0)"/>
      <use xlink:href="#DejaVuSans-65" transform="translate(183.154297 0)"/>
      <use xlink:href="#DejaVuSans-28" transform="translate(244.677734 0)"/>
      <use xlink:href="#DejaVuSans-73" transform="translate(283.691406 0)"/>
      <use xlink:href="#DejaVuSans-29" transform="translate(335.791016 0)"/>
     </g>
    </g>
   </g>
   <g id="matplotlib.axis_4">
    <g id="ytick_6">
     <g id="line2d_17">
      <g>
       <use xlink:href="#ma3b93f17ea" x="70.56" y="139.754441" style="stroke: #000000; stroke-width: 0.8"/>
      </g>
     </g>
     <g id="text_19">
      <!-- 31.88 -->
      <g transform="translate(34.931875 143.55366) scale(0.1 -0.1)">
       <defs>
        <path id="DejaVuSans-38" d="M 2034 2216 
Q 1584 2216 1326 1975 
Q 1069 1734 1069 1313 
Q 1069 891 1326 650 
Q 1584 409 2034 409 
Q 2484 409 2743 651 
Q 3003 894 3003 1313 
Q 3003 1734 2745 1975 
Q 2488 2216 2034 2216 
z
M 1403 2484 
Q 997 2584 770 2862 
Q 544 3141 544 3541 
Q 544 4100 942 4425 
Q 1341 4750 2034 4750 
Q 2731 4750 3128 4425 
Q 3525 4100 3525 3541 
Q 3525 3141 3298 2862 
Q 3072 2584 2669 2484 
Q 3125 2378 3379 2068 
Q 3634 1759 3634 1313 
Q 3634 634 3220 271 
Q 2806 -91 2034 -91 
Q 1263 -91 848 271 
Q 434 634 434 1313 
Q 434 1759 690 2068 
Q 947 2378 1403 2484 
z
M 1172 3481 
Q 1172 3119 1398 2916 
Q 1625 2713 2034 2713 
Q 2441 2713 2670 2916 
Q 2900 3119 2900 3481 
Q 2900 3844 2670 4047 
Q 2441 4250 2034 4250 
Q 1625 4250 1398 4047 
Q 1172 3844 1172 3481 
z
" transform="scale(0.015625)"/>
       </defs>
       <use xlink:href="#DejaVuSans-33"/>
       <use xlink:href="#DejaVuSans-31" transform="translate(63.623047 0)"/>
       <use xlink:href="#DejaVuSans-2e" transform="translate(127.246094 0)"/>
       <use xlink:href="#DejaVuSans-38" transform="translate(159.033203 0)"/>
       <use xlink:href="#DejaVuSans-38" transform="translate(222.65625 0)"/>
      </g>
     </g>
    </g>
    <g id="ytick_7">
     <g id="line2d_18">
      <g>
       <use xlink:href="#ma3b93f17ea" x="70.56" y="127.95194" style="stroke: #000000; stroke-width: 0.8"/>
      </g>
     </g>
     <g id="text_20">
      <!-- 31.92 -->
      <g transform="translate(34.931875 131.751158) scale(0.1 -0.1)">
       <defs>
        <path id="DejaVuSans-39" d="M 703 97 
L 703 672 
Q 941 559 1184 500 
Q 1428 441 1663 441 
Q 2288 441 2617 861 
Q 2947 1281 2994 2138 
Q 2813 1869 2534 1725 
Q 2256 1581 1919 1581 
Q 1219 1581 811 2004 
Q 403 2428 403 3163 
Q 403 3881 828 4315 
Q 1253 4750 1959 4750 
Q 2769 4750 3195 4129 
Q 3622 3509 3622 2328 
Q 3622 1225 3098 567 
Q 2575 -91 1691 -91 
Q 1453 -91 1209 -44 
Q 966 3 703 97 
z
M 1959 2075 
Q 2384 2075 2632 2365 
Q 2881 2656 2881 3163 
Q 2881 3666 2632 3958 
Q 2384 4250 1959 4250 
Q 1534 4250 1286 3958 
Q 1038 3666 1038 3163 
Q 1038 2656 1286 2365 
Q 1534 2075 1959 2075 
z
" transform="scale(0.015625)"/>
       </defs>
       <use xlink:href="#DejaVuSans-33"/>
       <use xlink:href="#DejaVuSans-31" transform="translate(63.623047 0)"/>
       <use xlink:href="#DejaVuSans-2e" transform="translate(127.246094 0)"/>
       <use xlink:href="#DejaVuSans-39" transform="translate(159.033203 0)"/>
       <use xlink:href="#DejaVuSans-32" transform="translate(222.65625 0)"/>
      </g>
     </g>
    </g>
    <g id="ytick_8">
     <g id="line2d_19">
      <g>
       <use xlink:href="#ma3b93f17ea" x="70.56" y="116.149438" style="stroke: #000000; stroke-width: 0.8"/>
      </g>
     </g>
     <g id="text_21">
      <!-- 31.96 -->
      <g transform="translate(34.931875 119.948657) scale(0.1 -0.1)">
       <use xlink:href="#DejaVuSans-33"/>
       <use xlink:href="#DejaVuSans-31" transform="translate(63.623047 0)"/>
       <use xlink:href="#DejaVuSans-2e" transform="translate(127.246094 0)"/>
       <use xlink:href="#DejaVuSans-39" transform="translate(159.033203 0)"/>
       <use xlink:href="#DejaVuSans-36" transform="translate(222.65625 0)"/>
      </g>
     </g>
    </g>
    <g id="ytick_9">
     <g id="line2d_20">
      <g>
       <use xlink:href="#ma3b93f17ea" x="70.56" y="104.346937" style="stroke: #000000; stroke-width: 0.8"/>
      </g>
     </g>
     <g id="text_22">
      <!-- 32.00 -->
      <g transform="translate(34.931875 108.146156) scale(0.1 -0.1)">
       <use xlink:href="#DejaVuSans-33"/>
       <use xlink:href="#DejaVuSans-32" transform="translate(63.623047 0)"/>
       <use xlink:href="#DejaVuSans-2e" transform="translate(127.246094 0)"/>
       <use xlink:href="#DejaVuSans-30" transform="translate(159.033203 0)"/>
       <use xlink:href="#DejaVuSans-30" transform="translate(222.65625 0)"/>
      </g>
     </g>
    </g>
    <g id="text_23">
     <!-- l (m) -->
     <g transform="translate(28.852188 131.367297) rotate(-90) scale(0.1 -0.1)">
      <defs>
       <path id="DejaVuSans-6c" d="M 603 4863 
L 1178 4863 
L 1178 0 
L 603 0 
L 603 4863 
z
" transform="scale(0.015625)"/>
      </defs>
      <use xlink:href="#DejaVuSans-6c"/>
      <use xlink:href="#DejaVuSans-20" transform="translate(27.783203 0)"/>
      <use xlink:href="#DejaVuSans-28" transform="translate(59.570312 0)"/>
      <use xlink:href="#DejaVuSans-6d" transform="translate(98.583984 0)"/>
      <use xlink:href="#DejaVuSans-29" transform="translate(195.996094 0)"/>
     </g>
    </g>
   </g>
   <g id="line2d_21">
    <path d="M 70.56 96.531302 
L 77.335082 103.930233 
L 84.110164 110.121964 
L 90.885246 115.323917 
L 97.660328 119.690026 
L 104.43541 123.354321 
L 111.210492 126.429949 
L 117.985574 129.013334 
L 124.760656 131.184051 
L 131.535738 133.008449 
L 138.31082 134.542029 
L 145.085902 135.831399 
L 151.860984 136.915995 
L 158.636066 137.828384 
L 165.411148 138.596062 
L 172.18623 139.242201 
L 178.961311 139.7861 
L 185.736393 140.244086 
L 192.511475 140.629751 
L 199.286557 140.954745 
L 206.061639 141.228628 
L 212.836721 141.459375 
L 219.611803 141.653905 
L 226.386885 141.817923 
L 233.161967 141.95623 
L 239.937049 142.072875 
L 246.712131 142.171266 
L 253.487213 142.254275 
L 260.262295 142.324316 
L 267.037377 142.383428 
L 273.812459 142.433321 
L 280.587541 142.475444 
L 287.362623 142.511009 
L 294.137705 142.541044 
L 300.912787 142.566412 
L 307.687869 142.587844 
L 314.462951 142.605954 
L 321.238033 142.621256 
L 328.013115 142.634189 
L 334.788197 142.64512 
L 341.563279 142.654359 
L 348.338361 142.662169 
L 355.113443 142.668773 
L 361.888525 142.674357 
L 368.663607 142.679078 
L 375.438689 142.683073 
L 382.21377 142.68645 
L 388.988852 142.689308 
L 395.763934 142.691727 
L 402.539016 142.693773 
L 409.314098 142.695505 
L 416.08918 142.696973 
L 422.864262 142.698214 
L 429.639344 142.699266 
L 436.414426 142.700156 
L 443.189508 142.700911 
L 449.96459 142.701553 
L 456.739672 142.702098 
L 463.514754 142.702563 
L 470.289836 142.702957 
L 477.064918 142.703292 
" clip-path="url(#pf58c7b2899)" style="fill: none; stroke: #000000; stroke-width: 1.5; stroke-linecap: square"/>
   </g>
   <g id="patch_8">
    <path d="M 70.56 145.011892 
L 70.56 94.222703 
" style="fill: none; stroke: #000000; stroke-width: 0.8; stroke-linejoin: miter; stroke-linecap: square"/>
   </g>
   <g id="patch_9">
    <path d="M 483.84 145.011892 
L 483.84 94.222703 
" style="fill: none; stroke: #000000; stroke-width: 0.8; stroke-linejoin: miter; stroke-linecap: square"/>
   </g>
   <g id="patch_10">
    <path d="M 70.56 145.011892 
L 483.84 145.011892 
" style="fill: none; stroke: #000000; stroke-width: 0.8; stroke-linejoin: miter; stroke-linecap: square"/>
   </g>
   <g id="patch_11">
    <path d="M 70.56 94.222703 
L 483.84 94.222703 
" style="fill: none; stroke: #000000; stroke-width: 0.8; stroke-linejoin: miter; stroke-linecap: square"/>
   </g>
  </g>
  <g id="axes_3">
   <g id="patch_12">
    <path d="M 70.56 226.274595 
L 483.84 226.274595 
L 483.84 175.485405 
L 70.56 175.485405 
z
" style="fill: #ffffff"/>
   </g>
   <g id="matplotlib.axis_5">
    <g id="xtick_11">
     <g id="line2d_22">
      <g>
       <use xlink:href="#md9a0fe8c18" x="70.56" y="226.274595" style="stroke: #000000; stroke-width: 0.8"/>
      </g>
     </g>
     <g id="text_24">
      <!-- 0.0 -->
      <g transform="translate(62.608438 240.873032) scale(0.1 -0.1)">
       <use xlink:href="#DejaVuSans-30"/>
       <use xlink:href="#DejaVuSans-2e" transform="translate(63.623047 0)"/>
       <use xlink:href="#DejaVuSans-30" transform="translate(95.410156 0)"/>
      </g>
     </g>
    </g>
    <g id="xtick_12">
     <g id="line2d_23">
      <g>
       <use xlink:href="#md9a0fe8c18" x="172.18623" y="226.274595" style="stroke: #000000; stroke-width: 0.8"/>
      </g>
     </g>
     <g id="text_25">
      <!-- 1.5 -->
      <g transform="translate(164.234667 240.873032) scale(0.1 -0.1)">
       <use xlink:href="#DejaVuSans-31"/>
       <use xlink:href="#DejaVuSans-2e" transform="translate(63.623047 0)"/>
       <use xlink:href="#DejaVuSans-35" transform="translate(95.410156 0)"/>
      </g>
     </g>
    </g>
    <g id="xtick_13">
     <g id="line2d_24">
      <g>
       <use xlink:href="#md9a0fe8c18" x="273.812459" y="226.274595" style="stroke: #000000; stroke-width: 0.8"/>
      </g>
     </g>
     <g id="text_26">
      <!-- 3.0 -->
      <g transform="translate(265.860897 240.873032) scale(0.1 -0.1)">
       <use xlink:href="#DejaVuSans-33"/>
       <use xlink:href="#DejaVuSans-2e" transform="translate(63.623047 0)"/>
       <use xlink:href="#DejaVuSans-30" transform="translate(95.410156 0)"/>
      </g>
     </g>
    </g>
    <g id="xtick_14">
     <g id="line2d_25">
      <g>
       <use xlink:href="#md9a0fe8c18" x="375.438689" y="226.274595" style="stroke: #000000; stroke-width: 0.8"/>
      </g>
     </g>
     <g id="text_27">
      <!-- 4.5 -->
      <g transform="translate(367.487126 240.873032) scale(0.1 -0.1)">
       <use xlink:href="#DejaVuSans-34"/>
       <use xlink:href="#DejaVuSans-2e" transform="translate(63.623047 0)"/>
       <use xlink:href="#DejaVuSans-35" transform="translate(95.410156 0)"/>
      </g>
     </g>
    </g>
    <g id="xtick_15">
     <g id="line2d_26">
      <g>
       <use xlink:href="#md9a0fe8c18" x="477.064918" y="226.274595" style="stroke: #000000; stroke-width: 0.8"/>
      </g>
     </g>
     <g id="text_28">
      <!-- 6.0 -->
      <g transform="translate(469.113356 240.873032) scale(0.1 -0.1)">
       <use xlink:href="#DejaVuSans-36"/>
       <use xlink:href="#DejaVuSans-2e" transform="translate(63.623047 0)"/>
       <use xlink:href="#DejaVuSans-30" transform="translate(95.410156 0)"/>
      </g>
     </g>
    </g>
    <g id="text_29">
     <!-- Time(s) -->
     <g transform="translate(258.460156 254.551157) scale(0.1 -0.1)">
      <use xlink:href="#DejaVuSans-54"/>
      <use xlink:href="#DejaVuSans-69" transform="translate(57.958984 0)"/>
      <use xlink:href="#DejaVuSans-6d" transform="translate(85.742188 0)"/>
      <use xlink:href="#DejaVuSans-65" transform="translate(183.154297 0)"/>
      <use xlink:href="#DejaVuSans-28" transform="translate(244.677734 0)"/>
      <use xlink:href="#DejaVuSans-73" transform="translate(283.691406 0)"/>
      <use xlink:href="#DejaVuSans-29" transform="translate(335.791016 0)"/>
     </g>
    </g>
   </g>
   <g id="matplotlib.axis_6">
    <g id="ytick_10">
     <g id="line2d_27">
      <g>
       <use xlink:href="#ma3b93f17ea" x="70.56" y="222.367734" style="stroke: #000000; stroke-width: 0.8"/>
      </g>
     </g>
     <g id="text_30">
      <!-- 21 -->
      <g transform="translate(50.835 226.166953) scale(0.1 -0.1)">
       <use xlink:href="#DejaVuSans-32"/>
       <use xlink:href="#DejaVuSans-31" transform="translate(63.623047 0)"/>
      </g>
     </g>
    </g>
    <g id="ytick_11">
     <g id="line2d_28">
      <g>
       <use xlink:href="#ma3b93f17ea" x="70.56" y="210.647152" style="stroke: #000000; stroke-width: 0.8"/>
      </g>
     </g>
     <g id="text_31">
      <!-- 24 -->
      <g transform="translate(50.835 214.446371) scale(0.1 -0.1)">
       <use xlink:href="#DejaVuSans-32"/>
       <use xlink:href="#DejaVuSans-34" transform="translate(63.623047 0)"/>
      </g>
     </g>
    </g>
    <g id="ytick_12">
     <g id="line2d_29">
      <g>
       <use xlink:href="#ma3b93f17ea" x="70.56" y="198.92657" style="stroke: #000000; stroke-width: 0.8"/>
      </g>
     </g>
     <g id="text_32">
      <!-- 27 -->
      <g transform="translate(50.835 202.725788) scale(0.1 -0.1)">
       <defs>
        <path id="DejaVuSans-37" d="M 525 4666 
L 3525 4666 
L 3525 4397 
L 1831 0 
L 1172 0 
L 2766 4134 
L 525 4134 
L 525 4666 
z
" transform="scale(0.015625)"/>
       </defs>
       <use xlink:href="#DejaVuSans-32"/>
       <use xlink:href="#DejaVuSans-37" transform="translate(63.623047 0)"/>
      </g>
     </g>
    </g>
    <g id="ytick_13">
     <g id="line2d_30">
      <g>
       <use xlink:href="#ma3b93f17ea" x="70.56" y="187.205988" style="stroke: #000000; stroke-width: 0.8"/>
      </g>
     </g>
     <g id="text_33">
      <!-- 30 -->
      <g transform="translate(50.835 191.005206) scale(0.1 -0.1)">
       <use xlink:href="#DejaVuSans-33"/>
       <use xlink:href="#DejaVuSans-30" transform="translate(63.623047 0)"/>
      </g>
     </g>
    </g>
    <g id="ytick_14">
     <g id="line2d_31">
      <g>
       <use xlink:href="#ma3b93f17ea" x="70.56" y="175.485405" style="stroke: #000000; stroke-width: 0.8"/>
      </g>
     </g>
     <g id="text_34">
      <!-- 33 -->
      <g transform="translate(50.835 179.284624) scale(0.1 -0.1)">
       <use xlink:href="#DejaVuSans-33"/>
       <use xlink:href="#DejaVuSans-33" transform="translate(63.623047 0)"/>
      </g>
     </g>
    </g>
    <g id="text_35">
     <!-- Velocity -->
     <g transform="translate(33.5575 220.495625) rotate(-90) scale(0.1 -0.1)">
      <defs>
       <path id="DejaVuSans-56" d="M 1831 0 
L 50 4666 
L 709 4666 
L 2188 738 
L 3669 4666 
L 4325 4666 
L 2547 0 
L 1831 0 
z
" transform="scale(0.015625)"/>
       <path id="DejaVuSans-6f" d="M 1959 3097 
Q 1497 3097 1228 2736 
Q 959 2375 959 1747 
Q 959 1119 1226 758 
Q 1494 397 1959 397 
Q 2419 397 2687 759 
Q 2956 1122 2956 1747 
Q 2956 2369 2687 2733 
Q 2419 3097 1959 3097 
z
M 1959 3584 
Q 2709 3584 3137 3096 
Q 3566 2609 3566 1747 
Q 3566 888 3137 398 
Q 2709 -91 1959 -91 
Q 1206 -91 779 398 
Q 353 888 353 1747 
Q 353 2609 779 3096 
Q 1206 3584 1959 3584 
z
" transform="scale(0.015625)"/>
       <path id="DejaVuSans-63" d="M 3122 3366 
L 3122 2828 
Q 2878 2963 2633 3030 
Q 2388 3097 2138 3097 
Q 1578 3097 1268 2742 
Q 959 2388 959 1747 
Q 959 1106 1268 751 
Q 1578 397 2138 397 
Q 2388 397 2633 464 
Q 2878 531 3122 666 
L 3122 134 
Q 2881 22 2623 -34 
Q 2366 -91 2075 -91 
Q 1284 -91 818 406 
Q 353 903 353 1747 
Q 353 2603 823 3093 
Q 1294 3584 2113 3584 
Q 2378 3584 2631 3529 
Q 2884 3475 3122 3366 
z
" transform="scale(0.015625)"/>
       <path id="DejaVuSans-74" d="M 1172 4494 
L 1172 3500 
L 2356 3500 
L 2356 3053 
L 1172 3053 
L 1172 1153 
Q 1172 725 1289 603 
Q 1406 481 1766 481 
L 2356 481 
L 2356 0 
L 1766 0 
Q 1100 0 847 248 
Q 594 497 594 1153 
L 594 3053 
L 172 3053 
L 172 3500 
L 594 3500 
L 594 4494 
L 1172 4494 
z
" transform="scale(0.015625)"/>
       <path id="DejaVuSans-79" d="M 2059 -325 
Q 1816 -950 1584 -1140 
Q 1353 -1331 966 -1331 
L 506 -1331 
L 506 -850 
L 844 -850 
Q 1081 -850 1212 -737 
Q 1344 -625 1503 -206 
L 1606 56 
L 191 3500 
L 800 3500 
L 1894 763 
L 2988 3500 
L 3597 3500 
L 2059 -325 
z
" transform="scale(0.015625)"/>
      </defs>
      <use xlink:href="#DejaVuSans-56"/>
      <use xlink:href="#DejaVuSans-65" transform="translate(60.658203 0)"/>
      <use xlink:href="#DejaVuSans-6c" transform="translate(122.181641 0)"/>
      <use xlink:href="#DejaVuSans-6f" transform="translate(149.964844 0)"/>
      <use xlink:href="#DejaVuSans-63" transform="translate(211.146484 0)"/>
      <use xlink:href="#DejaVuSans-69" transform="translate(266.126953 0)"/>
      <use xlink:href="#DejaVuSans-74" transform="translate(293.910156 0)"/>
      <use xlink:href="#DejaVuSans-79" transform="translate(333.119141 0)"/>
     </g>
     <!-- (m/s) -->
     <g transform="translate(44.755313 213.940937) rotate(-90) scale(0.1 -0.1)">
      <defs>
       <path id="DejaVuSans-2f" d="M 1625 4666 
L 2156 4666 
L 531 -594 
L 0 -594 
L 1625 4666 
z
" transform="scale(0.015625)"/>
      </defs>
      <use xlink:href="#DejaVuSans-28"/>
      <use xlink:href="#DejaVuSans-6d" transform="translate(39.013672 0)"/>
      <use xlink:href="#DejaVuSans-2f" transform="translate(136.425781 0)"/>
      <use xlink:href="#DejaVuSans-73" transform="translate(170.117188 0)"/>
      <use xlink:href="#DejaVuSans-29" transform="translate(222.216797 0)"/>
     </g>
    </g>
   </g>
   <g id="line2d_32">
    <path d="M 70.56 153.159837 
L 77.335082 151.781823 
L 84.110164 153.445241 
L 90.885246 153.491661 
L 97.660328 153.507206 
L 104.43541 153.590813 
L 111.210492 153.766207 
L 117.985574 153.918371 
L 124.760656 154.079473 
L 131.535738 154.255323 
L 138.31082 154.44944 
L 145.085902 154.653687 
L 151.860984 154.814361 
L 158.636066 155.005412 
L 165.411148 155.201585 
L 172.18623 155.375581 
L 178.961311 155.564248 
L 185.736393 155.734272 
L 192.511475 155.927067 
L 199.286557 156.040129 
L 206.061639 156.166228 
L 212.836721 156.363535 
L 219.611803 156.490639 
L 226.386885 156.62268 
L 233.161967 156.759603 
L 239.937049 156.89911 
L 246.712131 157.037313 
L 253.487213 157.174855 
L 260.262295 157.311133 
L 267.037377 157.444805 
L 273.812459 157.574779 
L 280.587541 157.700785 
L 287.362623 157.825081 
L 294.137705 157.945101 
L 300.912787 158.060616 
L 307.687869 158.17314 
L 314.462951 158.281931 
L 321.238033 158.386051 
L 328.013115 158.484517 
L 334.788197 158.581524 
L 341.563279 158.677042 
L 348.338361 158.767787 
L 355.113443 158.856924 
L 361.888525 158.943112 
L 368.663607 159.026807 
L 375.438689 159.108377 
L 382.21377 159.186574 
L 388.988852 159.263599 
L 395.763934 159.340351 
L 402.539016 159.411573 
L 409.314098 159.482586 
L 416.08918 159.551131 
L 422.864262 159.619073 
L 429.639344 159.685636 
L 436.414426 159.749448 
L 443.189508 159.811136 
L 449.96459 159.871304 
L 456.739672 159.927441 
L 463.514754 159.982987 
L 470.289836 160.035405 
L 477.064918 160.087552 
" clip-path="url(#p5e1ec86afb)" style="fill: none; stroke: #000000; stroke-width: 1.5; stroke-linecap: square"/>
   </g>
   <g id="line2d_33">
    <path d="M 70.56 164.917079 
L 77.335082 165.014799 
L 84.110164 165.151593 
L 90.885246 165.249311 
L 97.660328 165.347014 
L 104.43541 165.444712 
L 111.210492 165.542411 
L 117.985574 165.653117 
L 124.760656 165.776851 
L 131.535738 165.874527 
L 138.31082 165.9722 
L 145.085902 166.069866 
L 151.860984 166.167537 
L 158.636066 166.265192 
L 165.411148 166.362864 
L 172.18623 166.460535 
L 178.961311 166.519138 
L 185.736393 166.616809 
L 192.511475 166.714481 
L 199.286557 166.812152 
L 206.061639 166.909824 
L 212.836721 167.007512 
L 219.611803 167.105184 
L 226.386885 167.202855 
L 233.161967 167.300531 
L 239.937049 167.398204 
L 246.712131 167.476341 
L 253.487213 167.554478 
L 260.262295 167.652144 
L 267.037377 167.749816 
L 273.812459 167.847487 
L 280.587541 167.945142 
L 287.362623 168.042813 
L 294.137705 168.140485 
L 300.912787 168.238128 
L 307.687869 168.309742 
L 314.462951 168.394363 
L 321.238033 168.492002 
L 328.013115 168.589656 
L 334.788197 168.687265 
L 341.563279 168.784864 
L 348.338361 168.869485 
L 355.113443 168.941053 
L 361.888525 169.038629 
L 368.663607 169.136193 
L 375.438689 169.233786 
L 382.21377 169.311818 
L 388.988852 169.389843 
L 395.763934 169.487418 
L 402.539016 169.584988 
L 409.314098 169.643458 
L 416.08918 169.721511 
" clip-path="url(#p5e1ec86afb)" style="fill: none; stroke-dasharray: 5.55,2.4; stroke-dashoffset: 0; stroke: #000000; stroke-width: 1.5"/>
   </g>
   <g id="line2d_34">
    <path d="M 70.56 163.668951 
L 77.335082 163.668951 
L 84.110164 163.668951 
L 90.885246 163.668951 
L 97.660328 163.668951 
L 104.43541 163.668951 
L 111.210492 163.668951 
L 117.985574 163.668951 
L 124.760656 163.668951 
L 131.535738 163.668951 
L 138.31082 163.668951 
L 145.085902 163.668951 
L 151.860984 163.668951 
L 158.636066 163.668951 
L 165.411148 163.668951 
L 172.18623 163.668951 
L 178.961311 163.668951 
L 185.736393 163.668951 
L 192.511475 163.668951 
L 199.286557 163.668951 
L 206.061639 163.668951 
L 212.836721 163.668951 
L 219.611803 163.668951 
L 226.386885 163.668951 
L 233.161967 163.668951 
L 239.937049 163.668951 
L 246.712131 163.668951 
L 253.487213 163.668951 
L 260.262295 163.668951 
L 267.037377 163.668951 
L 273.812459 163.668951 
L 280.587541 163.668951 
L 287.362623 163.668951 
L 294.137705 163.668951 
L 300.912787 163.668951 
L 307.687869 163.668951 
L 314.462951 163.668951 
L 321.238033 163.668951 
L 328.013115 163.668951 
L 334.788197 163.668951 
L 341.563279 163.668951 
L 348.338361 163.668951 
L 355.113443 163.668951 
L 361.888525 163.668951 
L 368.663607 163.668951 
L 375.438689 163.668951 
L 382.21377 163.668951 
L 388.988852 163.668951 
L 395.763934 163.668951 
L 402.539016 163.668951 
L 409.314098 163.668951 
L 416.08918 163.668951 
L 422.864262 163.668951 
L 429.639344 163.668951 
L 436.414426 163.668951 
L 443.189508 163.668951 
L 449.96459 163.668951 
L 456.739672 163.668951 
L 463.514754 163.668951 
L 470.289836 163.668951 
L 477.064918 163.668951 
" clip-path="url(#p5e1ec86afb)" style="fill: none; stroke-dasharray: 1.5,2.475; stroke-dashoffset: 0; stroke: #000000; stroke-width: 1.5"/>
   </g>
   <g id="patch_13">
    <path d="M 70.56 226.274595 
L 70.56 175.485405 
" style="fill: none; stroke: #000000; stroke-width: 0.8; stroke-linejoin: miter; stroke-linecap: square"/>
   </g>
   <g id="patch_14">
    <path d="M 483.84 226.274595 
L 483.84 175.485405 
" style="fill: none; stroke: #000000; stroke-width: 0.8; stroke-linejoin: miter; stroke-linecap: square"/>
   </g>
   <g id="patch_15">
    <path d="M 70.56 226.274595 
L 483.84 226.274595 
" style="fill: none; stroke: #000000; stroke-width: 0.8; stroke-linejoin: miter; stroke-linecap: square"/>
   </g>
   <g id="patch_16">
    <path d="M 70.56 175.485405 
L 483.84 175.485405 
" style="fill: none; stroke: #000000; stroke-width: 0.8; stroke-linejoin: miter; stroke-linecap: square"/>
   </g>
   <g id="legend_1">
    <g id="patch_17">
     <path d="M 139.02875 193.627905 
L 478.24 193.627905 
Q 479.84 193.627905 479.84 192.027905 
L 479.84 181.085405 
Q 479.84 179.485405 478.24 179.485405 
L 139.02875 179.485405 
Q 137.42875 179.485405 137.42875 181.085405 
L 137.42875 192.027905 
Q 137.42875 193.627905 139.02875 193.627905 
z
" style="fill: #ffffff; opacity: 0.8; stroke: #cccccc; stroke-linejoin: miter"/>
    </g>
    <g id="line2d_35">
     <path d="M 140.62875 185.964155 
L 148.62875 185.964155 
L 156.62875 185.964155 
" style="fill: none; stroke: #000000; stroke-width: 1.5; stroke-linecap: square"/>
    </g>
    <g id="text_36">
     <!-- Velocity profile of EV -->
     <g transform="translate(163.02875 188.764155) scale(0.08 -0.08)">
      <defs>
       <path id="DejaVuSans-70" d="M 1159 525 
L 1159 -1331 
L 581 -1331 
L 581 3500 
L 1159 3500 
L 1159 2969 
Q 1341 3281 1617 3432 
Q 1894 3584 2278 3584 
Q 2916 3584 3314 3078 
Q 3713 2572 3713 1747 
Q 3713 922 3314 415 
Q 2916 -91 2278 -91 
Q 1894 -91 1617 61 
Q 1341 213 1159 525 
z
M 3116 1747 
Q 3116 2381 2855 2742 
Q 2594 3103 2138 3103 
Q 1681 3103 1420 2742 
Q 1159 2381 1159 1747 
Q 1159 1113 1420 752 
Q 1681 391 2138 391 
Q 2594 391 2855 752 
Q 3116 1113 3116 1747 
z
" transform="scale(0.015625)"/>
       <path id="DejaVuSans-72" d="M 2631 2963 
Q 2534 3019 2420 3045 
Q 2306 3072 2169 3072 
Q 1681 3072 1420 2755 
Q 1159 2438 1159 1844 
L 1159 0 
L 581 0 
L 581 3500 
L 1159 3500 
L 1159 2956 
Q 1341 3275 1631 3429 
Q 1922 3584 2338 3584 
Q 2397 3584 2469 3576 
Q 2541 3569 2628 3553 
L 2631 2963 
z
" transform="scale(0.015625)"/>
       <path id="DejaVuSans-66" d="M 2375 4863 
L 2375 4384 
L 1825 4384 
Q 1516 4384 1395 4259 
Q 1275 4134 1275 3809 
L 1275 3500 
L 2222 3500 
L 2222 3053 
L 1275 3053 
L 1275 0 
L 697 0 
L 697 3053 
L 147 3053 
L 147 3500 
L 697 3500 
L 697 3744 
Q 697 4328 969 4595 
Q 1241 4863 1831 4863 
L 2375 4863 
z
" transform="scale(0.015625)"/>
       <path id="DejaVuSans-45" d="M 628 4666 
L 3578 4666 
L 3578 4134 
L 1259 4134 
L 1259 2753 
L 3481 2753 
L 3481 2222 
L 1259 2222 
L 1259 531 
L 3634 531 
L 3634 0 
L 628 0 
L 628 4666 
z
" transform="scale(0.015625)"/>
      </defs>
      <use xlink:href="#DejaVuSans-56"/>
      <use xlink:href="#DejaVuSans-65" transform="translate(60.658203 0)"/>
      <use xlink:href="#DejaVuSans-6c" transform="translate(122.181641 0)"/>
      <use xlink:href="#DejaVuSans-6f" transform="translate(149.964844 0)"/>
      <use xlink:href="#DejaVuSans-63" transform="translate(211.146484 0)"/>
      <use xlink:href="#DejaVuSans-69" transform="translate(266.126953 0)"/>
      <use xlink:href="#DejaVuSans-74" transform="translate(293.910156 0)"/>
      <use xlink:href="#DejaVuSans-79" transform="translate(333.119141 0)"/>
      <use xlink:href="#DejaVuSans-20" transform="translate(392.298828 0)"/>
      <use xlink:href="#DejaVuSans-70" transform="translate(424.085938 0)"/>
      <use xlink:href="#DejaVuSans-72" transform="translate(487.5625 0)"/>
      <use xlink:href="#DejaVuSans-6f" transform="translate(526.425781 0)"/>
      <use xlink:href="#DejaVuSans-66" transform="translate(587.607422 0)"/>
      <use xlink:href="#DejaVuSans-69" transform="translate(622.8125 0)"/>
      <use xlink:href="#DejaVuSans-6c" transform="translate(650.595703 0)"/>
      <use xlink:href="#DejaVuSans-65" transform="translate(678.378906 0)"/>
      <use xlink:href="#DejaVuSans-20" transform="translate(739.902344 0)"/>
      <use xlink:href="#DejaVuSans-6f" transform="translate(771.689453 0)"/>
      <use xlink:href="#DejaVuSans-66" transform="translate(832.871094 0)"/>
      <use xlink:href="#DejaVuSans-20" transform="translate(868.076172 0)"/>
      <use xlink:href="#DejaVuSans-45" transform="translate(899.863281 0)"/>
      <use xlink:href="#DejaVuSans-56" transform="translate(963.046875 0)"/>
     </g>
    </g>
    <g id="line2d_36">
     <path d="M 261.54625 185.964155 
L 269.54625 185.964155 
L 277.54625 185.964155 
" style="fill: none; stroke-dasharray: 5.55,2.4; stroke-dashoffset: 0; stroke: #000000; stroke-width: 1.5"/>
    </g>
    <g id="text_37">
     <!-- Velocity profile of SV1 -->
     <g transform="translate(283.94625 188.764155) scale(0.08 -0.08)">
      <defs>
       <path id="DejaVuSans-53" d="M 3425 4513 
L 3425 3897 
Q 3066 4069 2747 4153 
Q 2428 4238 2131 4238 
Q 1616 4238 1336 4038 
Q 1056 3838 1056 3469 
Q 1056 3159 1242 3001 
Q 1428 2844 1947 2747 
L 2328 2669 
Q 3034 2534 3370 2195 
Q 3706 1856 3706 1288 
Q 3706 609 3251 259 
Q 2797 -91 1919 -91 
Q 1588 -91 1214 -16 
Q 841 59 441 206 
L 441 856 
Q 825 641 1194 531 
Q 1563 422 1919 422 
Q 2459 422 2753 634 
Q 3047 847 3047 1241 
Q 3047 1584 2836 1778 
Q 2625 1972 2144 2069 
L 1759 2144 
Q 1053 2284 737 2584 
Q 422 2884 422 3419 
Q 422 4038 858 4394 
Q 1294 4750 2059 4750 
Q 2388 4750 2728 4690 
Q 3069 4631 3425 4513 
z
" transform="scale(0.015625)"/>
      </defs>
      <use xlink:href="#DejaVuSans-56"/>
      <use xlink:href="#DejaVuSans-65" transform="translate(60.658203 0)"/>
      <use xlink:href="#DejaVuSans-6c" transform="translate(122.181641 0)"/>
      <use xlink:href="#DejaVuSans-6f" transform="translate(149.964844 0)"/>
      <use xlink:href="#DejaVuSans-63" transform="translate(211.146484 0)"/>
      <use xlink:href="#DejaVuSans-69" transform="translate(266.126953 0)"/>
      <use xlink:href="#DejaVuSans-74" transform="translate(293.910156 0)"/>
      <use xlink:href="#DejaVuSans-79" transform="translate(333.119141 0)"/>
      <use xlink:href="#DejaVuSans-20" transform="translate(392.298828 0)"/>
      <use xlink:href="#DejaVuSans-70" transform="translate(424.085938 0)"/>
      <use xlink:href="#DejaVuSans-72" transform="translate(487.5625 0)"/>
      <use xlink:href="#DejaVuSans-6f" transform="translate(526.425781 0)"/>
      <use xlink:href="#DejaVuSans-66" transform="translate(587.607422 0)"/>
      <use xlink:href="#DejaVuSans-69" transform="translate(622.8125 0)"/>
      <use xlink:href="#DejaVuSans-6c" transform="translate(650.595703 0)"/>
      <use xlink:href="#DejaVuSans-65" transform="translate(678.378906 0)"/>
      <use xlink:href="#DejaVuSans-20" transform="translate(739.902344 0)"/>
      <use xlink:href="#DejaVuSans-6f" transform="translate(771.689453 0)"/>
      <use xlink:href="#DejaVuSans-66" transform="translate(832.871094 0)"/>
      <use xlink:href="#DejaVuSans-20" transform="translate(868.076172 0)"/>
      <use xlink:href="#DejaVuSans-53" transform="translate(899.863281 0)"/>
      <use xlink:href="#DejaVuSans-56" transform="translate(963.339844 0)"/>
      <use xlink:href="#DejaVuSans-31" transform="translate(1031.748047 0)"/>
     </g>
    </g>
    <g id="line2d_37">
     <path d="M 387.5775 185.964155 
L 395.5775 185.964155 
L 403.5775 185.964155 
" style="fill: none; stroke-dasharray: 1.5,2.475; stroke-dashoffset: 0; stroke: #000000; stroke-width: 1.5"/>
    </g>
    <g id="text_38">
     <!-- Average velocity -->
     <g transform="translate(409.9775 188.764155) scale(0.08 -0.08)">
      <defs>
       <path id="DejaVuSans-41" d="M 2188 4044 
L 1331 1722 
L 3047 1722 
L 2188 4044 
z
M 1831 4666 
L 2547 4666 
L 4325 0 
L 3669 0 
L 3244 1197 
L 1141 1197 
L 716 0 
L 50 0 
L 1831 4666 
z
" transform="scale(0.015625)"/>
       <path id="DejaVuSans-76" d="M 191 3500 
L 800 3500 
L 1894 563 
L 2988 3500 
L 3597 3500 
L 2284 0 
L 1503 0 
L 191 3500 
z
" transform="scale(0.015625)"/>
       <path id="DejaVuSans-61" d="M 2194 1759 
Q 1497 1759 1228 1600 
Q 959 1441 959 1056 
Q 959 750 1161 570 
Q 1363 391 1709 391 
Q 2188 391 2477 730 
Q 2766 1069 2766 1631 
L 2766 1759 
L 2194 1759 
z
M 3341 1997 
L 3341 0 
L 2766 0 
L 2766 531 
Q 2569 213 2275 61 
Q 1981 -91 1556 -91 
Q 1019 -91 701 211 
Q 384 513 384 1019 
Q 384 1609 779 1909 
Q 1175 2209 1959 2209 
L 2766 2209 
L 2766 2266 
Q 2766 2663 2505 2880 
Q 2244 3097 1772 3097 
Q 1472 3097 1187 3025 
Q 903 2953 641 2809 
L 641 3341 
Q 956 3463 1253 3523 
Q 1550 3584 1831 3584 
Q 2591 3584 2966 3190 
Q 3341 2797 3341 1997 
z
" transform="scale(0.015625)"/>
       <path id="DejaVuSans-67" d="M 2906 1791 
Q 2906 2416 2648 2759 
Q 2391 3103 1925 3103 
Q 1463 3103 1205 2759 
Q 947 2416 947 1791 
Q 947 1169 1205 825 
Q 1463 481 1925 481 
Q 2391 481 2648 825 
Q 2906 1169 2906 1791 
z
M 3481 434 
Q 3481 -459 3084 -895 
Q 2688 -1331 1869 -1331 
Q 1566 -1331 1297 -1286 
Q 1028 -1241 775 -1147 
L 775 -588 
Q 1028 -725 1275 -790 
Q 1522 -856 1778 -856 
Q 2344 -856 2625 -561 
Q 2906 -266 2906 331 
L 2906 616 
Q 2728 306 2450 153 
Q 2172 0 1784 0 
Q 1141 0 747 490 
Q 353 981 353 1791 
Q 353 2603 747 3093 
Q 1141 3584 1784 3584 
Q 2172 3584 2450 3431 
Q 2728 3278 2906 2969 
L 2906 3500 
L 3481 3500 
L 3481 434 
z
" transform="scale(0.015625)"/>
      </defs>
      <use xlink:href="#DejaVuSans-41"/>
      <use xlink:href="#DejaVuSans-76" transform="translate(62.533203 0)"/>
      <use xlink:href="#DejaVuSans-65" transform="translate(121.712891 0)"/>
      <use xlink:href="#DejaVuSans-72" transform="translate(183.236328 0)"/>
      <use xlink:href="#DejaVuSans-61" transform="translate(224.349609 0)"/>
      <use xlink:href="#DejaVuSans-67" transform="translate(285.628906 0)"/>
      <use xlink:href="#DejaVuSans-65" transform="translate(349.105469 0)"/>
      <use xlink:href="#DejaVuSans-20" transform="translate(410.628906 0)"/>
      <use xlink:href="#DejaVuSans-76" transform="translate(442.416016 0)"/>
      <use xlink:href="#DejaVuSans-65" transform="translate(501.595703 0)"/>
      <use xlink:href="#DejaVuSans-6c" transform="translate(563.119141 0)"/>
      <use xlink:href="#DejaVuSans-6f" transform="translate(590.902344 0)"/>
      <use xlink:href="#DejaVuSans-63" transform="translate(652.083984 0)"/>
      <use xlink:href="#DejaVuSans-69" transform="translate(707.064453 0)"/>
      <use xlink:href="#DejaVuSans-74" transform="translate(734.847656 0)"/>
      <use xlink:href="#DejaVuSans-79" transform="translate(774.056641 0)"/>
     </g>
    </g>
   </g>
  </g>
  <g id="axes_4">
   <g id="patch_18">
    <path d="M 70.56 307.537297 
L 483.84 307.537297 
L 483.84 256.748108 
L 70.56 256.748108 
z
" style="fill: #ffffff"/>
   </g>
   <g id="matplotlib.axis_7">
    <g id="xtick_16">
     <g id="line2d_38">
      <g>
       <use xlink:href="#md9a0fe8c18" x="70.56" y="307.537297" style="stroke: #000000; stroke-width: 0.8"/>
      </g>
     </g>
     <g id="text_39">
      <!-- 0.0 -->
      <g transform="translate(62.608438 322.135735) scale(0.1 -0.1)">
       <use xlink:href="#DejaVuSans-30"/>
       <use xlink:href="#DejaVuSans-2e" transform="translate(63.623047 0)"/>
       <use xlink:href="#DejaVuSans-30" transform="translate(95.410156 0)"/>
      </g>
     </g>
    </g>
    <g id="xtick_17">
     <g id="line2d_39">
      <g>
       <use xlink:href="#md9a0fe8c18" x="172.18623" y="307.537297" style="stroke: #000000; stroke-width: 0.8"/>
      </g>
     </g>
     <g id="text_40">
      <!-- 1.5 -->
      <g transform="translate(164.234667 322.135735) scale(0.1 -0.1)">
       <use xlink:href="#DejaVuSans-31"/>
       <use xlink:href="#DejaVuSans-2e" transform="translate(63.623047 0)"/>
       <use xlink:href="#DejaVuSans-35" transform="translate(95.410156 0)"/>
      </g>
     </g>
    </g>
    <g id="xtick_18">
     <g id="line2d_40">
      <g>
       <use xlink:href="#md9a0fe8c18" x="273.812459" y="307.537297" style="stroke: #000000; stroke-width: 0.8"/>
      </g>
     </g>
     <g id="text_41">
      <!-- 3.0 -->
      <g transform="translate(265.860897 322.135735) scale(0.1 -0.1)">
       <use xlink:href="#DejaVuSans-33"/>
       <use xlink:href="#DejaVuSans-2e" transform="translate(63.623047 0)"/>
       <use xlink:href="#DejaVuSans-30" transform="translate(95.410156 0)"/>
      </g>
     </g>
    </g>
    <g id="xtick_19">
     <g id="line2d_41">
      <g>
       <use xlink:href="#md9a0fe8c18" x="375.438689" y="307.537297" style="stroke: #000000; stroke-width: 0.8"/>
      </g>
     </g>
     <g id="text_42">
      <!-- 4.5 -->
      <g transform="translate(367.487126 322.135735) scale(0.1 -0.1)">
       <use xlink:href="#DejaVuSans-34"/>
       <use xlink:href="#DejaVuSans-2e" transform="translate(63.623047 0)"/>
       <use xlink:href="#DejaVuSans-35" transform="translate(95.410156 0)"/>
      </g>
     </g>
    </g>
    <g id="xtick_20">
     <g id="line2d_42">
      <g>
       <use xlink:href="#md9a0fe8c18" x="477.064918" y="307.537297" style="stroke: #000000; stroke-width: 0.8"/>
      </g>
     </g>
     <g id="text_43">
      <!-- 6.0 -->
      <g transform="translate(469.113356 322.135735) scale(0.1 -0.1)">
       <use xlink:href="#DejaVuSans-36"/>
       <use xlink:href="#DejaVuSans-2e" transform="translate(63.623047 0)"/>
       <use xlink:href="#DejaVuSans-30" transform="translate(95.410156 0)"/>
      </g>
     </g>
    </g>
    <g id="text_44">
     <!-- Time(s) -->
     <g transform="translate(258.460156 335.81386) scale(0.1 -0.1)">
      <use xlink:href="#DejaVuSans-54"/>
      <use xlink:href="#DejaVuSans-69" transform="translate(57.958984 0)"/>
      <use xlink:href="#DejaVuSans-6d" transform="translate(85.742188 0)"/>
      <use xlink:href="#DejaVuSans-65" transform="translate(183.154297 0)"/>
      <use xlink:href="#DejaVuSans-28" transform="translate(244.677734 0)"/>
      <use xlink:href="#DejaVuSans-73" transform="translate(283.691406 0)"/>
      <use xlink:href="#DejaVuSans-29" transform="translate(335.791016 0)"/>
     </g>
    </g>
   </g>
   <g id="matplotlib.axis_8">
    <g id="ytick_15">
     <g id="line2d_43">
      <g>
       <use xlink:href="#ma3b93f17ea" x="70.56" y="303.700366" style="stroke: #000000; stroke-width: 0.8"/>
      </g>
     </g>
     <g id="text_45">
      <!-- −4 -->
      <g transform="translate(48.817813 307.499585) scale(0.1 -0.1)">
       <defs>
        <path id="DejaVuSans-2212" d="M 678 2272 
L 4684 2272 
L 4684 1741 
L 678 1741 
L 678 2272 
z
" transform="scale(0.015625)"/>
       </defs>
       <use xlink:href="#DejaVuSans-2212"/>
       <use xlink:href="#DejaVuSans-34" transform="translate(83.789062 0)"/>
      </g>
     </g>
    </g>
    <g id="ytick_16">
     <g id="line2d_44">
      <g>
       <use xlink:href="#ma3b93f17ea" x="70.56" y="291.838357" style="stroke: #000000; stroke-width: 0.8"/>
      </g>
     </g>
     <g id="text_46">
      <!-- −2 -->
      <g transform="translate(48.817813 295.637576) scale(0.1 -0.1)">
       <use xlink:href="#DejaVuSans-2212"/>
       <use xlink:href="#DejaVuSans-32" transform="translate(83.789062 0)"/>
      </g>
     </g>
    </g>
    <g id="ytick_17">
     <g id="line2d_45">
      <g>
       <use xlink:href="#ma3b93f17ea" x="70.56" y="279.976348" style="stroke: #000000; stroke-width: 0.8"/>
      </g>
     </g>
     <g id="text_47">
      <!-- 0 -->
      <g transform="translate(57.1975 283.775567) scale(0.1 -0.1)">
       <use xlink:href="#DejaVuSans-30"/>
      </g>
     </g>
    </g>
    <g id="ytick_18">
     <g id="line2d_46">
      <g>
       <use xlink:href="#ma3b93f17ea" x="70.56" y="268.114339" style="stroke: #000000; stroke-width: 0.8"/>
      </g>
     </g>
     <g id="text_48">
      <!-- 2 -->
      <g transform="translate(57.1975 271.913558) scale(0.1 -0.1)">
       <use xlink:href="#DejaVuSans-32"/>
      </g>
     </g>
    </g>
    <g id="text_49">
     <!-- Acceleration -->
     <g transform="translate(30.554063 313.213015) rotate(-90) scale(0.1 -0.1)">
      <defs>
       <path id="DejaVuSans-6e" d="M 3513 2113 
L 3513 0 
L 2938 0 
L 2938 2094 
Q 2938 2591 2744 2837 
Q 2550 3084 2163 3084 
Q 1697 3084 1428 2787 
Q 1159 2491 1159 1978 
L 1159 0 
L 581 0 
L 581 3500 
L 1159 3500 
L 1159 2956 
Q 1366 3272 1645 3428 
Q 1925 3584 2291 3584 
Q 2894 3584 3203 3211 
Q 3513 2838 3513 2113 
z
" transform="scale(0.015625)"/>
      </defs>
      <use xlink:href="#DejaVuSans-41"/>
      <use xlink:href="#DejaVuSans-63" transform="translate(66.658203 0)"/>
      <use xlink:href="#DejaVuSans-63" transform="translate(121.638672 0)"/>
      <use xlink:href="#DejaVuSans-65" transform="translate(176.619141 0)"/>
      <use xlink:href="#DejaVuSans-6c" transform="translate(238.142578 0)"/>
      <use xlink:href="#DejaVuSans-65" transform="translate(265.925781 0)"/>
      <use xlink:href="#DejaVuSans-72" transform="translate(327.449219 0)"/>
      <use xlink:href="#DejaVuSans-61" transform="translate(368.5625 0)"/>
      <use xlink:href="#DejaVuSans-74" transform="translate(429.841797 0)"/>
      <use xlink:href="#DejaVuSans-69" transform="translate(469.050781 0)"/>
      <use xlink:href="#DejaVuSans-6f" transform="translate(496.833984 0)"/>
      <use xlink:href="#DejaVuSans-6e" transform="translate(558.015625 0)"/>
     </g>
     <!-- (m/$s^2$) -->
     <g transform="translate(42.738125 297.842703) rotate(-90) scale(0.1 -0.1)">
      <defs>
       <path id="DejaVuSans-Oblique-73" d="M 3200 3397 
L 3091 2853 
Q 2863 2978 2609 3040 
Q 2356 3103 2088 3103 
Q 1634 3103 1373 2948 
Q 1113 2794 1113 2528 
Q 1113 2219 1719 2053 
Q 1766 2041 1788 2034 
L 1972 1978 
Q 2547 1819 2739 1644 
Q 2931 1469 2931 1166 
Q 2931 609 2489 259 
Q 2047 -91 1331 -91 
Q 1053 -91 747 -37 
Q 441 16 72 128 
L 184 722 
Q 500 559 806 475 
Q 1113 391 1394 391 
Q 1816 391 2080 572 
Q 2344 753 2344 1031 
Q 2344 1331 1650 1516 
L 1591 1531 
L 1394 1581 
Q 956 1697 753 1886 
Q 550 2075 550 2369 
Q 550 2928 970 3256 
Q 1391 3584 2113 3584 
Q 2397 3584 2667 3537 
Q 2938 3491 3200 3397 
z
" transform="scale(0.015625)"/>
      </defs>
      <use xlink:href="#DejaVuSans-28" transform="translate(0 0.765625)"/>
      <use xlink:href="#DejaVuSans-6d" transform="translate(39.013672 0.765625)"/>
      <use xlink:href="#DejaVuSans-2f" transform="translate(136.425781 0.765625)"/>
      <use xlink:href="#DejaVuSans-Oblique-73" transform="translate(170.117188 0.765625)"/>
      <use xlink:href="#DejaVuSans-32" transform="translate(226.866693 39.046875) scale(0.7)"/>
      <use xlink:href="#DejaVuSans-29" transform="translate(274.137201 0.765625)"/>
     </g>
    </g>
   </g>
   <g id="line2d_47">
    <path d="M 70.56 279.976348 
L 77.335082 259.056708 
L 84.110164 305.228698 
L 90.885246 280.681048 
L 97.660328 280.212347 
L 104.43541 281.245582 
L 111.210492 282.638997 
L 117.985574 282.286361 
L 124.760656 282.422026 
L 131.535738 282.645937 
L 138.31082 282.923224 
L 145.085902 283.077034 
L 151.860984 282.415528 
L 158.636066 282.876701 
L 165.411148 282.954445 
L 172.18623 282.617792 
L 178.961311 282.8405 
L 185.736393 282.557475 
L 192.511475 282.903178 
L 199.286557 281.692737 
L 206.061639 281.890648 
L 212.836721 282.971673 
L 219.611803 281.90591 
L 226.386885 281.980868 
L 233.161967 282.054974 
L 239.937049 282.094196 
L 246.712131 282.074415 
L 253.487213 282.064377 
L 260.262295 282.045177 
L 267.037377 282.005618 
L 273.812459 281.949482 
L 280.587541 281.889244 
L 287.362623 281.863295 
L 294.137705 281.798365 
L 300.912787 281.72999 
L 307.687869 281.684567 
L 314.462951 281.627909 
L 321.238033 281.556984 
L 328.013115 281.471175 
L 334.788197 281.449006 
L 341.563279 281.426404 
L 348.338361 281.353942 
L 355.113443 281.329538 
L 361.888525 281.28477 
L 368.663607 281.246925 
L 375.438689 281.214661 
L 382.21377 281.163449 
L 388.988852 281.145673 
L 395.763934 281.141517 
L 402.539016 281.057568 
L 409.314098 281.054391 
L 416.08918 281.016941 
L 422.864262 281.007764 
L 429.639344 280.986847 
L 436.414426 280.945077 
L 443.189508 280.912837 
L 449.96459 280.889754 
L 456.739672 280.828564 
L 463.514754 280.819592 
L 470.289836 280.772113 
L 477.064918 280.767992 
" clip-path="url(#p1aa6cab079)" style="fill: none; stroke: #000000; stroke-width: 1.5; stroke-linecap: square"/>
   </g>
   <g id="patch_19">
    <path d="M 70.56 307.537297 
L 70.56 256.748108 
" style="fill: none; stroke: #000000; stroke-width: 0.8; stroke-linejoin: miter; stroke-linecap: square"/>
   </g>
   <g id="patch_20">
    <path d="M 483.84 307.537297 
L 483.84 256.748108 
" style="fill: none; stroke: #000000; stroke-width: 0.8; stroke-linejoin: miter; stroke-linecap: square"/>
   </g>
   <g id="patch_21">
    <path d="M 70.56 307.537297 
L 483.84 307.537297 
" style="fill: none; stroke: #000000; stroke-width: 0.8; stroke-linejoin: miter; stroke-linecap: square"/>
   </g>
   <g id="patch_22">
    <path d="M 70.56 256.748108 
L 483.84 256.748108 
" style="fill: none; stroke: #000000; stroke-width: 0.8; stroke-linejoin: miter; stroke-linecap: square"/>
   </g>
  </g>
  <g id="axes_5">
   <g id="patch_23">
    <path d="M 70.56 388.8 
L 483.84 388.8 
L 483.84 338.010811 
L 70.56 338.010811 
z
" style="fill: #ffffff"/>
   </g>
   <g id="matplotlib.axis_9">
    <g id="xtick_21">
     <g id="line2d_48">
      <g>
       <use xlink:href="#md9a0fe8c18" x="70.56" y="388.8" style="stroke: #000000; stroke-width: 0.8"/>
      </g>
     </g>
     <g id="text_50">
      <!-- 0.0 -->
      <g transform="translate(62.608438 403.398437) scale(0.1 -0.1)">
       <use xlink:href="#DejaVuSans-30"/>
       <use xlink:href="#DejaVuSans-2e" transform="translate(63.623047 0)"/>
       <use xlink:href="#DejaVuSans-30" transform="translate(95.410156 0)"/>
      </g>
     </g>
    </g>
    <g id="xtick_22">
     <g id="line2d_49">
      <g>
       <use xlink:href="#md9a0fe8c18" x="172.18623" y="388.8" style="stroke: #000000; stroke-width: 0.8"/>
      </g>
     </g>
     <g id="text_51">
      <!-- 1.5 -->
      <g transform="translate(164.234667 403.398437) scale(0.1 -0.1)">
       <use xlink:href="#DejaVuSans-31"/>
       <use xlink:href="#DejaVuSans-2e" transform="translate(63.623047 0)"/>
       <use xlink:href="#DejaVuSans-35" transform="translate(95.410156 0)"/>
      </g>
     </g>
    </g>
    <g id="xtick_23">
     <g id="line2d_50">
      <g>
       <use xlink:href="#md9a0fe8c18" x="273.812459" y="388.8" style="stroke: #000000; stroke-width: 0.8"/>
      </g>
     </g>
     <g id="text_52">
      <!-- 3.0 -->
      <g transform="translate(265.860897 403.398437) scale(0.1 -0.1)">
       <use xlink:href="#DejaVuSans-33"/>
       <use xlink:href="#DejaVuSans-2e" transform="translate(63.623047 0)"/>
       <use xlink:href="#DejaVuSans-30" transform="translate(95.410156 0)"/>
      </g>
     </g>
    </g>
    <g id="xtick_24">
     <g id="line2d_51">
      <g>
       <use xlink:href="#md9a0fe8c18" x="375.438689" y="388.8" style="stroke: #000000; stroke-width: 0.8"/>
      </g>
     </g>
     <g id="text_53">
      <!-- 4.5 -->
      <g transform="translate(367.487126 403.398437) scale(0.1 -0.1)">
       <use xlink:href="#DejaVuSans-34"/>
       <use xlink:href="#DejaVuSans-2e" transform="translate(63.623047 0)"/>
       <use xlink:href="#DejaVuSans-35" transform="translate(95.410156 0)"/>
      </g>
     </g>
    </g>
    <g id="xtick_25">
     <g id="line2d_52">
      <g>
       <use xlink:href="#md9a0fe8c18" x="477.064918" y="388.8" style="stroke: #000000; stroke-width: 0.8"/>
      </g>
     </g>
     <g id="text_54">
      <!-- 6.0 -->
      <g transform="translate(469.113356 403.398437) scale(0.1 -0.1)">
       <use xlink:href="#DejaVuSans-36"/>
       <use xlink:href="#DejaVuSans-2e" transform="translate(63.623047 0)"/>
       <use xlink:href="#DejaVuSans-30" transform="translate(95.410156 0)"/>
      </g>
     </g>
    </g>
    <g id="text_55">
     <!-- Time(s) -->
     <g transform="translate(258.460156 417.076562) scale(0.1 -0.1)">
      <use xlink:href="#DejaVuSans-54"/>
      <use xlink:href="#DejaVuSans-69" transform="translate(57.958984 0)"/>
      <use xlink:href="#DejaVuSans-6d" transform="translate(85.742188 0)"/>
      <use xlink:href="#DejaVuSans-65" transform="translate(183.154297 0)"/>
      <use xlink:href="#DejaVuSans-28" transform="translate(244.677734 0)"/>
      <use xlink:href="#DejaVuSans-73" transform="translate(283.691406 0)"/>
      <use xlink:href="#DejaVuSans-29" transform="translate(335.791016 0)"/>
     </g>
    </g>
   </g>
   <g id="matplotlib.axis_10">
    <g id="ytick_19">
     <g id="line2d_53">
      <g>
       <use xlink:href="#ma3b93f17ea" x="70.56" y="388.8" style="stroke: #000000; stroke-width: 0.8"/>
      </g>
     </g>
     <g id="text_56">
      <!-- −2 -->
      <g transform="translate(48.817813 392.599219) scale(0.1 -0.1)">
       <use xlink:href="#DejaVuSans-2212"/>
       <use xlink:href="#DejaVuSans-32" transform="translate(83.789062 0)"/>
      </g>
     </g>
    </g>
    <g id="ytick_20">
     <g id="line2d_54">
      <g>
       <use xlink:href="#ma3b93f17ea" x="70.56" y="376.102703" style="stroke: #000000; stroke-width: 0.8"/>
      </g>
     </g>
     <g id="text_57">
      <!-- 0 -->
      <g transform="translate(57.1975 379.901921) scale(0.1 -0.1)">
       <use xlink:href="#DejaVuSans-30"/>
      </g>
     </g>
    </g>
    <g id="ytick_21">
     <g id="line2d_55">
      <g>
       <use xlink:href="#ma3b93f17ea" x="70.56" y="363.405405" style="stroke: #000000; stroke-width: 0.8"/>
      </g>
     </g>
     <g id="text_58">
      <!-- 2 -->
      <g transform="translate(57.1975 367.204624) scale(0.1 -0.1)">
       <use xlink:href="#DejaVuSans-32"/>
      </g>
     </g>
    </g>
    <g id="ytick_22">
     <g id="line2d_56">
      <g>
       <use xlink:href="#ma3b93f17ea" x="70.56" y="350.708108" style="stroke: #000000; stroke-width: 0.8"/>
      </g>
     </g>
     <g id="text_59">
      <!-- 4 -->
      <g transform="translate(57.1975 354.507327) scale(0.1 -0.1)">
       <use xlink:href="#DejaVuSans-34"/>
      </g>
     </g>
    </g>
    <g id="ytick_23">
     <g id="line2d_57">
      <g>
       <use xlink:href="#ma3b93f17ea" x="70.56" y="338.010811" style="stroke: #000000; stroke-width: 0.8"/>
      </g>
     </g>
     <g id="text_60">
      <!-- 6 -->
      <g transform="translate(57.1975 341.81003) scale(0.1 -0.1)">
       <use xlink:href="#DejaVuSans-36"/>
      </g>
     </g>
    </g>
    <g id="text_61">
     <!-- Heading Angle -->
     <g transform="translate(31.540312 400.030405) rotate(-90) scale(0.1 -0.1)">
      <defs>
       <path id="DejaVuSans-48" d="M 628 4666 
L 1259 4666 
L 1259 2753 
L 3553 2753 
L 3553 4666 
L 4184 4666 
L 4184 0 
L 3553 0 
L 3553 2222 
L 1259 2222 
L 1259 0 
L 628 0 
L 628 4666 
z
" transform="scale(0.015625)"/>
       <path id="DejaVuSans-64" d="M 2906 2969 
L 2906 4863 
L 3481 4863 
L 3481 0 
L 2906 0 
L 2906 525 
Q 2725 213 2448 61 
Q 2172 -91 1784 -91 
Q 1150 -91 751 415 
Q 353 922 353 1747 
Q 353 2572 751 3078 
Q 1150 3584 1784 3584 
Q 2172 3584 2448 3432 
Q 2725 3281 2906 2969 
z
M 947 1747 
Q 947 1113 1208 752 
Q 1469 391 1925 391 
Q 2381 391 2643 752 
Q 2906 1113 2906 1747 
Q 2906 2381 2643 2742 
Q 2381 3103 1925 3103 
Q 1469 3103 1208 2742 
Q 947 2381 947 1747 
z
" transform="scale(0.015625)"/>
      </defs>
      <use xlink:href="#DejaVuSans-48"/>
      <use xlink:href="#DejaVuSans-65" transform="translate(75.195312 0)"/>
      <use xlink:href="#DejaVuSans-61" transform="translate(136.71875 0)"/>
      <use xlink:href="#DejaVuSans-64" transform="translate(197.998047 0)"/>
      <use xlink:href="#DejaVuSans-69" transform="translate(261.474609 0)"/>
      <use xlink:href="#DejaVuSans-6e" transform="translate(289.257812 0)"/>
      <use xlink:href="#DejaVuSans-67" transform="translate(352.636719 0)"/>
      <use xlink:href="#DejaVuSans-20" transform="translate(416.113281 0)"/>
      <use xlink:href="#DejaVuSans-41" transform="translate(447.900391 0)"/>
      <use xlink:href="#DejaVuSans-6e" transform="translate(516.308594 0)"/>
      <use xlink:href="#DejaVuSans-67" transform="translate(579.6875 0)"/>
      <use xlink:href="#DejaVuSans-6c" transform="translate(643.164062 0)"/>
      <use xlink:href="#DejaVuSans-65" transform="translate(670.947266 0)"/>
     </g>
     <!-- (degree) -->
     <g transform="translate(42.738125 384.828062) rotate(-90) scale(0.1 -0.1)">
      <use xlink:href="#DejaVuSans-28"/>
      <use xlink:href="#DejaVuSans-64" transform="translate(39.013672 0)"/>
      <use xlink:href="#DejaVuSans-65" transform="translate(102.490234 0)"/>
      <use xlink:href="#DejaVuSans-67" transform="translate(164.013672 0)"/>
      <use xlink:href="#DejaVuSans-72" transform="translate(227.490234 0)"/>
      <use xlink:href="#DejaVuSans-65" transform="translate(266.353516 0)"/>
      <use xlink:href="#DejaVuSans-65" transform="translate(327.876953 0)"/>
      <use xlink:href="#DejaVuSans-29" transform="translate(389.400391 0)"/>
     </g>
    </g>
   </g>
   <g id="line2d_58">
    <path d="M 70.56 378.512806 
L 77.335082 378.431876 
L 84.110164 378.179502 
L 90.885246 377.895019 
L 97.660328 377.627548 
L 104.43541 377.391728 
L 111.210492 377.189366 
L 117.985574 377.01772 
L 124.760656 376.872867 
L 131.535738 376.750895 
L 138.31082 376.648287 
L 145.085902 376.561998 
L 151.860984 376.489427 
L 158.636066 376.428394 
L 165.411148 376.377055 
L 172.18623 376.333856 
L 178.961311 376.297498 
L 185.736393 376.266893 
L 192.511475 376.241125 
L 199.286557 376.219423 
L 206.061639 376.201139 
L 212.836721 376.185735 
L 219.611803 376.172754 
L 226.386885 376.161812 
L 233.161967 376.152587 
L 239.937049 376.144809 
L 246.712131 376.138249 
L 253.487213 376.132716 
L 260.262295 376.128048 
L 267.037377 376.12411 
L 273.812459 376.120786 
L 280.587541 376.117981 
L 287.362623 376.115612 
L 294.137705 376.113613 
L 300.912787 376.111924 
L 307.687869 376.110498 
L 314.462951 376.109294 
L 321.238033 376.108276 
L 328.013115 376.107416 
L 334.788197 376.106689 
L 341.563279 376.106074 
L 348.338361 376.105554 
L 355.113443 376.105115 
L 361.888525 376.104743 
L 368.663607 376.104429 
L 375.438689 376.104164 
L 382.21377 376.103939 
L 388.988852 376.103749 
L 395.763934 376.103589 
L 402.539016 376.103453 
L 409.314098 376.103338 
L 416.08918 376.103241 
L 422.864262 376.103158 
L 429.639344 376.103089 
L 436.414426 376.10303 
L 443.189508 376.10298 
L 449.96459 376.102938 
L 456.739672 376.102903 
L 463.514754 376.102873 
L 470.289836 376.102847 
L 477.064918 376.102826 
" clip-path="url(#p65d0b35158)" style="fill: none; stroke: #000000; stroke-width: 1.5; stroke-linecap: square"/>
   </g>
   <g id="patch_24">
    <path d="M 70.56 388.8 
L 70.56 338.010811 
" style="fill: none; stroke: #000000; stroke-width: 0.8; stroke-linejoin: miter; stroke-linecap: square"/>
   </g>
   <g id="patch_25">
    <path d="M 483.84 388.8 
L 483.84 338.010811 
" style="fill: none; stroke: #000000; stroke-width: 0.8; stroke-linejoin: miter; stroke-linecap: square"/>
   </g>
   <g id="patch_26">
    <path d="M 70.56 388.8 
L 483.84 388.8 
" style="fill: none; stroke: #000000; stroke-width: 0.8; stroke-linejoin: miter; stroke-linecap: square"/>
   </g>
   <g id="patch_27">
    <path d="M 70.56 338.010811 
L 483.84 338.010811 
" style="fill: none; stroke: #000000; stroke-width: 0.8; stroke-linejoin: miter; stroke-linecap: square"/>
   </g>
  </g>
 </g>
 <defs>
  <clipPath id="p7678bee876">
   <rect x="70.56" y="12.96" width="413.28" height="50.789189"/>
  </clipPath>
  <clipPath id="pf58c7b2899">
   <rect x="70.56" y="94.222703" width="413.28" height="50.789189"/>
  </clipPath>
  <clipPath id="p5e1ec86afb">
   <rect x="70.56" y="175.485405" width="413.28" height="50.789189"/>
  </clipPath>
  <clipPath id="p1aa6cab079">
   <rect x="70.56" y="256.748108" width="413.28" height="50.789189"/>
  </clipPath>
  <clipPath id="p65d0b35158">
   <rect x="70.56" y="338.010811" width="413.28" height="50.789189"/>
  </clipPath>
 </defs>
</svg>
