<?xml version="1.0" encoding="utf-8" standalone="no"?>
<!DOCTYPE svg PUBLIC "-//W3C//DTD SVG 1.1//EN"
  "http://www.w3.org/Graphics/SVG/1.1/DTD/svg11.dtd">
<svg xmlns:xlink="http://www.w3.org/1999/xlink" width="504pt" height="432pt" viewBox="0 0 504 432" xmlns="http://www.w3.org/2000/svg" version="1.1">
 <metadata>
  <rdf:RDF xmlns:dc="http://purl.org/dc/elements/1.1/" xmlns:cc="http://creativecommons.org/ns#" xmlns:rdf="http://www.w3.org/1999/02/22-rdf-syntax-ns#">
   <cc:Work>
    <dc:type rdf:resource="http://purl.org/dc/dcmitype/StillImage"/>
    <dc:date>2026-03-10T11:54:10.082718</dc:date>
    <dc:format>image/svg+xml</dc:format>
    <dc:creator>
     <cc:Agent>
      <dc:title>Matplotlib v3.10.8, https://matplotlib.org/</dc:title>
     </cc:Agent>
    </dc:creator>
   </cc:Work>
  </rdf:RDF>
 </metadata>
 <defs>
  <style type="text/css">*{stroke-linejoin: round; stroke-linecap: butt}</style>
 </defs>
 <g id="figure_1">
  <g id="patch_1">
   <path d="M 0 432 
L 504 432 
L 504 0 
L 0 0 
z
" style="fill: #ffffff"/>
  </g>
  <g id="axes_1">
   <g id="patch_2">
    <path d="M 70.56 63.749189 
L 483.84 63.749189 
L 483.84 12.96 
L 70.56 12.96 
z
" style="fill: #ffffff"/>
   </g>
   <g id="matplotlib.axis_1">
    <g id="xtick_1">
     <g id="line2d_1">
      <defs>
       <path id="m90488081c8" d="M 0 0 
L 0 3.5 
" style="stroke: #000000; stroke-width: 0.8"/>
      </defs>
      <g>
       <use xlink:href="#m90488081c8" x="70.56" y="63.749189" style="stroke: #000000; stroke-width: 0.8"/>
      </g>
     </g>
     <g id="text_1">
      <!-- 0.0 -->
      <g transform="translate(62.608438 78.347627) scale(0.1 -0.1)">
       <defs>
        <path id="DejaVuSans-30" d="M 2034 4250 
Q 1547 4250 1301 3770 
Q 1056 3291 1056 2328 
Q 1056 1369 1301 889 
Q 1547 409 2034 409 
Q 2525 409 2770 889 
Q 3016 1369 3016 2328 
Q 3016 3291 2770 3770 
Q 2525 4250 2034 4250 
z
M 2034 4750 
Q 2819 4750 3233 4129 
Q 3647 3509 3647 2328 
Q 3647 1150 3233 529 
Q 2819 -91 2034 -91 
Q 1250 -91 836 529 
Q 422 1150 422 2328 
Q 422 3509 836 4129 
Q 1250 4750 2034 4750 
z
" transform="scale(0.015625)"/>
        <path id="DejaVuSans-2e" d="M 684 794 
L 1344 794 
L 1344 0 
L 684 0 
L 684 794 
z
" transform="scale(0.015625)"/>
       </defs>
       <use xlink:href="#DejaVuSans-30"/>
       <use xlink:href="#DejaVuSans-2e" transform="translate(63.623047 0)"/>
       <use xlink:href="#DejaVuSans-30" transform="translate(95.410156 0)"/>
      </g>
     </g>
    </g>
    <g id="xtick_2">
     <g id="line2d_2">
      <g>
       <use xlink:href="#m90488081c8" x="151.069091" y="63.749189" style="stroke: #000000; stroke-width: 0.8"/>
      </g>
     </g>
     <g id="text_2">
      <!-- 1.5 -->
      <g transform="translate(143.117528 78.347627) scale(0.1 -0.1)">
       <defs>
        <path id="DejaVuSans-31" d="M 794 531 
L 1825 531 
L 1825 4091 
L 703 3866 
L 703 4441 
L 1819 4666 
L 2450 4666 
L 2450 531 
L 3481 531 
L 3481 0 
L 794 0 
L 794 531 
z
" transform="scale(0.015625)"/>
        <path id="DejaVuSans-35" d="M 691 4666 
L 3169 4666 
L 3169 4134 
L 1269 4134 
L 1269 2991 
Q 1406 3038 1543 3061 
Q 1681 3084 1819 3084 
Q 2600 3084 3056 2656 
Q 3513 2228 3513 1497 
Q 3513 744 3044 326 
Q 2575 -91 1722 -91 
Q 1428 -91 1123 -41 
Q 819 9 494 109 
L 494 744 
Q 775 591 1075 516 
Q 1375 441 1709 441 
Q 2250 441 2565 725 
Q 2881 1009 2881 1497 
Q 2881 1984 2565 2268 
Q 2250 2553 1709 2553 
Q 1456 2553 1204 2497 
Q 953 2441 691 2322 
L 691 4666 
z
" transform="scale(0.015625)"/>
       </defs>
       <use xlink:href="#DejaVuSans-31"/>
       <use xlink:href="#DejaVuSans-2e" transform="translate(63.623047 0)"/>
       <use xlink:href="#DejaVuSans-35" transform="translate(95.410156 0)"/>
      </g>
     </g>
    </g>
    <g id="xtick_3">
     <g id="line2d_3">
      <g>
       <use xlink:href="#m90488081c8" x="231.578182" y="63.749189" style="stroke: #000000; stroke-width: 0.8"/>
      </g>
     </g>
     <g id="text_3">
      <!-- 3.0 -->
      <g transform="translate(223.626619 78.347627) scale(0.1 -0.1)">
       <defs>
        <path id="DejaVuSans-33" d="M 2597 2516 
Q 3050 2419 3304 2112 
Q 3559 1806 3559 1356 
Q 3559 666 3084 287 
Q 2609 -91 1734 -91 
Q 1441 -91 1130 -33 
Q 819 25 488 141 
L 488 750 
Q 750 597 1062 519 
Q 1375 441 1716 441 
Q 2309 441 2620 675 
Q 2931 909 2931 1356 
Q 2931 1769 2642 2001 
Q 2353 2234 1838 2234 
L 1294 2234 
L 1294 2753 
L 1863 2753 
Q 2328 2753 2575 2939 
Q 2822 3125 2822 3475 
Q 2822 3834 2567 4026 
Q 2313 4219 1838 4219 
Q 1578 4219 1281 4162 
Q 984 4106 628 3988 
L 628 4550 
Q 988 4650 1302 4700 
Q 1616 4750 1894 4750 
Q 2613 4750 3031 4423 
Q 3450 4097 3450 3541 
Q 3450 3153 3228 2886 
Q 3006 2619 2597 2516 
z
" transform="scale(0.015625)"/>
       </defs>
       <use xlink:href="#DejaVuSans-33"/>
       <use xlink:href="#DejaVuSans-2e" transform="translate(63.623047 0)"/>
       <use xlink:href="#DejaVuSans-30" transform="translate(95.410156 0)"/>
      </g>
     </g>
    </g>
    <g id="xtick_4">
     <g id="line2d_4">
      <g>
       <use xlink:href="#m90488081c8" x="312.087273" y="63.749189" style="stroke: #000000; stroke-width: 0.8"/>
      </g>
     </g>
     <g id="text_4">
      <!-- 4.5 -->
      <g transform="translate(304.13571 78.347627) scale(0.1 -0.1)">
       <defs>
        <path id="DejaVuSans-34" d="M 2419 4116 
L 825 1625 
L 2419 1625 
L 2419 4116 
z
M 2253 4666 
L 3047 4666 
L 3047 1625 
L 3713 1625 
L 3713 1100 
L 3047 1100 
L 3047 0 
L 2419 0 
L 2419 1100 
L 313 1100 
L 313 1709 
L 2253 4666 
z
" transform="scale(0.015625)"/>
       </defs>
       <use xlink:href="#DejaVuSans-34"/>
       <use xlink:href="#DejaVuSans-2e" transform="translate(63.623047 0)"/>
       <use xlink:href="#DejaVuSans-35" transform="translate(95.410156 0)"/>
      </g>
     </g>
    </g>
    <g id="xtick_5">
     <g id="line2d_5">
      <g>
       <use xlink:href="#m90488081c8" x="392.596364" y="63.749189" style="stroke: #000000; stroke-width: 0.8"/>
      </g>
     </g>
     <g id="text_5">
      <!-- 6.0 -->
      <g transform="translate(384.644801 78.347627) scale(0.1 -0.1)">
       <defs>
        <path id="DejaVuSans-36" d="M 2113 2584 
Q 1688 2584 1439 2293 
Q 1191 2003 1191 1497 
Q 1191 994 1439 701 
Q 1688 409 2113 409 
Q 2538 409 2786 701 
Q 3034 994 3034 1497 
Q 3034 2003 2786 2293 
Q 2538 2584 2113 2584 
z
M 3366 4563 
L 3366 3988 
Q 3128 4100 2886 4159 
Q 2644 4219 2406 4219 
Q 1781 4219 1451 3797 
Q 1122 3375 1075 2522 
Q 1259 2794 1537 2939 
Q 1816 3084 2150 3084 
Q 2853 3084 3261 2657 
Q 3669 2231 3669 1497 
Q 3669 778 3244 343 
Q 2819 -91 2113 -91 
Q 1303 -91 875 529 
Q 447 1150 447 2328 
Q 447 3434 972 4092 
Q 1497 4750 2381 4750 
Q 2619 4750 2861 4703 
Q 3103 4656 3366 4563 
z
" transform="scale(0.015625)"/>
       </defs>
       <use xlink:href="#DejaVuSans-36"/>
       <use xlink:href="#DejaVuSans-2e" transform="translate(63.623047 0)"/>
       <use xlink:href="#DejaVuSans-30" transform="translate(95.410156 0)"/>
      </g>
     </g>
    </g>
    <g id="xtick_6">
     <g id="line2d_6">
      <g>
       <use xlink:href="#m90488081c8" x="473.105455" y="63.749189" style="stroke: #000000; stroke-width: 0.8"/>
      </g>
     </g>
     <g id="text_6">
      <!-- 7.5 -->
      <g transform="translate(465.153892 78.347627) scale(0.1 -0.1)">
       <defs>
        <path id="DejaVuSans-37" d="M 525 4666 
L 3525 4666 
L 3525 4397 
L 1831 0 
L 1172 0 
L 2766 4134 
L 525 4134 
L 525 4666 
z
" transform="scale(0.015625)"/>
       </defs>
       <use xlink:href="#DejaVuSans-37"/>
       <use xlink:href="#DejaVuSans-2e" transform="translate(63.623047 0)"/>
       <use xlink:href="#DejaVuSans-35" transform="translate(95.410156 0)"/>
      </g>
     </g>
    </g>
    <g id="text_7">
     <!-- Time(s) -->
     <g transform="translate(258.460156 92.025752) scale(0.1 -0.1)">
      <defs>
       <path id="DejaVuSans-54" d="M -19 4666 
L 3928 4666 
L 3928 4134 
L 2272 4134 
L 2272 0 
L 1638 0 
L 1638 4134 
L -19 4134 
L -19 4666 
z
" transform="scale(0.015625)"/>
       <path id="DejaVuSans-69" d="M 603 3500 
L 1178 3500 
L 1178 0 
L 603 0 
L 603 3500 
z
M 603 4863 
L 1178 4863 
L 1178 4134 
L 603 4134 
L 603 4863 
z
" transform="scale(0.015625)"/>
       <path id="DejaVuSans-6d" d="M 3328 2828 
Q 3544 3216 3844 3400 
Q 4144 3584 4550 3584 
Q 5097 3584 5394 3201 
Q 5691 2819 5691 2113 
L 5691 0 
L 5113 0 
L 5113 2094 
Q 5113 2597 4934 2840 
Q 4756 3084 4391 3084 
Q 3944 3084 3684 2787 
Q 3425 2491 3425 1978 
L 3425 0 
L 2847 0 
L 2847 2094 
Q 2847 2600 2669 2842 
Q 2491 3084 2119 3084 
Q 1678 3084 1418 2786 
Q 1159 2488 1159 1978 
L 1159 0 
L 581 0 
L 581 3500 
L 1159 3500 
L 1159 2956 
Q 1356 3278 1631 3431 
Q 1906 3584 2284 3584 
Q 2666 3584 2933 3390 
Q 3200 3197 3328 2828 
z
" transform="scale(0.015625)"/>
       <path id="DejaVuSans-65" d="M 3597 1894 
L 3597 1613 
L 953 1613 
Q 991 1019 1311 708 
Q 1631 397 2203 397 
Q 2534 397 2845 478 
Q 3156 559 3463 722 
L 3463 178 
Q 3153 47 2828 -22 
Q 2503 -91 2169 -91 
Q 1331 -91 842 396 
Q 353 884 353 1716 
Q 353 2575 817 3079 
Q 1281 3584 2069 3584 
Q 2775 3584 3186 3129 
Q 3597 2675 3597 1894 
z
M 3022 2063 
Q 3016 2534 2758 2815 
Q 2500 3097 2075 3097 
Q 1594 3097 1305 2825 
Q 1016 2553 972 2059 
L 3022 2063 
z
" transform="scale(0.015625)"/>
       <path id="DejaVuSans-28" d="M 1984 4856 
Q 1566 4138 1362 3434 
Q 1159 2731 1159 2009 
Q 1159 1288 1364 580 
Q 1569 -128 1984 -844 
L 1484 -844 
Q 1016 -109 783 600 
Q 550 1309 550 2009 
Q 550 2706 781 3412 
Q 1013 4119 1484 4856 
L 1984 4856 
z
" transform="scale(0.015625)"/>
       <path id="DejaVuSans-73" d="M 2834 3397 
L 2834 2853 
Q 2591 2978 2328 3040 
Q 2066 3103 1784 3103 
Q 1356 3103 1142 2972 
Q 928 2841 928 2578 
Q 928 2378 1081 2264 
Q 1234 2150 1697 2047 
L 1894 2003 
Q 2506 1872 2764 1633 
Q 3022 1394 3022 966 
Q 3022 478 2636 193 
Q 2250 -91 1575 -91 
Q 1294 -91 989 -36 
Q 684 19 347 128 
L 347 722 
Q 666 556 975 473 
Q 1284 391 1588 391 
Q 1994 391 2212 530 
Q 2431 669 2431 922 
Q 2431 1156 2273 1281 
Q 2116 1406 1581 1522 
L 1381 1569 
Q 847 1681 609 1914 
Q 372 2147 372 2553 
Q 372 3047 722 3315 
Q 1072 3584 1716 3584 
Q 2034 3584 2315 3537 
Q 2597 3491 2834 3397 
z
" transform="scale(0.015625)"/>
       <path id="DejaVuSans-29" d="M 513 4856 
L 1013 4856 
Q 1481 4119 1714 3412 
Q 1947 2706 1947 2009 
Q 1947 1309 1714 600 
Q 1481 -109 1013 -844 
L 513 -844 
Q 928 -128 1133 580 
Q 1338 1288 1338 2009 
Q 1338 2731 1133 3434 
Q 928 4138 513 4856 
z
" transform="scale(0.015625)"/>
      </defs>
      <use xlink:href="#DejaVuSans-54"/>
      <use xlink:href="#DejaVuSans-69" transform="translate(57.958984 0)"/>
      <use xlink:href="#DejaVuSans-6d" transform="translate(85.742188 0)"/>
      <use xlink:href="#DejaVuSans-65" transform="translate(183.154297 0)"/>
      <use xlink:href="#DejaVuSans-28" transform="translate(244.677734 0)"/>
      <use xlink:href="#DejaVuSans-73" transform="translate(283.691406 0)"/>
      <use xlink:href="#DejaVuSans-29" transform="translate(335.791016 0)"/>
     </g>
    </g>
   </g>
   <g id="matplotlib.axis_2">
    <g id="ytick_1">
     <g id="line2d_7">
      <defs>
       <path id="mec73c68f06" d="M 0 0 
L -3.5 0 
" style="stroke: #000000; stroke-width: 0.8"/>
      </defs>
      <g>
       <use xlink:href="#mec73c68f06" x="70.56" y="52.904119" style="stroke: #000000; stroke-width: 0.8"/>
      </g>
     </g>
     <g id="text_8">
      <!-- 120 -->
      <g transform="translate(44.4725 56.703337) scale(0.1 -0.1)">
       <defs>
        <path id="DejaVuSans-32" d="M 1228 531 
L 3431 531 
L 3431 0 
L 469 0 
L 469 531 
Q 828 903 1448 1529 
Q 2069 2156 2228 2338 
Q 2531 2678 2651 2914 
Q 2772 3150 2772 3378 
Q 2772 3750 2511 3984 
Q 2250 4219 1831 4219 
Q 1534 4219 1204 4116 
Q 875 4013 500 3803 
L 500 4441 
Q 881 4594 1212 4672 
Q 1544 4750 1819 4750 
Q 2544 4750 2975 4387 
Q 3406 4025 3406 3419 
Q 3406 3131 3298 2873 
Q 3191 2616 2906 2266 
Q 2828 2175 2409 1742 
Q 1991 1309 1228 531 
z
" transform="scale(0.015625)"/>
       </defs>
       <use xlink:href="#DejaVuSans-31"/>
       <use xlink:href="#DejaVuSans-32" transform="translate(63.623047 0)"/>
       <use xlink:href="#DejaVuSans-30" transform="translate(127.246094 0)"/>
      </g>
     </g>
    </g>
    <g id="ytick_2">
     <g id="line2d_8">
      <g>
       <use xlink:href="#mec73c68f06" x="70.56" y="41.722027" style="stroke: #000000; stroke-width: 0.8"/>
      </g>
     </g>
     <g id="text_9">
      <!-- 180 -->
      <g transform="translate(44.4725 45.521245) scale(0.1 -0.1)">
       <defs>
        <path id="DejaVuSans-38" d="M 2034 2216 
Q 1584 2216 1326 1975 
Q 1069 1734 1069 1313 
Q 1069 891 1326 650 
Q 1584 409 2034 409 
Q 2484 409 2743 651 
Q 3003 894 3003 1313 
Q 3003 1734 2745 1975 
Q 2488 2216 2034 2216 
z
M 1403 2484 
Q 997 2584 770 2862 
Q 544 3141 544 3541 
Q 544 4100 942 4425 
Q 1341 4750 2034 4750 
Q 2731 4750 3128 4425 
Q 3525 4100 3525 3541 
Q 3525 3141 3298 2862 
Q 3072 2584 2669 2484 
Q 3125 2378 3379 2068 
Q 3634 1759 3634 1313 
Q 3634 634 3220 271 
Q 2806 -91 2034 -91 
Q 1263 -91 848 271 
Q 434 634 434 1313 
Q 434 1759 690 2068 
Q 947 2378 1403 2484 
z
M 1172 3481 
Q 1172 3119 1398 2916 
Q 1625 2713 2034 2713 
Q 2441 2713 2670 2916 
Q 2900 3119 2900 3481 
Q 2900 3844 2670 4047 
Q 2441 4250 2034 4250 
Q 1625 4250 1398 4047 
Q 1172 3844 1172 3481 
z
" transform="scale(0.015625)"/>
       </defs>
       <use xlink:href="#DejaVuSans-31"/>
       <use xlink:href="#DejaVuSans-38" transform="translate(63.623047 0)"/>
       <use xlink:href="#DejaVuSans-30" transform="translate(127.246094 0)"/>
      </g>
     </g>
    </g>
    <g id="ytick_3">
     <g id="line2d_9">
      <g>
       <use xlink:href="#mec73c68f06" x="70.56" y="30.539935" style="stroke: #000000; stroke-width: 0.8"/>
      </g>
     </g>
     <g id="text_10">
      <!-- 240 -->
      <g transform="translate(44.4725 34.339153) scale(0.1 -0.1)">
       <use xlink:href="#DejaVuSans-32"/>
       <use xlink:href="#DejaVuSans-34" transform="translate(63.623047 0)"/>
       <use xlink:href="#DejaVuSans-30" transform="translate(127.246094 0)"/>
      </g>
     </g>
    </g>
    <g id="ytick_4">
     <g id="line2d_10">
      <g>
       <use xlink:href="#mec73c68f06" x="70.56" y="19.357843" style="stroke: #000000; stroke-width: 0.8"/>
      </g>
     </g>
     <g id="text_11">
      <!-- 300 -->
      <g transform="translate(44.4725 23.157061) scale(0.1 -0.1)">
       <use xlink:href="#DejaVuSans-33"/>
       <use xlink:href="#DejaVuSans-30" transform="translate(63.623047 0)"/>
       <use xlink:href="#DejaVuSans-30" transform="translate(127.246094 0)"/>
      </g>
     </g>
    </g>
    <g id="text_12">
     <!-- s (m) -->
     <g transform="translate(38.392812 51.32022) rotate(-90) scale(0.1 -0.1)">
      <defs>
       <path id="DejaVuSans-20" transform="scale(0.015625)"/>
      </defs>
      <use xlink:href="#DejaVuSans-73"/>
      <use xlink:href="#DejaVuSans-20" transform="translate(52.099609 0)"/>
      <use xlink:href="#DejaVuSans-28" transform="translate(83.886719 0)"/>
      <use xlink:href="#DejaVuSans-6d" transform="translate(122.900391 0)"/>
      <use xlink:href="#DejaVuSans-29" transform="translate(220.3125 0)"/>
     </g>
    </g>
   </g>
   <g id="line2d_11">
    <path d="M 70.56 61.44059 
L 75.927273 60.829171 
L 81.294545 60.21732 
L 86.661818 59.605201 
L 92.029091 58.993036 
L 97.396364 58.380841 
L 102.763636 57.768645 
L 108.130909 57.156706 
L 113.498182 56.545025 
L 118.865455 55.933508 
L 124.232727 55.322091 
L 129.6 54.710977 
L 134.967273 54.100241 
L 140.334545 53.489783 
L 145.701818 52.879605 
L 151.069091 52.26968 
L 156.436364 51.660107 
L 161.803636 51.050867 
L 167.170909 50.442037 
L 172.538182 49.833229 
L 177.905455 49.224467 
L 183.272727 48.615786 
L 188.64 48.007211 
L 194.007273 47.398758 
L 199.374545 46.790444 
L 204.741818 46.182278 
L 210.109091 45.574265 
L 215.476364 44.966403 
L 220.843636 44.358688 
L 226.210909 43.75112 
L 231.578182 43.143701 
L 236.945455 42.53643 
L 242.312727 41.929296 
L 247.68 41.322295 
L 253.047273 40.715414 
L 258.414545 40.108655 
L 263.781818 39.502001 
L 269.149091 38.89544 
L 274.516364 38.288956 
L 279.883636 37.682544 
L 285.250909 37.076219 
L 290.618182 36.469967 
L 295.985455 35.863801 
L 301.352727 35.257724 
L 306.72 34.65173 
L 312.087273 34.045813 
L 317.454545 33.439967 
L 322.821818 32.834172 
L 328.189091 32.228425 
L 333.556364 31.622722 
L 338.923636 31.017061 
L 344.290909 30.41143 
L 349.658182 29.805823 
L 355.025455 29.200244 
L 360.392727 28.594682 
L 365.76 27.989133 
L 371.127273 27.383599 
L 376.494545 26.778066 
L 381.861818 26.172537 
L 387.229091 25.567005 
L 392.596364 24.961466 
L 397.963636 24.355913 
L 403.330909 23.750338 
L 408.698182 23.144743 
L 414.065455 22.539117 
L 419.432727 21.933461 
L 424.8 21.327769 
L 430.167273 20.722047 
L 435.534545 20.116297 
L 440.901818 19.510507 
L 446.269091 18.904679 
L 451.636364 18.298808 
L 457.003636 17.692884 
L 462.370909 17.086904 
L 467.738182 16.480868 
L 473.105455 15.874764 
L 478.472727 15.2686 
" clip-path="url(#p44a36c2d10)" style="fill: none; stroke: #000000; stroke-width: 1.5; stroke-linecap: square"/>
   </g>
   <g id="patch_3">
    <path d="M 70.56 63.749189 
L 70.56 12.96 
" style="fill: none; stroke: #000000; stroke-width: 0.8; stroke-linejoin: miter; stroke-linecap: square"/>
   </g>
   <g id="patch_4">
    <path d="M 483.84 63.749189 
L 483.84 12.96 
" style="fill: none; stroke: #000000; stroke-width: 0.8; stroke-linejoin: miter; stroke-linecap: square"/>
   </g>
   <g id="patch_5">
    <path d="M 70.56 63.749189 
L 483.84 63.749189 
" style="fill: none; stroke: #000000; stroke-width: 0.8; stroke-linejoin: miter; stroke-linecap: square"/>
   </g>
   <g id="patch_6">
    <path d="M 70.56 12.96 
L 483.84 12.96 
" style="fill: none; stroke: #000000; stroke-width: 0.8; stroke-linejoin: miter; stroke-linecap: square"/>
   </g>
  </g>
  <g id="axes_2">
   <g id="patch_7">
    <path d="M 70.56 145.011892 
L 483.84 145.011892 
L 483.84 94.222703 
L 70.56 94.222703 
z
" style="fill: #ffffff"/>
   </g>
   <g id="matplotlib.axis_3">
    <g id="xtick_7">
     <g id="line2d_12">
      <g>
       <use xlink:href="#m90488081c8" x="70.56" y="145.011892" style="stroke: #000000; stroke-width: 0.8"/>
      </g>
     </g>
     <g id="text_13">
      <!-- 0.0 -->
      <g transform="translate(62.608438 159.610329) scale(0.1 -0.1)">
       <use xlink:href="#DejaVuSans-30"/>
       <use xlink:href="#DejaVuSans-2e" transform="translate(63.623047 0)"/>
       <use xlink:href="#DejaVuSans-30" transform="translate(95.410156 0)"/>
      </g>
     </g>
    </g>
    <g id="xtick_8">
     <g id="line2d_13">
      <g>
       <use xlink:href="#m90488081c8" x="151.069091" y="145.011892" style="stroke: #000000; stroke-width: 0.8"/>
      </g>
     </g>
     <g id="text_14">
      <!-- 1.5 -->
      <g transform="translate(143.117528 159.610329) scale(0.1 -0.1)">
       <use xlink:href="#DejaVuSans-31"/>
       <use xlink:href="#DejaVuSans-2e" transform="translate(63.623047 0)"/>
       <use xlink:href="#DejaVuSans-35" transform="translate(95.410156 0)"/>
      </g>
     </g>
    </g>
    <g id="xtick_9">
     <g id="line2d_14">
      <g>
       <use xlink:href="#m90488081c8" x="231.578182" y="145.011892" style="stroke: #000000; stroke-width: 0.8"/>
      </g>
     </g>
     <g id="text_15">
      <!-- 3.0 -->
      <g transform="translate(223.626619 159.610329) scale(0.1 -0.1)">
       <use xlink:href="#DejaVuSans-33"/>
       <use xlink:href="#DejaVuSans-2e" transform="translate(63.623047 0)"/>
       <use xlink:href="#DejaVuSans-30" transform="translate(95.410156 0)"/>
      </g>
     </g>
    </g>
    <g id="xtick_10">
     <g id="line2d_15">
      <g>
       <use xlink:href="#m90488081c8" x="312.087273" y="145.011892" style="stroke: #000000; stroke-width: 0.8"/>
      </g>
     </g>
     <g id="text_16">
      <!-- 4.5 -->
      <g transform="translate(304.13571 159.610329) scale(0.1 -0.1)">
       <use xlink:href="#DejaVuSans-34"/>
       <use xlink:href="#DejaVuSans-2e" transform="translate(63.623047 0)"/>
       <use xlink:href="#DejaVuSans-35" transform="translate(95.410156 0)"/>
      </g>
     </g>
    </g>
    <g id="xtick_11">
     <g id="line2d_16">
      <g>
       <use xlink:href="#m90488081c8" x="392.596364" y="145.011892" style="stroke: #000000; stroke-width: 0.8"/>
      </g>
     </g>
     <g id="text_17">
      <!-- 6.0 -->
      <g transform="translate(384.644801 159.610329) scale(0.1 -0.1)">
       <use xlink:href="#DejaVuSans-36"/>
       <use xlink:href="#DejaVuSans-2e" transform="translate(63.623047 0)"/>
       <use xlink:href="#DejaVuSans-30" transform="translate(95.410156 0)"/>
      </g>
     </g>
    </g>
    <g id="xtick_12">
     <g id="line2d_17">
      <g>
       <use xlink:href="#m90488081c8" x="473.105455" y="145.011892" style="stroke: #000000; stroke-width: 0.8"/>
      </g>
     </g>
     <g id="text_18">
      <!-- 7.5 -->
      <g transform="translate(465.153892 159.610329) scale(0.1 -0.1)">
       <use xlink:href="#DejaVuSans-37"/>
       <use xlink:href="#DejaVuSans-2e" transform="translate(63.623047 0)"/>
       <use xlink:href="#DejaVuSans-35" transform="translate(95.410156 0)"/>
      </g>
     </g>
    </g>
    <g id="text_19">
     <!-- Time(s) -->
     <g transform="translate(258.460156 173.288454) scale(0.1 -0.1)">
      <use xlink:href="#DejaVuSans-54"/>
      <use xlink:href="#DejaVuSans-69" transform="translate(57.958984 0)"/>
      <use xlink:href="#DejaVuSans-6d" transform="translate(85.742188 0)"/>
      <use xlink:href="#DejaVuSans-65" transform="translate(183.154297 0)"/>
      <use xlink:href="#DejaVuSans-28" transform="translate(244.677734 0)"/>
      <use xlink:href="#DejaVuSans-73" transform="translate(283.691406 0)"/>
      <use xlink:href="#DejaVuSans-29" transform="translate(335.791016 0)"/>
     </g>
    </g>
   </g>
   <g id="matplotlib.axis_4">
    <g id="ytick_5">
     <g id="line2d_18">
      <g>
       <use xlink:href="#mec73c68f06" x="70.56" y="138.870071" style="stroke: #000000; stroke-width: 0.8"/>
      </g>
     </g>
     <g id="text_20">
      <!-- 31.56 -->
      <g transform="translate(34.931875 142.66929) scale(0.1 -0.1)">
       <use xlink:href="#DejaVuSans-33"/>
       <use xlink:href="#DejaVuSans-31" transform="translate(63.623047 0)"/>
       <use xlink:href="#DejaVuSans-2e" transform="translate(127.246094 0)"/>
       <use xlink:href="#DejaVuSans-35" transform="translate(159.033203 0)"/>
       <use xlink:href="#DejaVuSans-36" transform="translate(222.65625 0)"/>
      </g>
     </g>
    </g>
    <g id="ytick_6">
     <g id="line2d_19">
      <g>
       <use xlink:href="#mec73c68f06" x="70.56" y="128.605964" style="stroke: #000000; stroke-width: 0.8"/>
      </g>
     </g>
     <g id="text_21">
      <!-- 31.60 -->
      <g transform="translate(34.931875 132.405183) scale(0.1 -0.1)">
       <use xlink:href="#DejaVuSans-33"/>
       <use xlink:href="#DejaVuSans-31" transform="translate(63.623047 0)"/>
       <use xlink:href="#DejaVuSans-2e" transform="translate(127.246094 0)"/>
       <use xlink:href="#DejaVuSans-36" transform="translate(159.033203 0)"/>
       <use xlink:href="#DejaVuSans-30" transform="translate(222.65625 0)"/>
      </g>
     </g>
    </g>
    <g id="ytick_7">
     <g id="line2d_20">
      <g>
       <use xlink:href="#mec73c68f06" x="70.56" y="118.341857" style="stroke: #000000; stroke-width: 0.8"/>
      </g>
     </g>
     <g id="text_22">
      <!-- 31.64 -->
      <g transform="translate(34.931875 122.141075) scale(0.1 -0.1)">
       <use xlink:href="#DejaVuSans-33"/>
       <use xlink:href="#DejaVuSans-31" transform="translate(63.623047 0)"/>
       <use xlink:href="#DejaVuSans-2e" transform="translate(127.246094 0)"/>
       <use xlink:href="#DejaVuSans-36" transform="translate(159.033203 0)"/>
       <use xlink:href="#DejaVuSans-34" transform="translate(222.65625 0)"/>
      </g>
     </g>
    </g>
    <g id="ytick_8">
     <g id="line2d_21">
      <g>
       <use xlink:href="#mec73c68f06" x="70.56" y="108.077749" style="stroke: #000000; stroke-width: 0.8"/>
      </g>
     </g>
     <g id="text_23">
      <!-- 31.68 -->
      <g transform="translate(34.931875 111.876968) scale(0.1 -0.1)">
       <use xlink:href="#DejaVuSans-33"/>
       <use xlink:href="#DejaVuSans-31" transform="translate(63.623047 0)"/>
       <use xlink:href="#DejaVuSans-2e" transform="translate(127.246094 0)"/>
       <use xlink:href="#DejaVuSans-36" transform="translate(159.033203 0)"/>
       <use xlink:href="#DejaVuSans-38" transform="translate(222.65625 0)"/>
      </g>
     </g>
    </g>
    <g id="ytick_9">
     <g id="line2d_22">
      <g>
       <use xlink:href="#mec73c68f06" x="70.56" y="97.813642" style="stroke: #000000; stroke-width: 0.8"/>
      </g>
     </g>
     <g id="text_24">
      <!-- 31.72 -->
      <g transform="translate(34.931875 101.612861) scale(0.1 -0.1)">
       <use xlink:href="#DejaVuSans-33"/>
       <use xlink:href="#DejaVuSans-31" transform="translate(63.623047 0)"/>
       <use xlink:href="#DejaVuSans-2e" transform="translate(127.246094 0)"/>
       <use xlink:href="#DejaVuSans-37" transform="translate(159.033203 0)"/>
       <use xlink:href="#DejaVuSans-32" transform="translate(222.65625 0)"/>
      </g>
     </g>
    </g>
    <g id="text_25">
     <!-- l (m) -->
     <g transform="translate(28.852188 131.367297) rotate(-90) scale(0.1 -0.1)">
      <defs>
       <path id="DejaVuSans-6c" d="M 603 4863 
L 1178 4863 
L 1178 0 
L 603 0 
L 603 4863 
z
" transform="scale(0.015625)"/>
      </defs>
      <use xlink:href="#DejaVuSans-6c"/>
      <use xlink:href="#DejaVuSans-20" transform="translate(27.783203 0)"/>
      <use xlink:href="#DejaVuSans-28" transform="translate(59.570312 0)"/>
      <use xlink:href="#DejaVuSans-6d" transform="translate(98.583984 0)"/>
      <use xlink:href="#DejaVuSans-29" transform="translate(195.996094 0)"/>
     </g>
    </g>
   </g>
   <g id="line2d_23">
    <path d="M 70.56 142.703292 
L 75.927273 136.42277 
L 81.294545 130.955345 
L 86.661818 126.232679 
L 92.029091 122.160627 
L 97.396364 118.649284 
L 102.763636 115.620513 
L 108.130909 113.008276 
L 113.498182 110.754739 
L 118.865455 108.81004 
L 124.232727 107.131535 
L 129.6 105.683156 
L 134.967273 104.433402 
L 140.334545 103.354779 
L 145.701818 102.423777 
L 151.069091 101.620101 
L 156.436364 100.926397 
L 161.803636 100.327552 
L 167.170909 99.810613 
L 172.538182 99.364075 
L 177.905455 98.97836 
L 183.272727 98.645196 
L 188.64 98.357427 
L 194.007273 98.108866 
L 199.374545 97.894174 
L 204.741818 97.708732 
L 210.109091 97.548549 
L 215.476364 97.41018 
L 220.843636 97.290647 
L 226.210909 97.187384 
L 231.578182 97.098174 
L 236.945455 97.021099 
L 242.312727 96.954506 
L 247.68 96.896967 
L 253.047273 96.847249 
L 258.414545 96.804285 
L 263.781818 96.767159 
L 269.149091 96.735076 
L 274.516364 96.70735 
L 279.883636 96.683386 
L 285.250909 96.662672 
L 290.618182 96.644769 
L 295.985455 96.629294 
L 301.352727 96.615919 
L 306.72 96.604358 
L 312.087273 96.594365 
L 317.454545 96.585728 
L 322.821818 96.578261 
L 328.189091 96.571805 
L 333.556364 96.566224 
L 338.923636 96.561398 
L 344.290909 96.557227 
L 349.658182 96.553619 
L 355.025455 96.5505 
L 360.392727 96.547803 
L 365.76 96.545472 
L 371.127273 96.543455 
L 376.494545 96.541711 
L 381.861818 96.540204 
L 387.229091 96.538899 
L 392.596364 96.537773 
L 397.963636 96.5368 
L 403.330909 96.535959 
L 408.698182 96.53523 
L 414.065455 96.5346 
L 419.432727 96.534058 
L 424.8 96.533589 
L 430.167273 96.533184 
L 435.534545 96.532832 
L 440.901818 96.532529 
L 446.269091 96.532268 
L 451.636364 96.532044 
L 457.003636 96.531849 
L 462.370909 96.53168 
L 467.738182 96.531534 
L 473.105455 96.53141 
L 478.472727 96.531302 
" clip-path="url(#p61777dff4f)" style="fill: none; stroke: #000000; stroke-width: 1.5; stroke-linecap: square"/>
   </g>
   <g id="patch_8">
    <path d="M 70.56 145.011892 
L 70.56 94.222703 
" style="fill: none; stroke: #000000; stroke-width: 0.8; stroke-linejoin: miter; stroke-linecap: square"/>
   </g>
   <g id="patch_9">
    <path d="M 483.84 145.011892 
L 483.84 94.222703 
" style="fill: none; stroke: #000000; stroke-width: 0.8; stroke-linejoin: miter; stroke-linecap: square"/>
   </g>
   <g id="patch_10">
    <path d="M 70.56 145.011892 
L 483.84 145.011892 
" style="fill: none; stroke: #000000; stroke-width: 0.8; stroke-linejoin: miter; stroke-linecap: square"/>
   </g>
   <g id="patch_11">
    <path d="M 70.56 94.222703 
L 483.84 94.222703 
" style="fill: none; stroke: #000000; stroke-width: 0.8; stroke-linejoin: miter; stroke-linecap: square"/>
   </g>
  </g>
  <g id="axes_3">
   <g id="patch_12">
    <path d="M 70.56 226.274595 
L 483.84 226.274595 
L 483.84 175.485405 
L 70.56 175.485405 
z
" style="fill: #ffffff"/>
   </g>
   <g id="matplotlib.axis_5">
    <g id="xtick_13">
     <g id="line2d_24">
      <g>
       <use xlink:href="#m90488081c8" x="70.56" y="226.274595" style="stroke: #000000; stroke-width: 0.8"/>
      </g>
     </g>
     <g id="text_26">
      <!-- 0.0 -->
      <g transform="translate(62.608438 240.873032) scale(0.1 -0.1)">
       <use xlink:href="#DejaVuSans-30"/>
       <use xlink:href="#DejaVuSans-2e" transform="translate(63.623047 0)"/>
       <use xlink:href="#DejaVuSans-30" transform="translate(95.410156 0)"/>
      </g>
     </g>
    </g>
    <g id="xtick_14">
     <g id="line2d_25">
      <g>
       <use xlink:href="#m90488081c8" x="151.069091" y="226.274595" style="stroke: #000000; stroke-width: 0.8"/>
      </g>
     </g>
     <g id="text_27">
      <!-- 1.5 -->
      <g transform="translate(143.117528 240.873032) scale(0.1 -0.1)">
       <use xlink:href="#DejaVuSans-31"/>
       <use xlink:href="#DejaVuSans-2e" transform="translate(63.623047 0)"/>
       <use xlink:href="#DejaVuSans-35" transform="translate(95.410156 0)"/>
      </g>
     </g>
    </g>
    <g id="xtick_15">
     <g id="line2d_26">
      <g>
       <use xlink:href="#m90488081c8" x="231.578182" y="226.274595" style="stroke: #000000; stroke-width: 0.8"/>
      </g>
     </g>
     <g id="text_28">
      <!-- 3.0 -->
      <g transform="translate(223.626619 240.873032) scale(0.1 -0.1)">
       <use xlink:href="#DejaVuSans-33"/>
       <use xlink:href="#DejaVuSans-2e" transform="translate(63.623047 0)"/>
       <use xlink:href="#DejaVuSans-30" transform="translate(95.410156 0)"/>
      </g>
     </g>
    </g>
    <g id="xtick_16">
     <g id="line2d_27">
      <g>
       <use xlink:href="#m90488081c8" x="312.087273" y="226.274595" style="stroke: #000000; stroke-width: 0.8"/>
      </g>
     </g>
     <g id="text_29">
      <!-- 4.5 -->
      <g transform="translate(304.13571 240.873032) scale(0.1 -0.1)">
       <use xlink:href="#DejaVuSans-34"/>
       <use xlink:href="#DejaVuSans-2e" transform="translate(63.623047 0)"/>
       <use xlink:href="#DejaVuSans-35" transform="translate(95.410156 0)"/>
      </g>
     </g>
    </g>
    <g id="xtick_17">
     <g id="line2d_28">
      <g>
       <use xlink:href="#m90488081c8" x="392.596364" y="226.274595" style="stroke: #000000; stroke-width: 0.8"/>
      </g>
     </g>
     <g id="text_30">
      <!-- 6.0 -->
      <g transform="translate(384.644801 240.873032) scale(0.1 -0.1)">
       <use xlink:href="#DejaVuSans-36"/>
       <use xlink:href="#DejaVuSans-2e" transform="translate(63.623047 0)"/>
       <use xlink:href="#DejaVuSans-30" transform="translate(95.410156 0)"/>
      </g>
     </g>
    </g>
    <g id="xtick_18">
     <g id="line2d_29">
      <g>
       <use xlink:href="#m90488081c8" x="473.105455" y="226.274595" style="stroke: #000000; stroke-width: 0.8"/>
      </g>
     </g>
     <g id="text_31">
      <!-- 7.5 -->
      <g transform="translate(465.153892 240.873032) scale(0.1 -0.1)">
       <use xlink:href="#DejaVuSans-37"/>
       <use xlink:href="#DejaVuSans-2e" transform="translate(63.623047 0)"/>
       <use xlink:href="#DejaVuSans-35" transform="translate(95.410156 0)"/>
      </g>
     </g>
    </g>
    <g id="text_32">
     <!-- Time(s) -->
     <g transform="translate(258.460156 254.551157) scale(0.1 -0.1)">
      <use xlink:href="#DejaVuSans-54"/>
      <use xlink:href="#DejaVuSans-69" transform="translate(57.958984 0)"/>
      <use xlink:href="#DejaVuSans-6d" transform="translate(85.742188 0)"/>
      <use xlink:href="#DejaVuSans-65" transform="translate(183.154297 0)"/>
      <use xlink:href="#DejaVuSans-28" transform="translate(244.677734 0)"/>
      <use xlink:href="#DejaVuSans-73" transform="translate(283.691406 0)"/>
      <use xlink:href="#DejaVuSans-29" transform="translate(335.791016 0)"/>
     </g>
    </g>
   </g>
   <g id="matplotlib.axis_6">
    <g id="ytick_10">
     <g id="line2d_30">
      <g>
       <use xlink:href="#mec73c68f06" x="70.56" y="222.367734" style="stroke: #000000; stroke-width: 0.8"/>
      </g>
     </g>
     <g id="text_33">
      <!-- 21 -->
      <g transform="translate(50.835 226.166953) scale(0.1 -0.1)">
       <use xlink:href="#DejaVuSans-32"/>
       <use xlink:href="#DejaVuSans-31" transform="translate(63.623047 0)"/>
      </g>
     </g>
    </g>
    <g id="ytick_11">
     <g id="line2d_31">
      <g>
       <use xlink:href="#mec73c68f06" x="70.56" y="210.647152" style="stroke: #000000; stroke-width: 0.8"/>
      </g>
     </g>
     <g id="text_34">
      <!-- 24 -->
      <g transform="translate(50.835 214.446371) scale(0.1 -0.1)">
       <use xlink:href="#DejaVuSans-32"/>
       <use xlink:href="#DejaVuSans-34" transform="translate(63.623047 0)"/>
      </g>
     </g>
    </g>
    <g id="ytick_12">
     <g id="line2d_32">
      <g>
       <use xlink:href="#mec73c68f06" x="70.56" y="198.92657" style="stroke: #000000; stroke-width: 0.8"/>
      </g>
     </g>
     <g id="text_35">
      <!-- 27 -->
      <g transform="translate(50.835 202.725788) scale(0.1 -0.1)">
       <use xlink:href="#DejaVuSans-32"/>
       <use xlink:href="#DejaVuSans-37" transform="translate(63.623047 0)"/>
      </g>
     </g>
    </g>
    <g id="ytick_13">
     <g id="line2d_33">
      <g>
       <use xlink:href="#mec73c68f06" x="70.56" y="187.205988" style="stroke: #000000; stroke-width: 0.8"/>
      </g>
     </g>
     <g id="text_36">
      <!-- 30 -->
      <g transform="translate(50.835 191.005206) scale(0.1 -0.1)">
       <use xlink:href="#DejaVuSans-33"/>
       <use xlink:href="#DejaVuSans-30" transform="translate(63.623047 0)"/>
      </g>
     </g>
    </g>
    <g id="ytick_14">
     <g id="line2d_34">
      <g>
       <use xlink:href="#mec73c68f06" x="70.56" y="175.485405" style="stroke: #000000; stroke-width: 0.8"/>
      </g>
     </g>
     <g id="text_37">
      <!-- 33 -->
      <g transform="translate(50.835 179.284624) scale(0.1 -0.1)">
       <use xlink:href="#DejaVuSans-33"/>
       <use xlink:href="#DejaVuSans-33" transform="translate(63.623047 0)"/>
      </g>
     </g>
    </g>
    <g id="text_38">
     <!-- Velocity -->
     <g transform="translate(33.5575 220.495625) rotate(-90) scale(0.1 -0.1)">
      <defs>
       <path id="DejaVuSans-56" d="M 1831 0 
L 50 4666 
L 709 4666 
L 2188 738 
L 3669 4666 
L 4325 4666 
L 2547 0 
L 1831 0 
z
" transform="scale(0.015625)"/>
       <path id="DejaVuSans-6f" d="M 1959 3097 
Q 1497 3097 1228 2736 
Q 959 2375 959 1747 
Q 959 1119 1226 758 
Q 1494 397 1959 397 
Q 2419 397 2687 759 
Q 2956 1122 2956 1747 
Q 2956 2369 2687 2733 
Q 2419 3097 1959 3097 
z
M 1959 3584 
Q 2709 3584 3137 3096 
Q 3566 2609 3566 1747 
Q 3566 888 3137 398 
Q 2709 -91 1959 -91 
Q 1206 -91 779 398 
Q 353 888 353 1747 
Q 353 2609 779 3096 
Q 1206 3584 1959 3584 
z
" transform="scale(0.015625)"/>
       <path id="DejaVuSans-63" d="M 3122 3366 
L 3122 2828 
Q 2878 2963 2633 3030 
Q 2388 3097 2138 3097 
Q 1578 3097 1268 2742 
Q 959 2388 959 1747 
Q 959 1106 1268 751 
Q 1578 397 2138 397 
Q 2388 397 2633 464 
Q 2878 531 3122 666 
L 3122 134 
Q 2881 22 2623 -34 
Q 2366 -91 2075 -91 
Q 1284 -91 818 406 
Q 353 903 353 1747 
Q 353 2603 823 3093 
Q 1294 3584 2113 3584 
Q 2378 3584 2631 3529 
Q 2884 3475 3122 3366 
z
" transform="scale(0.015625)"/>
       <path id="DejaVuSans-74" d="M 1172 4494 
L 1172 3500 
L 2356 3500 
L 2356 3053 
L 1172 3053 
L 1172 1153 
Q 1172 725 1289 603 
Q 1406 481 1766 481 
L 2356 481 
L 2356 0 
L 1766 0 
Q 1100 0 847 248 
Q 594 497 594 1153 
L 594 3053 
L 172 3053 
L 172 3500 
L 594 3500 
L 594 4494 
L 1172 4494 
z
" transform="scale(0.015625)"/>
       <path id="DejaVuSans-79" d="M 2059 -325 
Q 1816 -950 1584 -1140 
Q 1353 -1331 966 -1331 
L 506 -1331 
L 506 -850 
L 844 -850 
Q 1081 -850 1212 -737 
Q 1344 -625 1503 -206 
L 1606 56 
L 191 3500 
L 800 3500 
L 1894 763 
L 2988 3500 
L 3597 3500 
L 2059 -325 
z
" transform="scale(0.015625)"/>
      </defs>
      <use xlink:href="#DejaVuSans-56"/>
      <use xlink:href="#DejaVuSans-65" transform="translate(60.658203 0)"/>
      <use xlink:href="#DejaVuSans-6c" transform="translate(122.181641 0)"/>
      <use xlink:href="#DejaVuSans-6f" transform="translate(149.964844 0)"/>
      <use xlink:href="#DejaVuSans-63" transform="translate(211.146484 0)"/>
      <use xlink:href="#DejaVuSans-69" transform="translate(266.126953 0)"/>
      <use xlink:href="#DejaVuSans-74" transform="translate(293.910156 0)"/>
      <use xlink:href="#DejaVuSans-79" transform="translate(333.119141 0)"/>
     </g>
     <!-- (m/s) -->
     <g transform="translate(44.755313 213.940937) rotate(-90) scale(0.1 -0.1)">
      <defs>
       <path id="DejaVuSans-2f" d="M 1625 4666 
L 2156 4666 
L 531 -594 
L 0 -594 
L 1625 4666 
z
" transform="scale(0.015625)"/>
      </defs>
      <use xlink:href="#DejaVuSans-28"/>
      <use xlink:href="#DejaVuSans-6d" transform="translate(39.013672 0)"/>
      <use xlink:href="#DejaVuSans-2f" transform="translate(136.425781 0)"/>
      <use xlink:href="#DejaVuSans-73" transform="translate(170.117188 0)"/>
      <use xlink:href="#DejaVuSans-29" transform="translate(222.216797 0)"/>
     </g>
    </g>
   </g>
   <g id="line2d_35">
    <path d="M 70.56 176.358658 
L 75.927273 176.235779 
L 81.294545 176.145937 
L 86.661818 176.090542 
L 92.029091 176.081389 
L 97.396364 176.0755 
L 102.763636 176.07556 
L 108.130909 176.129487 
L 113.498182 176.183876 
L 118.865455 176.218523 
L 124.232727 176.239294 
L 129.6 176.303105 
L 134.967273 176.382247 
L 140.334545 176.440567 
L 145.701818 176.499254 
L 151.069091 176.552423 
L 156.436364 176.626211 
L 161.803636 176.696076 
L 167.170909 176.781881 
L 172.538182 176.786698 
L 177.905455 176.796126 
L 183.272727 176.813337 
L 188.64 176.835413 
L 194.007273 176.861035 
L 199.374545 176.890072 
L 204.741818 176.921221 
L 210.109091 176.953144 
L 215.476364 176.984994 
L 220.843636 177.015799 
L 226.210909 177.046363 
L 231.578182 177.077798 
L 236.945455 177.108933 
L 242.312727 177.137381 
L 247.68 177.165551 
L 253.047273 177.190527 
L 258.414545 177.216027 
L 263.781818 177.238324 
L 269.149091 177.257519 
L 274.516364 177.273821 
L 279.883636 177.28891 
L 285.250909 177.307012 
L 290.618182 177.322501 
L 295.985455 177.340351 
L 301.352727 177.359128 
L 306.72 177.376508 
L 312.087273 177.392767 
L 317.454545 177.407393 
L 322.821818 177.418286 
L 328.189091 177.428285 
L 333.556364 177.437552 
L 338.923636 177.44629 
L 344.290909 177.452506 
L 349.658182 177.457613 
L 355.025455 177.463564 
L 360.392727 177.466991 
L 365.76 177.469898 
L 371.127273 177.472951 
L 376.494545 177.473171 
L 381.861818 177.473963 
L 387.229091 177.473215 
L 392.596364 177.47207 
L 397.963636 177.468929 
L 403.330909 177.464305 
L 408.698182 177.460027 
L 414.065455 177.453782 
L 419.432727 177.447274 
L 424.8 177.439804 
L 430.167273 177.433531 
L 435.534545 177.427706 
L 440.901818 177.419299 
L 446.269091 177.411295 
L 451.636364 177.402236 
L 457.003636 177.391264 
L 462.370909 177.379397 
L 467.738182 177.367583 
L 473.105455 177.353615 
L 478.472727 177.340667 
" clip-path="url(#p0fcc9af7f0)" style="fill: none; stroke: #000000; stroke-width: 1.5; stroke-linecap: square"/>
   </g>
   <g id="line2d_36">
    <path d="M 70.56 176.422903 
L 75.927273 176.279705 
L 81.294545 176.169052 
L 86.661818 176.045365 
L 92.029091 175.954223 
L 97.396364 175.876091 
L 102.763636 175.797948 
L 108.130909 175.758853 
L 113.498182 175.719764 
L 118.865455 175.719737 
L 124.232727 175.719697 
L 129.6 175.732692 
L 134.967273 175.77824 
L 140.334545 175.823786 
L 145.701818 175.895335 
L 151.069091 175.979983 
L 156.436364 176.05152 
L 161.803636 176.188193 
L 167.170909 176.285829 
L 172.538182 176.409433 
L 177.905455 176.539536 
L 183.272727 176.669719 
L 188.64 176.793343 
L 194.007273 176.942955 
L 199.374545 177.086205 
L 204.741818 177.229294 
L 210.109091 177.359521 
L 215.476364 177.502597 
L 220.843636 177.632824 
L 226.210909 177.750029 
L 231.578182 177.886768 
L 236.945455 177.984438 
L 242.312727 178.082109 
L 247.68 178.179839 
L 253.047273 178.277625 
L 258.414545 178.34936 
L 263.781818 178.414605 
L 269.149091 178.466818 
L 274.516364 178.49302 
L 279.883636 178.53219 
L 285.250909 178.532319 
L 290.618182 178.532431 
L 295.985455 178.513004 
L 301.352727 178.467491 
L 306.72 178.415454 
L 312.087273 178.337371 
L 317.454545 178.239729 
L 322.821818 178.14207 
L 328.189091 178.024859 
L 333.556364 177.881597 
L 338.923636 177.712262 
L 344.290909 177.555929 
L 349.658182 177.360548 
L 355.025455 177.165115 
L 360.392727 176.969719 
L 365.76 176.735218 
L 371.127273 176.52024 
L 376.494545 176.279244 
L 381.861818 176.051306 
L 387.229091 175.810384 
L 392.596364 175.56295 
L 397.963636 175.341563 
L 403.330909 175.094129 
L 408.698182 174.872741 
L 414.065455 174.644842 
L 419.432727 174.417055 
L 424.8 174.195667 
L 430.167273 174.000392 
L 435.534545 173.805081 
L 440.901818 173.609798 
L 446.269091 173.414523 
L 451.636364 173.232262 
L 457.003636 173.063007 
L 462.370909 172.919822 
L 467.738182 172.750567 
L 473.105455 172.607335 
L 478.472727 172.477121 
" clip-path="url(#p0fcc9af7f0)" style="fill: none; stroke-dasharray: 5.55,2.4; stroke-dashoffset: 0; stroke: #000000; stroke-width: 1.5"/>
   </g>
   <g id="line2d_37">
    <path d="M 70.56 184.204242 
L 75.927273 184.204242 
L 81.294545 184.204242 
L 86.661818 184.204242 
L 92.029091 184.204242 
L 97.396364 184.204242 
L 102.763636 184.204242 
L 108.130909 184.204242 
L 113.498182 184.204242 
L 118.865455 184.204242 
L 124.232727 184.204242 
L 129.6 184.204242 
L 134.967273 184.204242 
L 140.334545 184.204242 
L 145.701818 184.204242 
L 151.069091 184.204242 
L 156.436364 184.204242 
L 161.803636 184.204242 
L 167.170909 184.204242 
L 172.538182 184.204242 
L 177.905455 184.204242 
L 183.272727 184.204242 
L 188.64 184.204242 
L 194.007273 184.204242 
L 199.374545 184.204242 
L 204.741818 184.204242 
L 210.109091 184.204242 
L 215.476364 184.204242 
L 220.843636 184.204242 
L 226.210909 184.204242 
L 231.578182 184.204242 
L 236.945455 184.204242 
L 242.312727 184.204242 
L 247.68 184.204242 
L 253.047273 184.204242 
L 258.414545 184.204242 
L 263.781818 184.204242 
L 269.149091 184.204242 
L 274.516364 184.204242 
L 279.883636 184.204242 
L 285.250909 184.204242 
L 290.618182 184.204242 
L 295.985455 184.204242 
L 301.352727 184.204242 
L 306.72 184.204242 
L 312.087273 184.204242 
L 317.454545 184.204242 
L 322.821818 184.204242 
L 328.189091 184.204242 
L 333.556364 184.204242 
L 338.923636 184.204242 
L 344.290909 184.204242 
L 349.658182 184.204242 
L 355.025455 184.204242 
L 360.392727 184.204242 
L 365.76 184.204242 
L 371.127273 184.204242 
L 376.494545 184.204242 
L 381.861818 184.204242 
L 387.229091 184.204242 
L 392.596364 184.204242 
L 397.963636 184.204242 
L 403.330909 184.204242 
L 408.698182 184.204242 
L 414.065455 184.204242 
L 419.432727 184.204242 
L 424.8 184.204242 
L 430.167273 184.204242 
L 435.534545 184.204242 
L 440.901818 184.204242 
L 446.269091 184.204242 
L 451.636364 184.204242 
L 457.003636 184.204242 
L 462.370909 184.204242 
L 467.738182 184.204242 
L 473.105455 184.204242 
L 478.472727 184.204242 
" clip-path="url(#p0fcc9af7f0)" style="fill: none; stroke-dasharray: 1.5,2.475; stroke-dashoffset: 0; stroke: #000000; stroke-width: 1.5"/>
   </g>
   <g id="patch_13">
    <path d="M 70.56 226.274595 
L 70.56 175.485405 
" style="fill: none; stroke: #000000; stroke-width: 0.8; stroke-linejoin: miter; stroke-linecap: square"/>
   </g>
   <g id="patch_14">
    <path d="M 483.84 226.274595 
L 483.84 175.485405 
" style="fill: none; stroke: #000000; stroke-width: 0.8; stroke-linejoin: miter; stroke-linecap: square"/>
   </g>
   <g id="patch_15">
    <path d="M 70.56 226.274595 
L 483.84 226.274595 
" style="fill: none; stroke: #000000; stroke-width: 0.8; stroke-linejoin: miter; stroke-linecap: square"/>
   </g>
   <g id="patch_16">
    <path d="M 70.56 175.485405 
L 483.84 175.485405 
" style="fill: none; stroke: #000000; stroke-width: 0.8; stroke-linejoin: miter; stroke-linecap: square"/>
   </g>
   <g id="legend_1">
    <g id="patch_17">
     <path d="M 76.16 222.274595 
L 415.37125 222.274595 
Q 416.97125 222.274595 416.97125 220.674595 
L 416.97125 209.732095 
Q 416.97125 208.132095 415.37125 208.132095 
L 76.16 208.132095 
Q 74.56 208.132095 74.56 209.732095 
L 74.56 220.674595 
Q 74.56 222.274595 76.16 222.274595 
z
" style="fill: #ffffff; opacity: 0.8; stroke: #cccccc; stroke-linejoin: miter"/>
    </g>
    <g id="line2d_38">
     <path d="M 77.76 214.610845 
L 85.76 214.610845 
L 93.76 214.610845 
" style="fill: none; stroke: #000000; stroke-width: 1.5; stroke-linecap: square"/>
    </g>
    <g id="text_39">
     <!-- Velocity profile of EV -->
     <g transform="translate(100.16 217.410845) scale(0.08 -0.08)">
      <defs>
       <path id="DejaVuSans-70" d="M 1159 525 
L 1159 -1331 
L 581 -1331 
L 581 3500 
L 1159 3500 
L 1159 2969 
Q 1341 3281 1617 3432 
Q 1894 3584 2278 3584 
Q 2916 3584 3314 3078 
Q 3713 2572 3713 1747 
Q 3713 922 3314 415 
Q 2916 -91 2278 -91 
Q 1894 -91 1617 61 
Q 1341 213 1159 525 
z
M 3116 1747 
Q 3116 2381 2855 2742 
Q 2594 3103 2138 3103 
Q 1681 3103 1420 2742 
Q 1159 2381 1159 1747 
Q 1159 1113 1420 752 
Q 1681 391 2138 391 
Q 2594 391 2855 752 
Q 3116 1113 3116 1747 
z
" transform="scale(0.015625)"/>
       <path id="DejaVuSans-72" d="M 2631 2963 
Q 2534 3019 2420 3045 
Q 2306 3072 2169 3072 
Q 1681 3072 1420 2755 
Q 1159 2438 1159 1844 
L 1159 0 
L 581 0 
L 581 3500 
L 1159 3500 
L 1159 2956 
Q 1341 3275 1631 3429 
Q 1922 3584 2338 3584 
Q 2397 3584 2469 3576 
Q 2541 3569 2628 3553 
L 2631 2963 
z
" transform="scale(0.015625)"/>
       <path id="DejaVuSans-66" d="M 2375 4863 
L 2375 4384 
L 1825 4384 
Q 1516 4384 1395 4259 
Q 1275 4134 1275 3809 
L 1275 3500 
L 2222 3500 
L 2222 3053 
L 1275 3053 
L 1275 0 
L 697 0 
L 697 3053 
L 147 3053 
L 147 3500 
L 697 3500 
L 697 3744 
Q 697 4328 969 4595 
Q 1241 4863 1831 4863 
L 2375 4863 
z
" transform="scale(0.015625)"/>
       <path id="DejaVuSans-45" d="M 628 4666 
L 3578 4666 
L 3578 4134 
L 1259 4134 
L 1259 2753 
L 3481 2753 
L 3481 2222 
L 1259 2222 
L 1259 531 
L 3634 531 
L 3634 0 
L 628 0 
L 628 4666 
z
" transform="scale(0.015625)"/>
      </defs>
      <use xlink:href="#DejaVuSans-56"/>
      <use xlink:href="#DejaVuSans-65" transform="translate(60.658203 0)"/>
      <use xlink:href="#DejaVuSans-6c" transform="translate(122.181641 0)"/>
      <use xlink:href="#DejaVuSans-6f" transform="translate(149.964844 0)"/>
      <use xlink:href="#DejaVuSans-63" transform="translate(211.146484 0)"/>
      <use xlink:href="#DejaVuSans-69" transform="translate(266.126953 0)"/>
      <use xlink:href="#DejaVuSans-74" transform="translate(293.910156 0)"/>
      <use xlink:href="#DejaVuSans-79" transform="translate(333.119141 0)"/>
      <use xlink:href="#DejaVuSans-20" transform="translate(392.298828 0)"/>
      <use xlink:href="#DejaVuSans-70" transform="translate(424.085938 0)"/>
      <use xlink:href="#DejaVuSans-72" transform="translate(487.5625 0)"/>
      <use xlink:href="#DejaVuSans-6f" transform="translate(526.425781 0)"/>
      <use xlink:href="#DejaVuSans-66" transform="translate(587.607422 0)"/>
      <use xlink:href="#DejaVuSans-69" transform="translate(622.8125 0)"/>
      <use xlink:href="#DejaVuSans-6c" transform="translate(650.595703 0)"/>
      <use xlink:href="#DejaVuSans-65" transform="translate(678.378906 0)"/>
      <use xlink:href="#DejaVuSans-20" transform="translate(739.902344 0)"/>
      <use xlink:href="#DejaVuSans-6f" transform="translate(771.689453 0)"/>
      <use xlink:href="#DejaVuSans-66" transform="translate(832.871094 0)"/>
      <use xlink:href="#DejaVuSans-20" transform="translate(868.076172 0)"/>
      <use xlink:href="#DejaVuSans-45" transform="translate(899.863281 0)"/>
      <use xlink:href="#DejaVuSans-56" transform="translate(963.046875 0)"/>
     </g>
    </g>
    <g id="line2d_39">
     <path d="M 198.6775 214.610845 
L 206.6775 214.610845 
L 214.6775 214.610845 
" style="fill: none; stroke-dasharray: 5.55,2.4; stroke-dashoffset: 0; stroke: #000000; stroke-width: 1.5"/>
    </g>
    <g id="text_40">
     <!-- Velocity profile of SV1 -->
     <g transform="translate(221.0775 217.410845) scale(0.08 -0.08)">
      <defs>
       <path id="DejaVuSans-53" d="M 3425 4513 
L 3425 3897 
Q 3066 4069 2747 4153 
Q 2428 4238 2131 4238 
Q 1616 4238 1336 4038 
Q 1056 3838 1056 3469 
Q 1056 3159 1242 3001 
Q 1428 2844 1947 2747 
L 2328 2669 
Q 3034 2534 3370 2195 
Q 3706 1856 3706 1288 
Q 3706 609 3251 259 
Q 2797 -91 1919 -91 
Q 1588 -91 1214 -16 
Q 841 59 441 206 
L 441 856 
Q 825 641 1194 531 
Q 1563 422 1919 422 
Q 2459 422 2753 634 
Q 3047 847 3047 1241 
Q 3047 1584 2836 1778 
Q 2625 1972 2144 2069 
L 1759 2144 
Q 1053 2284 737 2584 
Q 422 2884 422 3419 
Q 422 4038 858 4394 
Q 1294 4750 2059 4750 
Q 2388 4750 2728 4690 
Q 3069 4631 3425 4513 
z
" transform="scale(0.015625)"/>
      </defs>
      <use xlink:href="#DejaVuSans-56"/>
      <use xlink:href="#DejaVuSans-65" transform="translate(60.658203 0)"/>
      <use xlink:href="#DejaVuSans-6c" transform="translate(122.181641 0)"/>
      <use xlink:href="#DejaVuSans-6f" transform="translate(149.964844 0)"/>
      <use xlink:href="#DejaVuSans-63" transform="translate(211.146484 0)"/>
      <use xlink:href="#DejaVuSans-69" transform="translate(266.126953 0)"/>
      <use xlink:href="#DejaVuSans-74" transform="translate(293.910156 0)"/>
      <use xlink:href="#DejaVuSans-79" transform="translate(333.119141 0)"/>
      <use xlink:href="#DejaVuSans-20" transform="translate(392.298828 0)"/>
      <use xlink:href="#DejaVuSans-70" transform="translate(424.085938 0)"/>
      <use xlink:href="#DejaVuSans-72" transform="translate(487.5625 0)"/>
      <use xlink:href="#DejaVuSans-6f" transform="translate(526.425781 0)"/>
      <use xlink:href="#DejaVuSans-66" transform="translate(587.607422 0)"/>
      <use xlink:href="#DejaVuSans-69" transform="translate(622.8125 0)"/>
      <use xlink:href="#DejaVuSans-6c" transform="translate(650.595703 0)"/>
      <use xlink:href="#DejaVuSans-65" transform="translate(678.378906 0)"/>
      <use xlink:href="#DejaVuSans-20" transform="translate(739.902344 0)"/>
      <use xlink:href="#DejaVuSans-6f" transform="translate(771.689453 0)"/>
      <use xlink:href="#DejaVuSans-66" transform="translate(832.871094 0)"/>
      <use xlink:href="#DejaVuSans-20" transform="translate(868.076172 0)"/>
      <use xlink:href="#DejaVuSans-53" transform="translate(899.863281 0)"/>
      <use xlink:href="#DejaVuSans-56" transform="translate(963.339844 0)"/>
      <use xlink:href="#DejaVuSans-31" transform="translate(1031.748047 0)"/>
     </g>
    </g>
    <g id="line2d_40">
     <path d="M 324.70875 214.610845 
L 332.70875 214.610845 
L 340.70875 214.610845 
" style="fill: none; stroke-dasharray: 1.5,2.475; stroke-dashoffset: 0; stroke: #000000; stroke-width: 1.5"/>
    </g>
    <g id="text_41">
     <!-- Average velocity -->
     <g transform="translate(347.10875 217.410845) scale(0.08 -0.08)">
      <defs>
       <path id="DejaVuSans-41" d="M 2188 4044 
L 1331 1722 
L 3047 1722 
L 2188 4044 
z
M 1831 4666 
L 2547 4666 
L 4325 0 
L 3669 0 
L 3244 1197 
L 1141 1197 
L 716 0 
L 50 0 
L 1831 4666 
z
" transform="scale(0.015625)"/>
       <path id="DejaVuSans-76" d="M 191 3500 
L 800 3500 
L 1894 563 
L 2988 3500 
L 3597 3500 
L 2284 0 
L 1503 0 
L 191 3500 
z
" transform="scale(0.015625)"/>
       <path id="DejaVuSans-61" d="M 2194 1759 
Q 1497 1759 1228 1600 
Q 959 1441 959 1056 
Q 959 750 1161 570 
Q 1363 391 1709 391 
Q 2188 391 2477 730 
Q 2766 1069 2766 1631 
L 2766 1759 
L 2194 1759 
z
M 3341 1997 
L 3341 0 
L 2766 0 
L 2766 531 
Q 2569 213 2275 61 
Q 1981 -91 1556 -91 
Q 1019 -91 701 211 
Q 384 513 384 1019 
Q 384 1609 779 1909 
Q 1175 2209 1959 2209 
L 2766 2209 
L 2766 2266 
Q 2766 2663 2505 2880 
Q 2244 3097 1772 3097 
Q 1472 3097 1187 3025 
Q 903 2953 641 2809 
L 641 3341 
Q 956 3463 1253 3523 
Q 1550 3584 1831 3584 
Q 2591 3584 2966 3190 
Q 3341 2797 3341 1997 
z
" transform="scale(0.015625)"/>
       <path id="DejaVuSans-67" d="M 2906 1791 
Q 2906 2416 2648 2759 
Q 2391 3103 1925 3103 
Q 1463 3103 1205 2759 
Q 947 2416 947 1791 
Q 947 1169 1205 825 
Q 1463 481 1925 481 
Q 2391 481 2648 825 
Q 2906 1169 2906 1791 
z
M 3481 434 
Q 3481 -459 3084 -895 
Q 2688 -1331 1869 -1331 
Q 1566 -1331 1297 -1286 
Q 1028 -1241 775 -1147 
L 775 -588 
Q 1028 -725 1275 -790 
Q 1522 -856 1778 -856 
Q 2344 -856 2625 -561 
Q 2906 -266 2906 331 
L 2906 616 
Q 2728 306 2450 153 
Q 2172 0 1784 0 
Q 1141 0 747 490 
Q 353 981 353 1791 
Q 353 2603 747 3093 
Q 1141 3584 1784 3584 
Q 2172 3584 2450 3431 
Q 2728 3278 2906 2969 
L 2906 3500 
L 3481 3500 
L 3481 434 
z
" transform="scale(0.015625)"/>
      </defs>
      <use xlink:href="#DejaVuSans-41"/>
      <use xlink:href="#DejaVuSans-76" transform="translate(62.533203 0)"/>
      <use xlink:href="#DejaVuSans-65" transform="translate(121.712891 0)"/>
      <use xlink:href="#DejaVuSans-72" transform="translate(183.236328 0)"/>
      <use xlink:href="#DejaVuSans-61" transform="translate(224.349609 0)"/>
      <use xlink:href="#DejaVuSans-67" transform="translate(285.628906 0)"/>
      <use xlink:href="#DejaVuSans-65" transform="translate(349.105469 0)"/>
      <use xlink:href="#DejaVuSans-20" transform="translate(410.628906 0)"/>
      <use xlink:href="#DejaVuSans-76" transform="translate(442.416016 0)"/>
      <use xlink:href="#DejaVuSans-65" transform="translate(501.595703 0)"/>
      <use xlink:href="#DejaVuSans-6c" transform="translate(563.119141 0)"/>
      <use xlink:href="#DejaVuSans-6f" transform="translate(590.902344 0)"/>
      <use xlink:href="#DejaVuSans-63" transform="translate(652.083984 0)"/>
      <use xlink:href="#DejaVuSans-69" transform="translate(707.064453 0)"/>
      <use xlink:href="#DejaVuSans-74" transform="translate(734.847656 0)"/>
      <use xlink:href="#DejaVuSans-79" transform="translate(774.056641 0)"/>
     </g>
    </g>
   </g>
  </g>
  <g id="axes_4">
   <g id="patch_18">
    <path d="M 70.56 307.537297 
L 483.84 307.537297 
L 483.84 256.748108 
L 70.56 256.748108 
z
" style="fill: #ffffff"/>
   </g>
   <g id="matplotlib.axis_7">
    <g id="xtick_19">
     <g id="line2d_41">
      <g>
       <use xlink:href="#m90488081c8" x="70.56" y="307.537297" style="stroke: #000000; stroke-width: 0.8"/>
      </g>
     </g>
     <g id="text_42">
      <!-- 0.0 -->
      <g transform="translate(62.608438 322.135735) scale(0.1 -0.1)">
       <use xlink:href="#DejaVuSans-30"/>
       <use xlink:href="#DejaVuSans-2e" transform="translate(63.623047 0)"/>
       <use xlink:href="#DejaVuSans-30" transform="translate(95.410156 0)"/>
      </g>
     </g>
    </g>
    <g id="xtick_20">
     <g id="line2d_42">
      <g>
       <use xlink:href="#m90488081c8" x="151.069091" y="307.537297" style="stroke: #000000; stroke-width: 0.8"/>
      </g>
     </g>
     <g id="text_43">
      <!-- 1.5 -->
      <g transform="translate(143.117528 322.135735) scale(0.1 -0.1)">
       <use xlink:href="#DejaVuSans-31"/>
       <use xlink:href="#DejaVuSans-2e" transform="translate(63.623047 0)"/>
       <use xlink:href="#DejaVuSans-35" transform="translate(95.410156 0)"/>
      </g>
     </g>
    </g>
    <g id="xtick_21">
     <g id="line2d_43">
      <g>
       <use xlink:href="#m90488081c8" x="231.578182" y="307.537297" style="stroke: #000000; stroke-width: 0.8"/>
      </g>
     </g>
     <g id="text_44">
      <!-- 3.0 -->
      <g transform="translate(223.626619 322.135735) scale(0.1 -0.1)">
       <use xlink:href="#DejaVuSans-33"/>
       <use xlink:href="#DejaVuSans-2e" transform="translate(63.623047 0)"/>
       <use xlink:href="#DejaVuSans-30" transform="translate(95.410156 0)"/>
      </g>
     </g>
    </g>
    <g id="xtick_22">
     <g id="line2d_44">
      <g>
       <use xlink:href="#m90488081c8" x="312.087273" y="307.537297" style="stroke: #000000; stroke-width: 0.8"/>
      </g>
     </g>
     <g id="text_45">
      <!-- 4.5 -->
      <g transform="translate(304.13571 322.135735) scale(0.1 -0.1)">
       <use xlink:href="#DejaVuSans-34"/>
       <use xlink:href="#DejaVuSans-2e" transform="translate(63.623047 0)"/>
       <use xlink:href="#DejaVuSans-35" transform="translate(95.410156 0)"/>
      </g>
     </g>
    </g>
    <g id="xtick_23">
     <g id="line2d_45">
      <g>
       <use xlink:href="#m90488081c8" x="392.596364" y="307.537297" style="stroke: #000000; stroke-width: 0.8"/>
      </g>
     </g>
     <g id="text_46">
      <!-- 6.0 -->
      <g transform="translate(384.644801 322.135735) scale(0.1 -0.1)">
       <use xlink:href="#DejaVuSans-36"/>
       <use xlink:href="#DejaVuSans-2e" transform="translate(63.623047 0)"/>
       <use xlink:href="#DejaVuSans-30" transform="translate(95.410156 0)"/>
      </g>
     </g>
    </g>
    <g id="xtick_24">
     <g id="line2d_46">
      <g>
       <use xlink:href="#m90488081c8" x="473.105455" y="307.537297" style="stroke: #000000; stroke-width: 0.8"/>
      </g>
     </g>
     <g id="text_47">
      <!-- 7.5 -->
      <g transform="translate(465.153892 322.135735) scale(0.1 -0.1)">
       <use xlink:href="#DejaVuSans-37"/>
       <use xlink:href="#DejaVuSans-2e" transform="translate(63.623047 0)"/>
       <use xlink:href="#DejaVuSans-35" transform="translate(95.410156 0)"/>
      </g>
     </g>
    </g>
    <g id="text_48">
     <!-- Time(s) -->
     <g transform="translate(258.460156 335.81386) scale(0.1 -0.1)">
      <use xlink:href="#DejaVuSans-54"/>
      <use xlink:href="#DejaVuSans-69" transform="translate(57.958984 0)"/>
      <use xlink:href="#DejaVuSans-6d" transform="translate(85.742188 0)"/>
      <use xlink:href="#DejaVuSans-65" transform="translate(183.154297 0)"/>
      <use xlink:href="#DejaVuSans-28" transform="translate(244.677734 0)"/>
      <use xlink:href="#DejaVuSans-73" transform="translate(283.691406 0)"/>
      <use xlink:href="#DejaVuSans-29" transform="translate(335.791016 0)"/>
     </g>
    </g>
   </g>
   <g id="matplotlib.axis_8">
    <g id="ytick_15">
     <g id="line2d_47">
      <g>
       <use xlink:href="#mec73c68f06" x="70.56" y="299.210159" style="stroke: #000000; stroke-width: 0.8"/>
      </g>
     </g>
     <g id="text_49">
      <!-- −0.15 -->
      <g transform="translate(32.914687 303.009378) scale(0.1 -0.1)">
       <defs>
        <path id="DejaVuSans-2212" d="M 678 2272 
L 4684 2272 
L 4684 1741 
L 678 1741 
L 678 2272 
z
" transform="scale(0.015625)"/>
       </defs>
       <use xlink:href="#DejaVuSans-2212"/>
       <use xlink:href="#DejaVuSans-30" transform="translate(83.789062 0)"/>
       <use xlink:href="#DejaVuSans-2e" transform="translate(147.412109 0)"/>
       <use xlink:href="#DejaVuSans-31" transform="translate(179.199219 0)"/>
       <use xlink:href="#DejaVuSans-35" transform="translate(242.822266 0)"/>
      </g>
     </g>
    </g>
    <g id="ytick_16">
     <g id="line2d_48">
      <g>
       <use xlink:href="#mec73c68f06" x="70.56" y="286.244128" style="stroke: #000000; stroke-width: 0.8"/>
      </g>
     </g>
     <g id="text_50">
      <!-- 0.00 -->
      <g transform="translate(41.294375 290.043347) scale(0.1 -0.1)">
       <use xlink:href="#DejaVuSans-30"/>
       <use xlink:href="#DejaVuSans-2e" transform="translate(63.623047 0)"/>
       <use xlink:href="#DejaVuSans-30" transform="translate(95.410156 0)"/>
       <use xlink:href="#DejaVuSans-30" transform="translate(159.033203 0)"/>
      </g>
     </g>
    </g>
    <g id="ytick_17">
     <g id="line2d_49">
      <g>
       <use xlink:href="#mec73c68f06" x="70.56" y="273.278097" style="stroke: #000000; stroke-width: 0.8"/>
      </g>
     </g>
     <g id="text_51">
      <!-- 0.15 -->
      <g transform="translate(41.294375 277.077316) scale(0.1 -0.1)">
       <use xlink:href="#DejaVuSans-30"/>
       <use xlink:href="#DejaVuSans-2e" transform="translate(63.623047 0)"/>
       <use xlink:href="#DejaVuSans-31" transform="translate(95.410156 0)"/>
       <use xlink:href="#DejaVuSans-35" transform="translate(159.033203 0)"/>
      </g>
     </g>
    </g>
    <g id="ytick_18">
     <g id="line2d_50">
      <g>
       <use xlink:href="#mec73c68f06" x="70.56" y="260.312066" style="stroke: #000000; stroke-width: 0.8"/>
      </g>
     </g>
     <g id="text_52">
      <!-- 0.30 -->
      <g transform="translate(41.294375 264.111285) scale(0.1 -0.1)">
       <use xlink:href="#DejaVuSans-30"/>
       <use xlink:href="#DejaVuSans-2e" transform="translate(63.623047 0)"/>
       <use xlink:href="#DejaVuSans-33" transform="translate(95.410156 0)"/>
       <use xlink:href="#DejaVuSans-30" transform="translate(159.033203 0)"/>
      </g>
     </g>
    </g>
    <g id="text_53">
     <!-- Acceleration -->
     <g transform="translate(14.650937 313.213015) rotate(-90) scale(0.1 -0.1)">
      <defs>
       <path id="DejaVuSans-6e" d="M 3513 2113 
L 3513 0 
L 2938 0 
L 2938 2094 
Q 2938 2591 2744 2837 
Q 2550 3084 2163 3084 
Q 1697 3084 1428 2787 
Q 1159 2491 1159 1978 
L 1159 0 
L 581 0 
L 581 3500 
L 1159 3500 
L 1159 2956 
Q 1366 3272 1645 3428 
Q 1925 3584 2291 3584 
Q 2894 3584 3203 3211 
Q 3513 2838 3513 2113 
z
" transform="scale(0.015625)"/>
      </defs>
      <use xlink:href="#DejaVuSans-41"/>
      <use xlink:href="#DejaVuSans-63" transform="translate(66.658203 0)"/>
      <use xlink:href="#DejaVuSans-63" transform="translate(121.638672 0)"/>
      <use xlink:href="#DejaVuSans-65" transform="translate(176.619141 0)"/>
      <use xlink:href="#DejaVuSans-6c" transform="translate(238.142578 0)"/>
      <use xlink:href="#DejaVuSans-65" transform="translate(265.925781 0)"/>
      <use xlink:href="#DejaVuSans-72" transform="translate(327.449219 0)"/>
      <use xlink:href="#DejaVuSans-61" transform="translate(368.5625 0)"/>
      <use xlink:href="#DejaVuSans-74" transform="translate(429.841797 0)"/>
      <use xlink:href="#DejaVuSans-69" transform="translate(469.050781 0)"/>
      <use xlink:href="#DejaVuSans-6f" transform="translate(496.833984 0)"/>
      <use xlink:href="#DejaVuSans-6e" transform="translate(558.015625 0)"/>
     </g>
     <!-- (m/$s^2$) -->
     <g transform="translate(26.835 297.842703) rotate(-90) scale(0.1 -0.1)">
      <defs>
       <path id="DejaVuSans-Oblique-73" d="M 3200 3397 
L 3091 2853 
Q 2863 2978 2609 3040 
Q 2356 3103 2088 3103 
Q 1634 3103 1373 2948 
Q 1113 2794 1113 2528 
Q 1113 2219 1719 2053 
Q 1766 2041 1788 2034 
L 1972 1978 
Q 2547 1819 2739 1644 
Q 2931 1469 2931 1166 
Q 2931 609 2489 259 
Q 2047 -91 1331 -91 
Q 1053 -91 747 -37 
Q 441 16 72 128 
L 184 722 
Q 500 559 806 475 
Q 1113 391 1394 391 
Q 1816 391 2080 572 
Q 2344 753 2344 1031 
Q 2344 1331 1650 1516 
L 1591 1531 
L 1394 1581 
Q 956 1697 753 1886 
Q 550 2075 550 2369 
Q 550 2928 970 3256 
Q 1391 3584 2113 3584 
Q 2397 3584 2667 3537 
Q 2938 3491 3200 3397 
z
" transform="scale(0.015625)"/>
      </defs>
      <use xlink:href="#DejaVuSans-28" transform="translate(0 0.765625)"/>
      <use xlink:href="#DejaVuSans-6d" transform="translate(39.013672 0.765625)"/>
      <use xlink:href="#DejaVuSans-2f" transform="translate(136.425781 0.765625)"/>
      <use xlink:href="#DejaVuSans-Oblique-73" transform="translate(170.117188 0.765625)"/>
      <use xlink:href="#DejaVuSans-32" transform="translate(226.866693 39.046875) scale(0.7)"/>
      <use xlink:href="#DejaVuSans-29" transform="translate(274.137201 0.765625)"/>
     </g>
    </g>
   </g>
   <g id="line2d_51">
    <path d="M 70.56 286.244128 
L 75.927273 259.056708 
L 81.294545 266.366506 
L 86.661818 273.987737 
L 92.029091 284.218967 
L 97.396364 284.941389 
L 102.763636 286.257404 
L 108.130909 298.175566 
L 113.498182 298.277805 
L 118.865455 293.909761 
L 124.232727 290.839872 
L 129.6 300.362375 
L 134.967273 303.754483 
L 140.334545 299.147562 
L 145.701818 299.228752 
L 151.069091 298.007972 
L 156.436364 302.569788 
L 161.803636 301.702009 
L 167.170909 305.228698 
L 172.538182 287.309793 
L 177.905455 288.33026 
L 183.272727 290.052113 
L 188.64 291.128452 
L 194.007273 291.912901 
L 199.374545 292.668765 
L 204.741818 293.135772 
L 210.109091 293.307198 
L 215.476364 293.291129 
L 220.843636 293.05987 
L 226.210909 293.00647 
L 231.578182 293.199087 
L 236.945455 293.132786 
L 242.312727 292.538476 
L 247.68 292.476701 
L 253.047273 291.770046 
L 258.414545 291.886183 
L 263.781818 291.177395 
L 269.149091 290.49093 
L 274.516364 289.851171 
L 279.883636 289.582472 
L 285.250909 290.249365 
L 290.618182 289.670923 
L 295.985455 290.193649 
L 301.352727 290.398617 
L 306.72 290.089321 
L 312.087273 289.841563 
L 317.454545 289.480104 
L 322.821818 288.654312 
L 328.189091 288.456486 
L 333.556364 288.294326 
L 338.923636 288.177587 
L 344.290909 287.619221 
L 349.658182 287.374125 
L 355.025455 287.560892 
L 360.392727 287.002391 
L 365.76 286.887126 
L 371.127273 286.919616 
L 376.494545 286.292842 
L 381.861818 286.419498 
L 387.229091 286.078501 
L 392.596364 285.990818 
L 397.963636 285.549161 
L 403.330909 285.221193 
L 408.698182 285.297541 
L 414.065455 284.86246 
L 419.432727 284.804083 
L 424.8 284.591496 
L 430.167273 284.856187 
L 435.534545 284.955271 
L 440.901818 284.383993 
L 446.269091 284.473381 
L 451.636364 284.239796 
L 457.003636 283.8164 
L 462.370909 283.618652 
L 467.738182 283.630255 
L 473.105455 283.153549 
L 478.472727 283.379359 
" clip-path="url(#pae55dec15c)" style="fill: none; stroke: #000000; stroke-width: 1.5; stroke-linecap: square"/>
   </g>
   <g id="patch_19">
    <path d="M 70.56 307.537297 
L 70.56 256.748108 
" style="fill: none; stroke: #000000; stroke-width: 0.8; stroke-linejoin: miter; stroke-linecap: square"/>
   </g>
   <g id="patch_20">
    <path d="M 483.84 307.537297 
L 483.84 256.748108 
" style="fill: none; stroke: #000000; stroke-width: 0.8; stroke-linejoin: miter; stroke-linecap: square"/>
   </g>
   <g id="patch_21">
    <path d="M 70.56 307.537297 
L 483.84 307.537297 
" style="fill: none; stroke: #000000; stroke-width: 0.8; stroke-linejoin: miter; stroke-linecap: square"/>
   </g>
   <g id="patch_22">
    <path d="M 70.56 256.748108 
L 483.84 256.748108 
" style="fill: none; stroke: #000000; stroke-width: 0.8; stroke-linejoin: miter; stroke-linecap: square"/>
   </g>
  </g>
  <g id="axes_5">
   <g id="patch_23">
    <path d="M 70.56 388.8 
L 483.84 388.8 
L 483.84 338.010811 
L 70.56 338.010811 
z
" style="fill: #ffffff"/>
   </g>
   <g id="matplotlib.axis_9">
    <g id="xtick_25">
     <g id="line2d_52">
      <g>
       <use xlink:href="#m90488081c8" x="70.56" y="388.8" style="stroke: #000000; stroke-width: 0.8"/>
      </g>
     </g>
     <g id="text_54">
      <!-- 0.0 -->
      <g transform="translate(62.608438 403.398437) scale(0.1 -0.1)">
       <use xlink:href="#DejaVuSans-30"/>
       <use xlink:href="#DejaVuSans-2e" transform="translate(63.623047 0)"/>
       <use xlink:href="#DejaVuSans-30" transform="translate(95.410156 0)"/>
      </g>
     </g>
    </g>
    <g id="xtick_26">
     <g id="line2d_53">
      <g>
       <use xlink:href="#m90488081c8" x="151.069091" y="388.8" style="stroke: #000000; stroke-width: 0.8"/>
      </g>
     </g>
     <g id="text_55">
      <!-- 1.5 -->
      <g transform="translate(143.117528 403.398437) scale(0.1 -0.1)">
       <use xlink:href="#DejaVuSans-31"/>
       <use xlink:href="#DejaVuSans-2e" transform="translate(63.623047 0)"/>
       <use xlink:href="#DejaVuSans-35" transform="translate(95.410156 0)"/>
      </g>
     </g>
    </g>
    <g id="xtick_27">
     <g id="line2d_54">
      <g>
       <use xlink:href="#m90488081c8" x="231.578182" y="388.8" style="stroke: #000000; stroke-width: 0.8"/>
      </g>
     </g>
     <g id="text_56">
      <!-- 3.0 -->
      <g transform="translate(223.626619 403.398437) scale(0.1 -0.1)">
       <use xlink:href="#DejaVuSans-33"/>
       <use xlink:href="#DejaVuSans-2e" transform="translate(63.623047 0)"/>
       <use xlink:href="#DejaVuSans-30" transform="translate(95.410156 0)"/>
      </g>
     </g>
    </g>
    <g id="xtick_28">
     <g id="line2d_55">
      <g>
       <use xlink:href="#m90488081c8" x="312.087273" y="388.8" style="stroke: #000000; stroke-width: 0.8"/>
      </g>
     </g>
     <g id="text_57">
      <!-- 4.5 -->
      <g transform="translate(304.13571 403.398437) scale(0.1 -0.1)">
       <use xlink:href="#DejaVuSans-34"/>
       <use xlink:href="#DejaVuSans-2e" transform="translate(63.623047 0)"/>
       <use xlink:href="#DejaVuSans-35" transform="translate(95.410156 0)"/>
      </g>
     </g>
    </g>
    <g id="xtick_29">
     <g id="line2d_56">
      <g>
       <use xlink:href="#m90488081c8" x="392.596364" y="388.8" style="stroke: #000000; stroke-width: 0.8"/>
      </g>
     </g>
     <g id="text_58">
      <!-- 6.0 -->
      <g transform="translate(384.644801 403.398437) scale(0.1 -0.1)">
       <use xlink:href="#DejaVuSans-36"/>
       <use xlink:href="#DejaVuSans-2e" transform="translate(63.623047 0)"/>
       <use xlink:href="#DejaVuSans-30" transform="translate(95.410156 0)"/>
      </g>
     </g>
    </g>
    <g id="xtick_30">
     <g id="line2d_57">
      <g>
       <use xlink:href="#m90488081c8" x="473.105455" y="388.8" style="stroke: #000000; stroke-width: 0.8"/>
      </g>
     </g>
     <g id="text_59">
      <!-- 7.5 -->
      <g transform="translate(465.153892 403.398437) scale(0.1 -0.1)">
       <use xlink:href="#DejaVuSans-37"/>
       <use xlink:href="#DejaVuSans-2e" transform="translate(63.623047 0)"/>
       <use xlink:href="#DejaVuSans-35" transform="translate(95.410156 0)"/>
      </g>
     </g>
    </g>
    <g id="text_60">
     <!-- Time(s) -->
     <g transform="translate(258.460156 417.076562) scale(0.1 -0.1)">
      <use xlink:href="#DejaVuSans-54"/>
      <use xlink:href="#DejaVuSans-69" transform="translate(57.958984 0)"/>
      <use xlink:href="#DejaVuSans-6d" transform="translate(85.742188 0)"/>
      <use xlink:href="#DejaVuSans-65" transform="translate(183.154297 0)"/>
      <use xlink:href="#DejaVuSans-28" transform="translate(244.677734 0)"/>
      <use xlink:href="#DejaVuSans-73" transform="translate(283.691406 0)"/>
      <use xlink:href="#DejaVuSans-29" transform="translate(335.791016 0)"/>
     </g>
    </g>
   </g>
   <g id="matplotlib.axis_10">
    <g id="ytick_19">
     <g id="line2d_58">
      <g>
       <use xlink:href="#mec73c68f06" x="70.56" y="388.8" style="stroke: #000000; stroke-width: 0.8"/>
      </g>
     </g>
     <g id="text_61">
      <!-- −2 -->
      <g transform="translate(48.817813 392.599219) scale(0.1 -0.1)">
       <use xlink:href="#DejaVuSans-2212"/>
       <use xlink:href="#DejaVuSans-32" transform="translate(83.789062 0)"/>
      </g>
     </g>
    </g>
    <g id="ytick_20">
     <g id="line2d_59">
      <g>
       <use xlink:href="#mec73c68f06" x="70.56" y="376.102703" style="stroke: #000000; stroke-width: 0.8"/>
      </g>
     </g>
     <g id="text_62">
      <!-- 0 -->
      <g transform="translate(57.1975 379.901921) scale(0.1 -0.1)">
       <use xlink:href="#DejaVuSans-30"/>
      </g>
     </g>
    </g>
    <g id="ytick_21">
     <g id="line2d_60">
      <g>
       <use xlink:href="#mec73c68f06" x="70.56" y="363.405405" style="stroke: #000000; stroke-width: 0.8"/>
      </g>
     </g>
     <g id="text_63">
      <!-- 2 -->
      <g transform="translate(57.1975 367.204624) scale(0.1 -0.1)">
       <use xlink:href="#DejaVuSans-32"/>
      </g>
     </g>
    </g>
    <g id="ytick_22">
     <g id="line2d_61">
      <g>
       <use xlink:href="#mec73c68f06" x="70.56" y="350.708108" style="stroke: #000000; stroke-width: 0.8"/>
      </g>
     </g>
     <g id="text_64">
      <!-- 4 -->
      <g transform="translate(57.1975 354.507327) scale(0.1 -0.1)">
       <use xlink:href="#DejaVuSans-34"/>
      </g>
     </g>
    </g>
    <g id="ytick_23">
     <g id="line2d_62">
      <g>
       <use xlink:href="#mec73c68f06" x="70.56" y="338.010811" style="stroke: #000000; stroke-width: 0.8"/>
      </g>
     </g>
     <g id="text_65">
      <!-- 6 -->
      <g transform="translate(57.1975 341.81003) scale(0.1 -0.1)">
       <use xlink:href="#DejaVuSans-36"/>
      </g>
     </g>
    </g>
    <g id="text_66">
     <!-- Heading Angle -->
     <g transform="translate(31.540312 400.030405) rotate(-90) scale(0.1 -0.1)">
      <defs>
       <path id="DejaVuSans-48" d="M 628 4666 
L 1259 4666 
L 1259 2753 
L 3553 2753 
L 3553 4666 
L 4184 4666 
L 4184 0 
L 3553 0 
L 3553 2222 
L 1259 2222 
L 1259 0 
L 628 0 
L 628 4666 
z
" transform="scale(0.015625)"/>
       <path id="DejaVuSans-64" d="M 2906 2969 
L 2906 4863 
L 3481 4863 
L 3481 0 
L 2906 0 
L 2906 525 
Q 2725 213 2448 61 
Q 2172 -91 1784 -91 
Q 1150 -91 751 415 
Q 353 922 353 1747 
Q 353 2572 751 3078 
Q 1150 3584 1784 3584 
Q 2172 3584 2448 3432 
Q 2725 3281 2906 2969 
z
M 947 1747 
Q 947 1113 1208 752 
Q 1469 391 1925 391 
Q 2381 391 2643 752 
Q 2906 1113 2906 1747 
Q 2906 2381 2643 2742 
Q 2381 3103 1925 3103 
Q 1469 3103 1208 2742 
Q 947 2381 947 1747 
z
" transform="scale(0.015625)"/>
      </defs>
      <use xlink:href="#DejaVuSans-48"/>
      <use xlink:href="#DejaVuSans-65" transform="translate(75.195312 0)"/>
      <use xlink:href="#DejaVuSans-61" transform="translate(136.71875 0)"/>
      <use xlink:href="#DejaVuSans-64" transform="translate(197.998047 0)"/>
      <use xlink:href="#DejaVuSans-69" transform="translate(261.474609 0)"/>
      <use xlink:href="#DejaVuSans-6e" transform="translate(289.257812 0)"/>
      <use xlink:href="#DejaVuSans-67" transform="translate(352.636719 0)"/>
      <use xlink:href="#DejaVuSans-20" transform="translate(416.113281 0)"/>
      <use xlink:href="#DejaVuSans-41" transform="translate(447.900391 0)"/>
      <use xlink:href="#DejaVuSans-6e" transform="translate(516.308594 0)"/>
      <use xlink:href="#DejaVuSans-67" transform="translate(579.6875 0)"/>
      <use xlink:href="#DejaVuSans-6c" transform="translate(643.164062 0)"/>
      <use xlink:href="#DejaVuSans-65" transform="translate(670.947266 0)"/>
     </g>
     <!-- (degree) -->
     <g transform="translate(42.738125 384.828062) rotate(-90) scale(0.1 -0.1)">
      <use xlink:href="#DejaVuSans-28"/>
      <use xlink:href="#DejaVuSans-64" transform="translate(39.013672 0)"/>
      <use xlink:href="#DejaVuSans-65" transform="translate(102.490234 0)"/>
      <use xlink:href="#DejaVuSans-67" transform="translate(164.013672 0)"/>
      <use xlink:href="#DejaVuSans-72" transform="translate(227.490234 0)"/>
      <use xlink:href="#DejaVuSans-65" transform="translate(266.353516 0)"/>
      <use xlink:href="#DejaVuSans-65" transform="translate(327.876953 0)"/>
      <use xlink:href="#DejaVuSans-29" transform="translate(389.400391 0)"/>
     </g>
    </g>
   </g>
   <g id="line2d_63">
    <path d="M 70.56 373.400449 
L 75.927273 373.425406 
L 81.294545 373.654901 
L 86.661818 373.935981 
L 92.029091 374.211376 
L 97.396364 374.461973 
L 102.763636 374.683318 
L 108.130909 374.876316 
L 113.498182 375.043609 
L 118.865455 375.188259 
L 124.232727 375.31321 
L 129.6 375.421091 
L 134.967273 375.514208 
L 140.334545 375.594575 
L 145.701818 375.663935 
L 151.069091 375.723801 
L 156.436364 375.775476 
L 161.803636 375.820081 
L 167.170909 375.858586 
L 172.538182 375.891832 
L 177.905455 375.920545 
L 183.272727 375.945344 
L 188.64 375.966764 
L 194.007273 375.985264 
L 199.374545 376.001245 
L 204.741818 376.015048 
L 210.109091 376.02697 
L 215.476364 376.037269 
L 220.843636 376.046164 
L 226.210909 376.053849 
L 231.578182 376.060488 
L 236.945455 376.066223 
L 242.312727 376.071178 
L 247.68 376.075458 
L 253.047273 376.079157 
L 258.414545 376.082353 
L 263.781818 376.085115 
L 269.149091 376.087502 
L 274.516364 376.089564 
L 279.883636 376.091346 
L 285.250909 376.092886 
L 290.618182 376.094217 
L 295.985455 376.095367 
L 301.352727 376.096361 
L 306.72 376.097221 
L 312.087273 376.097964 
L 317.454545 376.098606 
L 322.821818 376.099161 
L 328.189091 376.099641 
L 333.556364 376.100055 
L 338.923636 376.100413 
L 344.290909 376.100724 
L 349.658182 376.100991 
L 355.025455 376.101223 
L 360.392727 376.101423 
L 365.76 376.101596 
L 371.127273 376.101746 
L 376.494545 376.101875 
L 381.861818 376.101987 
L 387.229091 376.102084 
L 392.596364 376.102168 
L 397.963636 376.102241 
L 403.330909 376.102304 
L 408.698182 376.102357 
L 414.065455 376.102404 
L 419.432727 376.102445 
L 424.8 376.10248 
L 430.167273 376.10251 
L 435.534545 376.102536 
L 440.901818 376.102559 
L 446.269091 376.102579 
L 451.636364 376.102596 
L 457.003636 376.10261 
L 462.370909 376.102623 
L 467.738182 376.102634 
L 473.105455 376.102643 
L 478.472727 376.102652 
" clip-path="url(#p2558fddd8a)" style="fill: none; stroke: #000000; stroke-width: 1.5; stroke-linecap: square"/>
   </g>
   <g id="patch_24">
    <path d="M 70.56 388.8 
L 70.56 338.010811 
" style="fill: none; stroke: #000000; stroke-width: 0.8; stroke-linejoin: miter; stroke-linecap: square"/>
   </g>
   <g id="patch_25">
    <path d="M 483.84 388.8 
L 483.84 338.010811 
" style="fill: none; stroke: #000000; stroke-width: 0.8; stroke-linejoin: miter; stroke-linecap: square"/>
   </g>
   <g id="patch_26">
    <path d="M 70.56 388.8 
L 483.84 388.8 
" style="fill: none; stroke: #000000; stroke-width: 0.8; stroke-linejoin: miter; stroke-linecap: square"/>
   </g>
   <g id="patch_27">
    <path d="M 70.56 338.010811 
L 483.84 338.010811 
" style="fill: none; stroke: #000000; stroke-width: 0.8; stroke-linejoin: miter; stroke-linecap: square"/>
   </g>
  </g>
 </g>
 <defs>
  <clipPath id="p44a36c2d10">
   <rect x="70.56" y="12.96" width="413.28" height="50.789189"/>
  </clipPath>
  <clipPath id="p61777dff4f">
   <rect x="70.56" y="94.222703" width="413.28" height="50.789189"/>
  </clipPath>
  <clipPath id="p0fcc9af7f0">
   <rect x="70.56" y="175.485405" width="413.28" height="50.789189"/>
  </clipPath>
  <clipPath id="pae55dec15c">
   <rect x="70.56" y="256.748108" width="413.28" height="50.789189"/>
  </clipPath>
  <clipPath id="p2558fddd8a">
   <rect x="70.56" y="338.010811" width="413.28" height="50.789189"/>
  </clipPath>
 </defs>
</svg>
