<?xml version="1.0" encoding="utf-8" standalone="no"?>
<!DOCTYPE svg PUBLIC "-//W3C//DTD SVG 1.1//EN"
  "http://www.w3.org/Graphics/SVG/1.1/DTD/svg11.dtd">
<svg xmlns:xlink="http://www.w3.org/1999/xlink" width="720pt" height="576pt" viewBox="0 0 720 576" xmlns="http://www.w3.org/2000/svg" version="1.1">
 <metadata>
  <rdf:RDF xmlns:dc="http://purl.org/dc/elements/1.1/" xmlns:cc="http://creativecommons.org/ns#" xmlns:rdf="http://www.w3.org/1999/02/22-rdf-syntax-ns#">
   <cc:Work>
    <dc:type rdf:resource="http://purl.org/dc/dcmitype/StillImage"/>
    <dc:date>2026-03-10T14:51:04.539428</dc:date>
    <dc:format>image/svg+xml</dc:format>
    <dc:creator>
     <cc:Agent>
      <dc:title>Matplotlib v3.10.8, https://matplotlib.org/</dc:title>
     </cc:Agent>
    </dc:creator>
   </cc:Work>
  </rdf:RDF>
 </metadata>
 <defs>
  <style type="text/css">*{stroke-linejoin: round; stroke-linecap: butt}</style>
 </defs>
 <g id="figure_1">
  <g id="patch_1">
   <path d="M 0 576 
L 720 576 
L 720 0 
L 0 0 
z
" style="fill: #ffffff"/>
  </g>
  <g id="axes_1">
   <g id="patch_2">
    <path d="M 43.2 141.495652 
L 691.2 141.495652 
L 691.2 28.8 
L 43.2 28.8 
z
" style="fill: #ffffff"/>
   </g>
   <g id="patch_3">
    <path d="M 244.359158 127.743704 
L 270.039047 127.725086 
L 270.034649 112.438565 
L 244.354759 112.457182 
z
" clip-path="url(#p9b38e61d4b)" style="fill: #ffffff; stroke: #ed746a; stroke-width: 1.5; stroke-linejoin: miter"/>
   </g>
   <g id="patch_4">
    <path d="M 1030.377825 127.567929 
L 1056.057688 127.506072 
L 1056.043075 112.219566 
L 1030.363212 112.281424 
z
" clip-path="url(#p9b38e61d4b)" style="fill: #ffffff; stroke: #638dee; stroke-width: 1.5; stroke-linejoin: miter"/>
   </g>
   <g id="patch_5">
    <path d="M 438.723803 91.687062 
L 464.40364 91.602339 
L 464.383625 76.315848 
L 438.703788 76.400571 
z
" clip-path="url(#p9b38e61d4b)" style="fill: #ffffff; stroke: #aa66eb; stroke-width: 1.5; stroke-linejoin: miter"/>
   </g>
   <g id="patch_6">
    <path d="M 107.212441 93.045864 
L 132.892256 93.146103 
L 132.915936 77.859626 
L 107.236121 77.759387 
z
" clip-path="url(#p9b38e61d4b)" style="fill: #ffffff; stroke: #dbaa77; stroke-width: 1.5; stroke-linejoin: miter"/>
   </g>
   <g id="patch_7">
    <path d="M 354.494689 127.688891 
L 380.174581 127.679422 
L 380.172344 112.392899 
L 354.492452 112.402368 
z
" clip-path="url(#p9b38e61d4b)" style="fill: #f6bab4; stroke: #ed746a; stroke-width: 1.5; stroke-linejoin: miter"/>
   </g>
   <g id="patch_8">
    <path d="M 1118.358206 127.341462 
L 1144.038079 127.291659 
L 1144.026314 112.005147 
L 1118.346441 112.05495 
z
" clip-path="url(#p9b38e61d4b)" style="fill: #b1c6f6; stroke: #638dee; stroke-width: 1.5; stroke-linejoin: miter"/>
   </g>
   <g id="patch_9">
    <path d="M 528.478593 91.27659 
L 554.158429 91.191165 
L 554.138249 75.904675 
L 528.458413 75.9901 
z
" clip-path="url(#p9b38e61d4b)" style="fill: #d4b2f5; stroke: #aa66eb; stroke-width: 1.5; stroke-linejoin: miter"/>
   </g>
   <g id="patch_10">
    <path d="M 204.787116 93.413873 
L 230.466951 93.499802 
L 230.487251 78.213312 
L 204.807415 78.127383 
z
" clip-path="url(#p9b38e61d4b)" style="fill: #edd4bb; stroke: #dbaa77; stroke-width: 1.5; stroke-linejoin: miter"/>
   </g>
   <g id="patch_11">
    <path d="M 464.36095 127.667202 
L 490.040842 127.663415 
L 490.039948 112.376892 
L 464.360056 112.380678 
z
" clip-path="url(#p9b38e61d4b)" style="fill: #ed746a; stroke: #ed746a; stroke-width: 1.5; stroke-linejoin: miter"/>
   </g>
   <g id="patch_12">
    <path d="M 1205.80359 127.228229 
L 1231.483478 127.203174 
L 1231.477559 111.916654 
L 1205.797671 111.941708 
z
" clip-path="url(#p9b38e61d4b)" style="fill: #638dee; stroke: #638dee; stroke-width: 1.5; stroke-linejoin: miter"/>
   </g>
   <g id="patch_13">
    <path d="M 617.653803 91.050123 
L 643.333638 90.963837 
L 643.313254 75.677348 
L 617.633419 75.763634 
z
" clip-path="url(#p9b38e61d4b)" style="fill: #aa66eb; stroke: #aa66eb; stroke-width: 1.5; stroke-linejoin: miter"/>
   </g>
   <g id="patch_14">
    <path d="M 301.951625 93.725265 
L 327.631502 93.770433 
L 327.642172 78.483919 
L 301.962296 78.438751 
z
" clip-path="url(#p9b38e61d4b)" style="fill: #dbaa77; stroke: #dbaa77; stroke-width: 1.5; stroke-linejoin: miter"/>
   </g>
   <g id="matplotlib.axis_1">
    <g id="xtick_1">
     <g id="line2d_1">
      <defs>
       <path id="m9fde44d1f2" d="M 0 0 
L 0 3.5 
" style="stroke: #000000; stroke-width: 0.8"/>
      </defs>
      <g>
       <use xlink:href="#m9fde44d1f2" x="145.973029" y="141.495652" style="stroke: #000000; stroke-width: 0.8"/>
      </g>
     </g>
     <g id="text_1">
      <!-- 60 -->
      <g transform="translate(139.610529 156.09409) scale(0.1 -0.1)">
       <defs>
        <path id="DejaVuSans-36" d="M 2113 2584 
Q 1688 2584 1439 2293 
Q 1191 2003 1191 1497 
Q 1191 994 1439 701 
Q 1688 409 2113 409 
Q 2538 409 2786 701 
Q 3034 994 3034 1497 
Q 3034 2003 2786 2293 
Q 2538 2584 2113 2584 
z
M 3366 4563 
L 3366 3988 
Q 3128 4100 2886 4159 
Q 2644 4219 2406 4219 
Q 1781 4219 1451 3797 
Q 1122 3375 1075 2522 
Q 1259 2794 1537 2939 
Q 1816 3084 2150 3084 
Q 2853 3084 3261 2657 
Q 3669 2231 3669 1497 
Q 3669 778 3244 343 
Q 2819 -91 2113 -91 
Q 1303 -91 875 529 
Q 447 1150 447 2328 
Q 447 3434 972 4092 
Q 1497 4750 2381 4750 
Q 2619 4750 2861 4703 
Q 3103 4656 3366 4563 
z
" transform="scale(0.015625)"/>
        <path id="DejaVuSans-30" d="M 2034 4250 
Q 1547 4250 1301 3770 
Q 1056 3291 1056 2328 
Q 1056 1369 1301 889 
Q 1547 409 2034 409 
Q 2525 409 2770 889 
Q 3016 1369 3016 2328 
Q 3016 3291 2770 3770 
Q 2525 4250 2034 4250 
z
M 2034 4750 
Q 2819 4750 3233 4129 
Q 3647 3509 3647 2328 
Q 3647 1150 3233 529 
Q 2819 -91 2034 -91 
Q 1250 -91 836 529 
Q 422 1150 422 2328 
Q 422 3509 836 4129 
Q 1250 4750 2034 4750 
z
" transform="scale(0.015625)"/>
       </defs>
       <use xlink:href="#DejaVuSans-36"/>
       <use xlink:href="#DejaVuSans-30" transform="translate(63.623047 0)"/>
      </g>
     </g>
    </g>
    <g id="xtick_2">
     <g id="line2d_2">
      <g>
       <use xlink:href="#m9fde44d1f2" x="252.972581" y="141.495652" style="stroke: #000000; stroke-width: 0.8"/>
      </g>
     </g>
     <g id="text_2">
      <!-- 80 -->
      <g transform="translate(246.610081 156.09409) scale(0.1 -0.1)">
       <defs>
        <path id="DejaVuSans-38" d="M 2034 2216 
Q 1584 2216 1326 1975 
Q 1069 1734 1069 1313 
Q 1069 891 1326 650 
Q 1584 409 2034 409 
Q 2484 409 2743 651 
Q 3003 894 3003 1313 
Q 3003 1734 2745 1975 
Q 2488 2216 2034 2216 
z
M 1403 2484 
Q 997 2584 770 2862 
Q 544 3141 544 3541 
Q 544 4100 942 4425 
Q 1341 4750 2034 4750 
Q 2731 4750 3128 4425 
Q 3525 4100 3525 3541 
Q 3525 3141 3298 2862 
Q 3072 2584 2669 2484 
Q 3125 2378 3379 2068 
Q 3634 1759 3634 1313 
Q 3634 634 3220 271 
Q 2806 -91 2034 -91 
Q 1263 -91 848 271 
Q 434 634 434 1313 
Q 434 1759 690 2068 
Q 947 2378 1403 2484 
z
M 1172 3481 
Q 1172 3119 1398 2916 
Q 1625 2713 2034 2713 
Q 2441 2713 2670 2916 
Q 2900 3119 2900 3481 
Q 2900 3844 2670 4047 
Q 2441 4250 2034 4250 
Q 1625 4250 1398 4047 
Q 1172 3844 1172 3481 
z
" transform="scale(0.015625)"/>
       </defs>
       <use xlink:href="#DejaVuSans-38"/>
       <use xlink:href="#DejaVuSans-30" transform="translate(63.623047 0)"/>
      </g>
     </g>
    </g>
    <g id="xtick_3">
     <g id="line2d_3">
      <g>
       <use xlink:href="#m9fde44d1f2" x="359.972132" y="141.495652" style="stroke: #000000; stroke-width: 0.8"/>
      </g>
     </g>
     <g id="text_3">
      <!-- 100 -->
      <g transform="translate(350.428382 156.09409) scale(0.1 -0.1)">
       <defs>
        <path id="DejaVuSans-31" d="M 794 531 
L 1825 531 
L 1825 4091 
L 703 3866 
L 703 4441 
L 1819 4666 
L 2450 4666 
L 2450 531 
L 3481 531 
L 3481 0 
L 794 0 
L 794 531 
z
" transform="scale(0.015625)"/>
       </defs>
       <use xlink:href="#DejaVuSans-31"/>
       <use xlink:href="#DejaVuSans-30" transform="translate(63.623047 0)"/>
       <use xlink:href="#DejaVuSans-30" transform="translate(127.246094 0)"/>
      </g>
     </g>
    </g>
    <g id="xtick_4">
     <g id="line2d_4">
      <g>
       <use xlink:href="#m9fde44d1f2" x="466.971684" y="141.495652" style="stroke: #000000; stroke-width: 0.8"/>
      </g>
     </g>
     <g id="text_4">
      <!-- 120 -->
      <g transform="translate(457.427934 156.09409) scale(0.1 -0.1)">
       <defs>
        <path id="DejaVuSans-32" d="M 1228 531 
L 3431 531 
L 3431 0 
L 469 0 
L 469 531 
Q 828 903 1448 1529 
Q 2069 2156 2228 2338 
Q 2531 2678 2651 2914 
Q 2772 3150 2772 3378 
Q 2772 3750 2511 3984 
Q 2250 4219 1831 4219 
Q 1534 4219 1204 4116 
Q 875 4013 500 3803 
L 500 4441 
Q 881 4594 1212 4672 
Q 1544 4750 1819 4750 
Q 2544 4750 2975 4387 
Q 3406 4025 3406 3419 
Q 3406 3131 3298 2873 
Q 3191 2616 2906 2266 
Q 2828 2175 2409 1742 
Q 1991 1309 1228 531 
z
" transform="scale(0.015625)"/>
       </defs>
       <use xlink:href="#DejaVuSans-31"/>
       <use xlink:href="#DejaVuSans-32" transform="translate(63.623047 0)"/>
       <use xlink:href="#DejaVuSans-30" transform="translate(127.246094 0)"/>
      </g>
     </g>
    </g>
    <g id="xtick_5">
     <g id="line2d_5">
      <g>
       <use xlink:href="#m9fde44d1f2" x="573.971236" y="141.495652" style="stroke: #000000; stroke-width: 0.8"/>
      </g>
     </g>
     <g id="text_5">
      <!-- 140 -->
      <g transform="translate(564.427486 156.09409) scale(0.1 -0.1)">
       <defs>
        <path id="DejaVuSans-34" d="M 2419 4116 
L 825 1625 
L 2419 1625 
L 2419 4116 
z
M 2253 4666 
L 3047 4666 
L 3047 1625 
L 3713 1625 
L 3713 1100 
L 3047 1100 
L 3047 0 
L 2419 0 
L 2419 1100 
L 313 1100 
L 313 1709 
L 2253 4666 
z
" transform="scale(0.015625)"/>
       </defs>
       <use xlink:href="#DejaVuSans-31"/>
       <use xlink:href="#DejaVuSans-34" transform="translate(63.623047 0)"/>
       <use xlink:href="#DejaVuSans-30" transform="translate(127.246094 0)"/>
      </g>
     </g>
    </g>
    <g id="xtick_6">
     <g id="line2d_6">
      <g>
       <use xlink:href="#m9fde44d1f2" x="680.970788" y="141.495652" style="stroke: #000000; stroke-width: 0.8"/>
      </g>
     </g>
     <g id="text_6">
      <!-- 160 -->
      <g transform="translate(671.427038 156.09409) scale(0.1 -0.1)">
       <use xlink:href="#DejaVuSans-31"/>
       <use xlink:href="#DejaVuSans-36" transform="translate(63.623047 0)"/>
       <use xlink:href="#DejaVuSans-30" transform="translate(127.246094 0)"/>
      </g>
     </g>
    </g>
   </g>
   <g id="matplotlib.axis_2">
    <g id="ytick_1">
     <g id="line2d_7">
      <defs>
       <path id="ma6e5f808e8" d="M 0 0 
L -3.5 0 
" style="stroke: #000000; stroke-width: 0.8"/>
      </defs>
      <g>
       <use xlink:href="#ma6e5f808e8" x="43.2" y="102.515016" style="stroke: #000000; stroke-width: 0.8"/>
      </g>
     </g>
     <g id="text_7">
      <!-- 30 -->
      <g transform="translate(23.475 106.314235) scale(0.1 -0.1)">
       <defs>
        <path id="DejaVuSans-33" d="M 2597 2516 
Q 3050 2419 3304 2112 
Q 3559 1806 3559 1356 
Q 3559 666 3084 287 
Q 2609 -91 1734 -91 
Q 1441 -91 1130 -33 
Q 819 25 488 141 
L 488 750 
Q 750 597 1062 519 
Q 1375 441 1716 441 
Q 2309 441 2620 675 
Q 2931 909 2931 1356 
Q 2931 1769 2642 2001 
Q 2353 2234 1838 2234 
L 1294 2234 
L 1294 2753 
L 1863 2753 
Q 2328 2753 2575 2939 
Q 2822 3125 2822 3475 
Q 2822 3834 2567 4026 
Q 2313 4219 1838 4219 
Q 1578 4219 1281 4162 
Q 984 4106 628 3988 
L 628 4550 
Q 988 4650 1302 4700 
Q 1616 4750 1894 4750 
Q 2613 4750 3031 4423 
Q 3450 4097 3450 3541 
Q 3450 3153 3228 2886 
Q 3006 2619 2597 2516 
z
" transform="scale(0.015625)"/>
       </defs>
       <use xlink:href="#DejaVuSans-33"/>
       <use xlink:href="#DejaVuSans-30" transform="translate(63.623047 0)"/>
      </g>
     </g>
    </g>
    <g id="ytick_2">
     <g id="line2d_8">
      <g>
       <use xlink:href="#ma6e5f808e8" x="43.2" y="60.052451" style="stroke: #000000; stroke-width: 0.8"/>
      </g>
     </g>
     <g id="text_8">
      <!-- 35 -->
      <g transform="translate(23.475 63.851669) scale(0.1 -0.1)">
       <defs>
        <path id="DejaVuSans-35" d="M 691 4666 
L 3169 4666 
L 3169 4134 
L 1269 4134 
L 1269 2991 
Q 1406 3038 1543 3061 
Q 1681 3084 1819 3084 
Q 2600 3084 3056 2656 
Q 3513 2228 3513 1497 
Q 3513 744 3044 326 
Q 2575 -91 1722 -91 
Q 1428 -91 1123 -41 
Q 819 9 494 109 
L 494 744 
Q 775 591 1075 516 
Q 1375 441 1709 441 
Q 2250 441 2565 725 
Q 2881 1009 2881 1497 
Q 2881 1984 2565 2268 
Q 2250 2553 1709 2553 
Q 1456 2553 1204 2497 
Q 953 2441 691 2322 
L 691 4666 
z
" transform="scale(0.015625)"/>
       </defs>
       <use xlink:href="#DejaVuSans-33"/>
       <use xlink:href="#DejaVuSans-35" transform="translate(63.623047 0)"/>
      </g>
     </g>
    </g>
   </g>
   <g id="line2d_9">
    <path d="M 43.2 137.249396 
L 691.2 137.249396 
" clip-path="url(#p9b38e61d4b)" style="fill: none; stroke-dasharray: 5.55,2.4; stroke-dashoffset: 0; stroke: #808080; stroke-width: 1.5"/>
   </g>
   <g id="line2d_10">
    <path d="M 43.2 102.769797 
L 691.2 102.769797 
" clip-path="url(#p9b38e61d4b)" style="fill: none; stroke-dasharray: 5.55,2.4; stroke-dashoffset: 0; stroke: #808080; stroke-width: 1.5"/>
   </g>
   <g id="line2d_11">
    <path d="M 43.2 70.498238 
L 691.2 70.498238 
" clip-path="url(#p9b38e61d4b)" style="fill: none; stroke-dasharray: 5.55,2.4; stroke-dashoffset: 0; stroke: #808080; stroke-width: 1.5"/>
   </g>
   <g id="line2d_12">
    <path d="M 43.2 33.046257 
L 691.2 33.046257 
" clip-path="url(#p9b38e61d4b)" style="fill: none; stroke-dasharray: 5.55,2.4; stroke-dashoffset: 0; stroke: #808080; stroke-width: 1.5"/>
   </g>
   <g id="patch_15">
    <path d="M 43.2 141.495652 
L 43.2 28.8 
" style="fill: none; stroke: #000000; stroke-width: 0.8; stroke-linejoin: miter; stroke-linecap: square"/>
   </g>
   <g id="patch_16">
    <path d="M 691.2 141.495652 
L 691.2 28.8 
" style="fill: none; stroke: #000000; stroke-width: 0.8; stroke-linejoin: miter; stroke-linecap: square"/>
   </g>
   <g id="patch_17">
    <path d="M 43.2 141.495652 
L 691.2 141.495652 
" style="fill: none; stroke: #000000; stroke-width: 0.8; stroke-linejoin: miter; stroke-linecap: square"/>
   </g>
   <g id="patch_18">
    <path d="M 43.2 28.8 
L 691.2 28.8 
" style="fill: none; stroke: #000000; stroke-width: 0.8; stroke-linejoin: miter; stroke-linecap: square"/>
   </g>
   <g id="text_9">
    <!-- t = 0.0 s -->
    <g transform="translate(235.725666 141.331725) scale(0.1 -0.1)">
     <defs>
      <path id="DejaVuSans-74" d="M 1172 4494 
L 1172 3500 
L 2356 3500 
L 2356 3053 
L 1172 3053 
L 1172 1153 
Q 1172 725 1289 603 
Q 1406 481 1766 481 
L 2356 481 
L 2356 0 
L 1766 0 
Q 1100 0 847 248 
Q 594 497 594 1153 
L 594 3053 
L 172 3053 
L 172 3500 
L 594 3500 
L 594 4494 
L 1172 4494 
z
" transform="scale(0.015625)"/>
      <path id="DejaVuSans-20" transform="scale(0.015625)"/>
      <path id="DejaVuSans-3d" d="M 678 2906 
L 4684 2906 
L 4684 2381 
L 678 2381 
L 678 2906 
z
M 678 1631 
L 4684 1631 
L 4684 1100 
L 678 1100 
L 678 1631 
z
" transform="scale(0.015625)"/>
      <path id="DejaVuSans-2e" d="M 684 794 
L 1344 794 
L 1344 0 
L 684 0 
L 684 794 
z
" transform="scale(0.015625)"/>
      <path id="DejaVuSans-73" d="M 2834 3397 
L 2834 2853 
Q 2591 2978 2328 3040 
Q 2066 3103 1784 3103 
Q 1356 3103 1142 2972 
Q 928 2841 928 2578 
Q 928 2378 1081 2264 
Q 1234 2150 1697 2047 
L 1894 2003 
Q 2506 1872 2764 1633 
Q 3022 1394 3022 966 
Q 3022 478 2636 193 
Q 2250 -91 1575 -91 
Q 1294 -91 989 -36 
Q 684 19 347 128 
L 347 722 
Q 666 556 975 473 
Q 1284 391 1588 391 
Q 1994 391 2212 530 
Q 2431 669 2431 922 
Q 2431 1156 2273 1281 
Q 2116 1406 1581 1522 
L 1381 1569 
Q 847 1681 609 1914 
Q 372 2147 372 2553 
Q 372 3047 722 3315 
Q 1072 3584 1716 3584 
Q 2034 3584 2315 3537 
Q 2597 3491 2834 3397 
z
" transform="scale(0.015625)"/>
     </defs>
     <use xlink:href="#DejaVuSans-74"/>
     <use xlink:href="#DejaVuSans-20" transform="translate(39.208984 0)"/>
     <use xlink:href="#DejaVuSans-3d" transform="translate(70.996094 0)"/>
     <use xlink:href="#DejaVuSans-20" transform="translate(154.785156 0)"/>
     <use xlink:href="#DejaVuSans-30" transform="translate(186.572266 0)"/>
     <use xlink:href="#DejaVuSans-2e" transform="translate(250.195312 0)"/>
     <use xlink:href="#DejaVuSans-30" transform="translate(281.982422 0)"/>
     <use xlink:href="#DejaVuSans-20" transform="translate(345.605469 0)"/>
     <use xlink:href="#DejaVuSans-73" transform="translate(377.392578 0)"/>
    </g>
   </g>
   <g id="text_10">
    <!-- t = 0.5 s -->
    <g transform="translate(345.861198 141.276912) scale(0.1 -0.1)">
     <use xlink:href="#DejaVuSans-74"/>
     <use xlink:href="#DejaVuSans-20" transform="translate(39.208984 0)"/>
     <use xlink:href="#DejaVuSans-3d" transform="translate(70.996094 0)"/>
     <use xlink:href="#DejaVuSans-20" transform="translate(154.785156 0)"/>
     <use xlink:href="#DejaVuSans-30" transform="translate(186.572266 0)"/>
     <use xlink:href="#DejaVuSans-2e" transform="translate(250.195312 0)"/>
     <use xlink:href="#DejaVuSans-35" transform="translate(281.982422 0)"/>
     <use xlink:href="#DejaVuSans-20" transform="translate(345.605469 0)"/>
     <use xlink:href="#DejaVuSans-73" transform="translate(377.392578 0)"/>
    </g>
   </g>
   <g id="text_11">
    <!-- t = 1.0 s -->
    <g transform="translate(455.727459 141.255223) scale(0.1 -0.1)">
     <use xlink:href="#DejaVuSans-74"/>
     <use xlink:href="#DejaVuSans-20" transform="translate(39.208984 0)"/>
     <use xlink:href="#DejaVuSans-3d" transform="translate(70.996094 0)"/>
     <use xlink:href="#DejaVuSans-20" transform="translate(154.785156 0)"/>
     <use xlink:href="#DejaVuSans-31" transform="translate(186.572266 0)"/>
     <use xlink:href="#DejaVuSans-2e" transform="translate(250.195312 0)"/>
     <use xlink:href="#DejaVuSans-30" transform="translate(281.982422 0)"/>
     <use xlink:href="#DejaVuSans-20" transform="translate(345.605469 0)"/>
     <use xlink:href="#DejaVuSans-73" transform="translate(377.392578 0)"/>
    </g>
   </g>
  </g>
  <g id="axes_2">
   <g id="patch_19">
    <path d="M 43.2 276.730435 
L 691.2 276.730435 
L 691.2 164.034783 
L 43.2 164.034783 
z
" style="fill: #ffffff"/>
   </g>
   <g id="patch_20">
    <path d="M 244.934866 262.893365 
L 270.688253 262.891855 
L 270.687895 247.605331 
L 244.934508 247.606842 
z
" clip-path="url(#pbd17c8b8e9)" style="fill: #ffffff; stroke: #ed746a; stroke-width: 1.5; stroke-linejoin: miter"/>
   </g>
   <g id="patch_21">
    <path d="M 965.449836 262.463012 
L 991.203223 262.463012 
L 991.203223 247.176488 
L 965.449836 247.176488 
z
" clip-path="url(#pbd17c8b8e9)" style="fill: #ffffff; stroke: #638dee; stroke-width: 1.5; stroke-linejoin: miter"/>
   </g>
   <g id="patch_22">
    <path d="M 376.868692 225.973514 
L 402.622036 225.898763 
L 402.604327 210.612265 
L 376.850983 210.687016 
z
" clip-path="url(#pbd17c8b8e9)" style="fill: #ffffff; stroke: #aa66eb; stroke-width: 1.5; stroke-linejoin: miter"/>
   </g>
   <g id="patch_23">
    <path d="M 68.328807 229.044973 
L 94.08219 229.022225 
L 94.076801 213.735704 
L 68.323418 213.758452 
z
" clip-path="url(#pbd17c8b8e9)" style="fill: #ffffff; stroke: #dbaa77; stroke-width: 1.5; stroke-linejoin: miter"/>
   </g>
   <g id="patch_24">
    <path d="M 354.507964 262.889931 
L 380.261352 262.889327 
L 380.261208 247.602803 
L 354.507821 247.603408 
z
" clip-path="url(#pbd17c8b8e9)" style="fill: #f6bab4; stroke: #ed746a; stroke-width: 1.5; stroke-linejoin: miter"/>
   </g>
   <g id="patch_25">
    <path d="M 1051.965121 262.463012 
L 1077.718508 262.463012 
L 1077.718508 247.176488 
L 1051.965121 247.176488 
z
" clip-path="url(#pbd17c8b8e9)" style="fill: #b1c6f6; stroke: #638dee; stroke-width: 1.5; stroke-linejoin: miter"/>
   </g>
   <g id="patch_26">
    <path d="M 464.036754 225.69043 
L 489.790111 225.627513 
L 489.775205 210.341008 
L 464.021848 210.403925 
z
" clip-path="url(#pbd17c8b8e9)" style="fill: #d4b2f5; stroke: #aa66eb; stroke-width: 1.5; stroke-linejoin: miter"/>
   </g>
   <g id="patch_27">
    <path d="M 163.875662 228.790197 
L 189.628999 228.710066 
L 189.610015 213.423572 
L 163.856678 213.503703 
z
" clip-path="url(#pbd17c8b8e9)" style="fill: #edd4bb; stroke: #dbaa77; stroke-width: 1.5; stroke-linejoin: miter"/>
   </g>
   <g id="patch_28">
    <path d="M 463.711747 262.888558 
L 489.465134 262.888315 
L 489.465077 247.601792 
L 463.71169 247.602035 
z
" clip-path="url(#pbd17c8b8e9)" style="fill: #ed746a; stroke: #ed746a; stroke-width: 1.5; stroke-linejoin: miter"/>
   </g>
   <g id="patch_29">
    <path d="M 1138.283679 262.463012 
L 1164.037065 262.475659 
L 1164.040061 247.189137 
L 1138.286675 247.176489 
z
" clip-path="url(#pbd17c8b8e9)" style="fill: #638dee; stroke: #638dee; stroke-width: 1.5; stroke-linejoin: miter"/>
   </g>
   <g id="patch_30">
    <path d="M 550.167527 225.52058 
L 575.920894 225.469815 
L 575.908867 210.183303 
L 550.1555 210.234068 
z
" clip-path="url(#pbd17c8b8e9)" style="fill: #aa66eb; stroke: #aa66eb; stroke-width: 1.5; stroke-linejoin: miter"/>
   </g>
   <g id="patch_31">
    <path d="M 259.207905 228.422188 
L 284.961226 228.330153 
L 284.939422 213.043669 
L 259.186101 213.135704 
z
" clip-path="url(#pbd17c8b8e9)" style="fill: #dbaa77; stroke: #dbaa77; stroke-width: 1.5; stroke-linejoin: miter"/>
   </g>
   <g id="matplotlib.axis_3">
    <g id="xtick_7">
     <g id="line2d_13">
      <g>
       <use xlink:href="#m9fde44d1f2" x="137.666225" y="276.730435" style="stroke: #000000; stroke-width: 0.8"/>
      </g>
     </g>
     <g id="text_12">
      <!-- 120 -->
      <g transform="translate(128.122475 291.328872) scale(0.1 -0.1)">
       <use xlink:href="#DejaVuSans-31"/>
       <use xlink:href="#DejaVuSans-32" transform="translate(63.623047 0)"/>
       <use xlink:href="#DejaVuSans-30" transform="translate(127.246094 0)"/>
      </g>
     </g>
    </g>
    <g id="xtick_8">
     <g id="line2d_14">
      <g>
       <use xlink:href="#m9fde44d1f2" x="244.972005" y="276.730435" style="stroke: #000000; stroke-width: 0.8"/>
      </g>
     </g>
     <g id="text_13">
      <!-- 140 -->
      <g transform="translate(235.428255 291.328872) scale(0.1 -0.1)">
       <use xlink:href="#DejaVuSans-31"/>
       <use xlink:href="#DejaVuSans-34" transform="translate(63.623047 0)"/>
       <use xlink:href="#DejaVuSans-30" transform="translate(127.246094 0)"/>
      </g>
     </g>
    </g>
    <g id="xtick_9">
     <g id="line2d_15">
      <g>
       <use xlink:href="#m9fde44d1f2" x="352.277785" y="276.730435" style="stroke: #000000; stroke-width: 0.8"/>
      </g>
     </g>
     <g id="text_14">
      <!-- 160 -->
      <g transform="translate(342.734035 291.328872) scale(0.1 -0.1)">
       <use xlink:href="#DejaVuSans-31"/>
       <use xlink:href="#DejaVuSans-36" transform="translate(63.623047 0)"/>
       <use xlink:href="#DejaVuSans-30" transform="translate(127.246094 0)"/>
      </g>
     </g>
    </g>
    <g id="xtick_10">
     <g id="line2d_16">
      <g>
       <use xlink:href="#m9fde44d1f2" x="459.583564" y="276.730435" style="stroke: #000000; stroke-width: 0.8"/>
      </g>
     </g>
     <g id="text_15">
      <!-- 180 -->
      <g transform="translate(450.039814 291.328872) scale(0.1 -0.1)">
       <use xlink:href="#DejaVuSans-31"/>
       <use xlink:href="#DejaVuSans-38" transform="translate(63.623047 0)"/>
       <use xlink:href="#DejaVuSans-30" transform="translate(127.246094 0)"/>
      </g>
     </g>
    </g>
    <g id="xtick_11">
     <g id="line2d_17">
      <g>
       <use xlink:href="#m9fde44d1f2" x="566.889344" y="276.730435" style="stroke: #000000; stroke-width: 0.8"/>
      </g>
     </g>
     <g id="text_16">
      <!-- 200 -->
      <g transform="translate(557.345594 291.328872) scale(0.1 -0.1)">
       <use xlink:href="#DejaVuSans-32"/>
       <use xlink:href="#DejaVuSans-30" transform="translate(63.623047 0)"/>
       <use xlink:href="#DejaVuSans-30" transform="translate(127.246094 0)"/>
      </g>
     </g>
    </g>
    <g id="xtick_12">
     <g id="line2d_18">
      <g>
       <use xlink:href="#m9fde44d1f2" x="674.195124" y="276.730435" style="stroke: #000000; stroke-width: 0.8"/>
      </g>
     </g>
     <g id="text_17">
      <!-- 220 -->
      <g transform="translate(664.651374 291.328872) scale(0.1 -0.1)">
       <use xlink:href="#DejaVuSans-32"/>
       <use xlink:href="#DejaVuSans-32" transform="translate(63.623047 0)"/>
       <use xlink:href="#DejaVuSans-30" transform="translate(127.246094 0)"/>
      </g>
     </g>
    </g>
   </g>
   <g id="matplotlib.axis_4">
    <g id="ytick_3">
     <g id="line2d_19">
      <g>
       <use xlink:href="#ma6e5f808e8" x="43.2" y="237.749799" style="stroke: #000000; stroke-width: 0.8"/>
      </g>
     </g>
     <g id="text_18">
      <!-- 30 -->
      <g transform="translate(23.475 241.549017) scale(0.1 -0.1)">
       <use xlink:href="#DejaVuSans-33"/>
       <use xlink:href="#DejaVuSans-30" transform="translate(63.623047 0)"/>
      </g>
     </g>
    </g>
    <g id="ytick_4">
     <g id="line2d_20">
      <g>
       <use xlink:href="#ma6e5f808e8" x="43.2" y="195.287233" style="stroke: #000000; stroke-width: 0.8"/>
      </g>
     </g>
     <g id="text_19">
      <!-- 35 -->
      <g transform="translate(23.475 199.086452) scale(0.1 -0.1)">
       <use xlink:href="#DejaVuSans-33"/>
       <use xlink:href="#DejaVuSans-35" transform="translate(63.623047 0)"/>
      </g>
     </g>
    </g>
   </g>
   <g id="line2d_21">
    <path d="M 43.2 272.484178 
L 691.2 272.484178 
" clip-path="url(#pbd17c8b8e9)" style="fill: none; stroke-dasharray: 5.55,2.4; stroke-dashoffset: 0; stroke: #808080; stroke-width: 1.5"/>
   </g>
   <g id="line2d_22">
    <path d="M 43.2 238.00458 
L 691.2 238.00458 
" clip-path="url(#pbd17c8b8e9)" style="fill: none; stroke-dasharray: 5.55,2.4; stroke-dashoffset: 0; stroke: #808080; stroke-width: 1.5"/>
   </g>
   <g id="line2d_23">
    <path d="M 43.2 205.73302 
L 691.2 205.73302 
" clip-path="url(#pbd17c8b8e9)" style="fill: none; stroke-dasharray: 5.55,2.4; stroke-dashoffset: 0; stroke: #808080; stroke-width: 1.5"/>
   </g>
   <g id="line2d_24">
    <path d="M 43.2 168.281039 
L 691.2 168.281039 
" clip-path="url(#pbd17c8b8e9)" style="fill: none; stroke-dasharray: 5.55,2.4; stroke-dashoffset: 0; stroke: #808080; stroke-width: 1.5"/>
   </g>
   <g id="patch_32">
    <path d="M 43.2 276.730435 
L 43.2 164.034783 
" style="fill: none; stroke: #000000; stroke-width: 0.8; stroke-linejoin: miter; stroke-linecap: square"/>
   </g>
   <g id="patch_33">
    <path d="M 691.2 276.730435 
L 691.2 164.034783 
" style="fill: none; stroke: #000000; stroke-width: 0.8; stroke-linejoin: miter; stroke-linecap: square"/>
   </g>
   <g id="patch_34">
    <path d="M 43.2 276.730435 
L 691.2 276.730435 
" style="fill: none; stroke: #000000; stroke-width: 0.8; stroke-linejoin: miter; stroke-linecap: square"/>
   </g>
   <g id="patch_35">
    <path d="M 43.2 164.034783 
L 691.2 164.034783 
" style="fill: none; stroke: #000000; stroke-width: 0.8; stroke-linejoin: miter; stroke-linecap: square"/>
   </g>
   <g id="text_20">
    <!-- t = 1.5 s -->
    <g transform="translate(236.338122 276.481386) scale(0.1 -0.1)">
     <use xlink:href="#DejaVuSans-74"/>
     <use xlink:href="#DejaVuSans-20" transform="translate(39.208984 0)"/>
     <use xlink:href="#DejaVuSans-3d" transform="translate(70.996094 0)"/>
     <use xlink:href="#DejaVuSans-20" transform="translate(154.785156 0)"/>
     <use xlink:href="#DejaVuSans-31" transform="translate(186.572266 0)"/>
     <use xlink:href="#DejaVuSans-2e" transform="translate(250.195312 0)"/>
     <use xlink:href="#DejaVuSans-35" transform="translate(281.982422 0)"/>
     <use xlink:href="#DejaVuSans-20" transform="translate(345.605469 0)"/>
     <use xlink:href="#DejaVuSans-73" transform="translate(377.392578 0)"/>
    </g>
   </g>
   <g id="text_21">
    <!-- t = 2.0 s -->
    <g transform="translate(345.91122 276.477952) scale(0.1 -0.1)">
     <use xlink:href="#DejaVuSans-74"/>
     <use xlink:href="#DejaVuSans-20" transform="translate(39.208984 0)"/>
     <use xlink:href="#DejaVuSans-3d" transform="translate(70.996094 0)"/>
     <use xlink:href="#DejaVuSans-20" transform="translate(154.785156 0)"/>
     <use xlink:href="#DejaVuSans-32" transform="translate(186.572266 0)"/>
     <use xlink:href="#DejaVuSans-2e" transform="translate(250.195312 0)"/>
     <use xlink:href="#DejaVuSans-30" transform="translate(281.982422 0)"/>
     <use xlink:href="#DejaVuSans-20" transform="translate(345.605469 0)"/>
     <use xlink:href="#DejaVuSans-73" transform="translate(377.392578 0)"/>
    </g>
   </g>
   <g id="text_22">
    <!-- t = 2.5 s -->
    <g transform="translate(455.115003 276.476579) scale(0.1 -0.1)">
     <use xlink:href="#DejaVuSans-74"/>
     <use xlink:href="#DejaVuSans-20" transform="translate(39.208984 0)"/>
     <use xlink:href="#DejaVuSans-3d" transform="translate(70.996094 0)"/>
     <use xlink:href="#DejaVuSans-20" transform="translate(154.785156 0)"/>
     <use xlink:href="#DejaVuSans-32" transform="translate(186.572266 0)"/>
     <use xlink:href="#DejaVuSans-2e" transform="translate(250.195312 0)"/>
     <use xlink:href="#DejaVuSans-35" transform="translate(281.982422 0)"/>
     <use xlink:href="#DejaVuSans-20" transform="translate(345.605469 0)"/>
     <use xlink:href="#DejaVuSans-73" transform="translate(377.392578 0)"/>
    </g>
   </g>
  </g>
  <g id="axes_3">
   <g id="patch_36">
    <path d="M 43.2 411.965217 
L 691.2 411.965217 
L 691.2 299.269565 
L 43.2 299.269565 
z
" style="fill: #ffffff"/>
   </g>
   <g id="patch_37">
    <path d="M 245.490682 398.12279 
L 271.315025 398.122693 
L 271.315002 382.836169 
L 245.490659 382.836267 
z
" clip-path="url(#p3589086909)" style="fill: #ffffff; stroke: #ed746a; stroke-width: 1.5; stroke-linejoin: miter"/>
   </g>
   <g id="patch_38">
    <path d="M 899.723363 397.697794 
L 925.5477 397.723062 
L 925.553703 382.436542 
L 899.729366 382.411274 
z
" clip-path="url(#p3589086909)" style="fill: #ffffff; stroke: #638dee; stroke-width: 1.5; stroke-linejoin: miter"/>
   </g>
   <g id="patch_39">
    <path d="M 309.152932 360.585512 
L 334.977193 360.483267 
L 334.952903 345.196791 
L 309.128642 345.299037 
z
" clip-path="url(#p3589086909)" style="fill: #ffffff; stroke: #aa66eb; stroke-width: 1.5; stroke-linejoin: miter"/>
   </g>
   <g id="patch_40">
    <path d="M 26.080478 363.260654 
L 51.904789 363.197149 
L 51.889703 347.910644 
L 26.065391 347.974149 
z
" clip-path="url(#p3589086909)" style="fill: #ffffff; stroke: #dbaa77; stroke-width: 1.5; stroke-linejoin: miter"/>
   </g>
   <g id="patch_41">
    <path d="M 354.385885 398.122568 
L 380.210228 398.122528 
L 380.210218 382.836005 
L 354.385876 382.836044 
z
" clip-path="url(#p3589086909)" style="fill: #f6bab4; stroke: #ed746a; stroke-width: 1.5; stroke-linejoin: miter"/>
   </g>
   <g id="patch_42">
    <path d="M 986.26181 397.867644 
L 1012.086133 397.918048 
L 1012.098107 382.631536 
L 986.273784 382.581133 
z
" clip-path="url(#p3589086909)" style="fill: #b1c6f6; stroke: #638dee; stroke-width: 1.5; stroke-linejoin: miter"/>
   </g>
   <g id="patch_43">
    <path d="M 394.749867 360.10427 
L 420.573893 359.902746 
L 420.526018 344.616409 
L 394.701992 344.817933 
z
" clip-path="url(#p3589086909)" style="fill: #d4b2f5; stroke: #aa66eb; stroke-width: 1.5; stroke-linejoin: miter"/>
   </g>
   <g id="patch_44">
    <path d="M 120.958036 363.175729 
L 146.782378 363.171869 
L 146.781462 347.885346 
L 120.957119 347.889205 
z
" clip-path="url(#p3589086909)" style="fill: #edd4bb; stroke: #dbaa77; stroke-width: 1.5; stroke-linejoin: miter"/>
   </g>
   <g id="patch_45">
    <path d="M 463.084975 398.122478 
L 488.909318 398.122461 
L 488.909314 382.835938 
L 463.084971 382.835954 
z
" clip-path="url(#p3589086909)" style="fill: #ed746a; stroke: #ed746a; stroke-width: 1.5; stroke-linejoin: miter"/>
   </g>
   <g id="patch_46">
    <path d="M 1073.607269 398.037495 
L 1099.431591 398.08772 
L 1099.443523 382.801208 
L 1073.6192 382.750983 
z
" clip-path="url(#p3589086909)" style="fill: #638dee; stroke: #638dee; stroke-width: 1.5; stroke-linejoin: miter"/>
   </g>
   <g id="patch_47">
    <path d="M 479.781894 359.269173 
L 505.605252 358.913253 
L 505.520698 343.627312 
L 479.69734 343.983232 
z
" clip-path="url(#p3589086909)" style="fill: #aa66eb; stroke: #aa66eb; stroke-width: 1.5; stroke-linejoin: miter"/>
   </g>
   <g id="patch_48">
    <path d="M 215.754893 363.260654 
L 241.579219 363.307089 
L 241.59025 348.020575 
L 215.765924 347.97414 
z
" clip-path="url(#p3589086909)" style="fill: #dbaa77; stroke: #dbaa77; stroke-width: 1.5; stroke-linejoin: miter"/>
   </g>
   <g id="matplotlib.axis_5">
    <g id="xtick_13">
     <g id="line2d_25">
      <g>
       <use xlink:href="#m9fde44d1f2" x="132.202385" y="411.965217" style="stroke: #000000; stroke-width: 0.8"/>
      </g>
     </g>
     <g id="text_23">
      <!-- 180 -->
      <g transform="translate(122.658635 426.563655) scale(0.1 -0.1)">
       <use xlink:href="#DejaVuSans-31"/>
       <use xlink:href="#DejaVuSans-38" transform="translate(63.623047 0)"/>
       <use xlink:href="#DejaVuSans-30" transform="translate(127.246094 0)"/>
      </g>
     </g>
    </g>
    <g id="xtick_14">
     <g id="line2d_26">
      <g>
       <use xlink:href="#m9fde44d1f2" x="239.803812" y="411.965217" style="stroke: #000000; stroke-width: 0.8"/>
      </g>
     </g>
     <g id="text_24">
      <!-- 200 -->
      <g transform="translate(230.260062 426.563655) scale(0.1 -0.1)">
       <use xlink:href="#DejaVuSans-32"/>
       <use xlink:href="#DejaVuSans-30" transform="translate(63.623047 0)"/>
       <use xlink:href="#DejaVuSans-30" transform="translate(127.246094 0)"/>
      </g>
     </g>
    </g>
    <g id="xtick_15">
     <g id="line2d_27">
      <g>
       <use xlink:href="#m9fde44d1f2" x="347.405239" y="411.965217" style="stroke: #000000; stroke-width: 0.8"/>
      </g>
     </g>
     <g id="text_25">
      <!-- 220 -->
      <g transform="translate(337.861489 426.563655) scale(0.1 -0.1)">
       <use xlink:href="#DejaVuSans-32"/>
       <use xlink:href="#DejaVuSans-32" transform="translate(63.623047 0)"/>
       <use xlink:href="#DejaVuSans-30" transform="translate(127.246094 0)"/>
      </g>
     </g>
    </g>
    <g id="xtick_16">
     <g id="line2d_28">
      <g>
       <use xlink:href="#m9fde44d1f2" x="455.006666" y="411.965217" style="stroke: #000000; stroke-width: 0.8"/>
      </g>
     </g>
     <g id="text_26">
      <!-- 240 -->
      <g transform="translate(445.462916 426.563655) scale(0.1 -0.1)">
       <use xlink:href="#DejaVuSans-32"/>
       <use xlink:href="#DejaVuSans-34" transform="translate(63.623047 0)"/>
       <use xlink:href="#DejaVuSans-30" transform="translate(127.246094 0)"/>
      </g>
     </g>
    </g>
    <g id="xtick_17">
     <g id="line2d_29">
      <g>
       <use xlink:href="#m9fde44d1f2" x="562.608092" y="411.965217" style="stroke: #000000; stroke-width: 0.8"/>
      </g>
     </g>
     <g id="text_27">
      <!-- 260 -->
      <g transform="translate(553.064342 426.563655) scale(0.1 -0.1)">
       <use xlink:href="#DejaVuSans-32"/>
       <use xlink:href="#DejaVuSans-36" transform="translate(63.623047 0)"/>
       <use xlink:href="#DejaVuSans-30" transform="translate(127.246094 0)"/>
      </g>
     </g>
    </g>
    <g id="xtick_18">
     <g id="line2d_30">
      <g>
       <use xlink:href="#m9fde44d1f2" x="670.209519" y="411.965217" style="stroke: #000000; stroke-width: 0.8"/>
      </g>
     </g>
     <g id="text_28">
      <!-- 280 -->
      <g transform="translate(660.665769 426.563655) scale(0.1 -0.1)">
       <use xlink:href="#DejaVuSans-32"/>
       <use xlink:href="#DejaVuSans-38" transform="translate(63.623047 0)"/>
       <use xlink:href="#DejaVuSans-30" transform="translate(127.246094 0)"/>
      </g>
     </g>
    </g>
   </g>
   <g id="matplotlib.axis_6">
    <g id="ytick_5">
     <g id="line2d_31">
      <g>
       <use xlink:href="#ma6e5f808e8" x="43.2" y="372.984581" style="stroke: #000000; stroke-width: 0.8"/>
      </g>
     </g>
     <g id="text_29">
      <!-- 30 -->
      <g transform="translate(23.475 376.7838) scale(0.1 -0.1)">
       <use xlink:href="#DejaVuSans-33"/>
       <use xlink:href="#DejaVuSans-30" transform="translate(63.623047 0)"/>
      </g>
     </g>
    </g>
    <g id="ytick_6">
     <g id="line2d_32">
      <g>
       <use xlink:href="#ma6e5f808e8" x="43.2" y="330.522016" style="stroke: #000000; stroke-width: 0.8"/>
      </g>
     </g>
     <g id="text_30">
      <!-- 35 -->
      <g transform="translate(23.475 334.321235) scale(0.1 -0.1)">
       <use xlink:href="#DejaVuSans-33"/>
       <use xlink:href="#DejaVuSans-35" transform="translate(63.623047 0)"/>
      </g>
     </g>
    </g>
   </g>
   <g id="line2d_33">
    <path d="M 43.2 407.718961 
L 691.2 407.718961 
" clip-path="url(#p3589086909)" style="fill: none; stroke-dasharray: 5.55,2.4; stroke-dashoffset: 0; stroke: #808080; stroke-width: 1.5"/>
   </g>
   <g id="line2d_34">
    <path d="M 43.2 373.239362 
L 691.2 373.239362 
" clip-path="url(#p3589086909)" style="fill: none; stroke-dasharray: 5.55,2.4; stroke-dashoffset: 0; stroke: #808080; stroke-width: 1.5"/>
   </g>
   <g id="line2d_35">
    <path d="M 43.2 340.967803 
L 691.2 340.967803 
" clip-path="url(#p3589086909)" style="fill: none; stroke-dasharray: 5.55,2.4; stroke-dashoffset: 0; stroke: #808080; stroke-width: 1.5"/>
   </g>
   <g id="line2d_36">
    <path d="M 43.2 303.515822 
L 691.2 303.515822 
" clip-path="url(#p3589086909)" style="fill: none; stroke-dasharray: 5.55,2.4; stroke-dashoffset: 0; stroke: #808080; stroke-width: 1.5"/>
   </g>
   <g id="patch_49">
    <path d="M 43.2 411.965217 
L 43.2 299.269565 
" style="fill: none; stroke: #000000; stroke-width: 0.8; stroke-linejoin: miter; stroke-linecap: square"/>
   </g>
   <g id="patch_50">
    <path d="M 691.2 411.965217 
L 691.2 299.269565 
" style="fill: none; stroke: #000000; stroke-width: 0.8; stroke-linejoin: miter; stroke-linecap: square"/>
   </g>
   <g id="patch_51">
    <path d="M 43.2 411.965217 
L 691.2 411.965217 
" style="fill: none; stroke: #000000; stroke-width: 0.8; stroke-linejoin: miter; stroke-linecap: square"/>
   </g>
   <g id="patch_52">
    <path d="M 43.2 299.269565 
L 691.2 299.269565 
" style="fill: none; stroke: #000000; stroke-width: 0.8; stroke-linejoin: miter; stroke-linecap: square"/>
   </g>
   <g id="text_31">
    <!-- t = 3.0 s -->
    <g transform="translate(236.929416 411.710811) scale(0.1 -0.1)">
     <use xlink:href="#DejaVuSans-74"/>
     <use xlink:href="#DejaVuSans-20" transform="translate(39.208984 0)"/>
     <use xlink:href="#DejaVuSans-3d" transform="translate(70.996094 0)"/>
     <use xlink:href="#DejaVuSans-20" transform="translate(154.785156 0)"/>
     <use xlink:href="#DejaVuSans-33" transform="translate(186.572266 0)"/>
     <use xlink:href="#DejaVuSans-2e" transform="translate(250.195312 0)"/>
     <use xlink:href="#DejaVuSans-30" transform="translate(281.982422 0)"/>
     <use xlink:href="#DejaVuSans-20" transform="translate(345.605469 0)"/>
     <use xlink:href="#DejaVuSans-73" transform="translate(377.392578 0)"/>
    </g>
   </g>
   <g id="text_32">
    <!-- t = 3.5 s -->
    <g transform="translate(345.824619 411.710589) scale(0.1 -0.1)">
     <use xlink:href="#DejaVuSans-74"/>
     <use xlink:href="#DejaVuSans-20" transform="translate(39.208984 0)"/>
     <use xlink:href="#DejaVuSans-3d" transform="translate(70.996094 0)"/>
     <use xlink:href="#DejaVuSans-20" transform="translate(154.785156 0)"/>
     <use xlink:href="#DejaVuSans-33" transform="translate(186.572266 0)"/>
     <use xlink:href="#DejaVuSans-2e" transform="translate(250.195312 0)"/>
     <use xlink:href="#DejaVuSans-35" transform="translate(281.982422 0)"/>
     <use xlink:href="#DejaVuSans-20" transform="translate(345.605469 0)"/>
     <use xlink:href="#DejaVuSans-73" transform="translate(377.392578 0)"/>
    </g>
   </g>
   <g id="text_33">
    <!-- t = 4.0 s -->
    <g transform="translate(454.523709 411.710498) scale(0.1 -0.1)">
     <use xlink:href="#DejaVuSans-74"/>
     <use xlink:href="#DejaVuSans-20" transform="translate(39.208984 0)"/>
     <use xlink:href="#DejaVuSans-3d" transform="translate(70.996094 0)"/>
     <use xlink:href="#DejaVuSans-20" transform="translate(154.785156 0)"/>
     <use xlink:href="#DejaVuSans-34" transform="translate(186.572266 0)"/>
     <use xlink:href="#DejaVuSans-2e" transform="translate(250.195312 0)"/>
     <use xlink:href="#DejaVuSans-30" transform="translate(281.982422 0)"/>
     <use xlink:href="#DejaVuSans-20" transform="translate(345.605469 0)"/>
     <use xlink:href="#DejaVuSans-73" transform="translate(377.392578 0)"/>
    </g>
   </g>
  </g>
  <g id="axes_4">
   <g id="patch_53">
    <path d="M 43.2 547.2 
L 691.2 547.2 
L 691.2 434.504348 
L 43.2 434.504348 
z
" style="fill: #ffffff"/>
   </g>
   <g id="patch_54">
    <path d="M 268.358496 533.357223 
L 297.102133 533.357217 
L 297.102132 518.070693 
L 268.358494 518.0707 
z
" clip-path="url(#p395e0bbd2a)" style="fill: #ffffff; stroke: #ed746a; stroke-width: 1.5; stroke-linejoin: miter"/>
   </g>
   <g id="patch_55">
    <path d="M 925.044273 533.527053 
L 953.787889 533.577131 
L 953.801131 518.290619 
L 925.057515 518.240541 
z
" clip-path="url(#p395e0bbd2a)" style="fill: #ffffff; stroke: #638dee; stroke-width: 1.5; stroke-linejoin: miter"/>
   </g>
   <g id="patch_56">
    <path d="M 260.197943 493.074382 
L 288.938868 492.514298 
L 288.79077 477.229218 
L 260.049846 477.789302 
z
" clip-path="url(#p395e0bbd2a)" style="fill: #ffffff; stroke: #aa66eb; stroke-width: 1.5; stroke-linejoin: miter"/>
   </g>
   <g id="patch_57">
    <path d="M -22.407906 498.750212 
L 6.33569 498.820093 
L 6.354168 483.533592 
L -22.389428 483.463711 
z
" clip-path="url(#p395e0bbd2a)" style="fill: #ffffff; stroke: #dbaa77; stroke-width: 1.5; stroke-linejoin: miter"/>
   </g>
   <g id="matplotlib.axis_7">
    <g id="xtick_19">
     <g id="line2d_37">
      <g>
       <use xlink:href="#m9fde44d1f2" x="138.596387" y="547.2" style="stroke: #000000; stroke-width: 0.8"/>
      </g>
     </g>
     <g id="text_34">
      <!-- 240 -->
      <g transform="translate(129.052637 561.798438) scale(0.1 -0.1)">
       <use xlink:href="#DejaVuSans-32"/>
       <use xlink:href="#DejaVuSans-34" transform="translate(63.623047 0)"/>
       <use xlink:href="#DejaVuSans-30" transform="translate(127.246094 0)"/>
      </g>
     </g>
    </g>
    <g id="xtick_20">
     <g id="line2d_38">
      <g>
       <use xlink:href="#m9fde44d1f2" x="258.361544" y="547.2" style="stroke: #000000; stroke-width: 0.8"/>
      </g>
     </g>
     <g id="text_35">
      <!-- 260 -->
      <g transform="translate(248.817794 561.798438) scale(0.1 -0.1)">
       <use xlink:href="#DejaVuSans-32"/>
       <use xlink:href="#DejaVuSans-36" transform="translate(63.623047 0)"/>
       <use xlink:href="#DejaVuSans-30" transform="translate(127.246094 0)"/>
      </g>
     </g>
    </g>
    <g id="xtick_21">
     <g id="line2d_39">
      <g>
       <use xlink:href="#m9fde44d1f2" x="378.126702" y="547.2" style="stroke: #000000; stroke-width: 0.8"/>
      </g>
     </g>
     <g id="text_36">
      <!-- 280 -->
      <g transform="translate(368.582952 561.798438) scale(0.1 -0.1)">
       <use xlink:href="#DejaVuSans-32"/>
       <use xlink:href="#DejaVuSans-38" transform="translate(63.623047 0)"/>
       <use xlink:href="#DejaVuSans-30" transform="translate(127.246094 0)"/>
      </g>
     </g>
    </g>
    <g id="xtick_22">
     <g id="line2d_40">
      <g>
       <use xlink:href="#m9fde44d1f2" x="497.891859" y="547.2" style="stroke: #000000; stroke-width: 0.8"/>
      </g>
     </g>
     <g id="text_37">
      <!-- 300 -->
      <g transform="translate(488.348109 561.798438) scale(0.1 -0.1)">
       <use xlink:href="#DejaVuSans-33"/>
       <use xlink:href="#DejaVuSans-30" transform="translate(63.623047 0)"/>
       <use xlink:href="#DejaVuSans-30" transform="translate(127.246094 0)"/>
      </g>
     </g>
    </g>
    <g id="xtick_23">
     <g id="line2d_41">
      <g>
       <use xlink:href="#m9fde44d1f2" x="617.657016" y="547.2" style="stroke: #000000; stroke-width: 0.8"/>
      </g>
     </g>
     <g id="text_38">
      <!-- 320 -->
      <g transform="translate(608.113266 561.798438) scale(0.1 -0.1)">
       <use xlink:href="#DejaVuSans-33"/>
       <use xlink:href="#DejaVuSans-32" transform="translate(63.623047 0)"/>
       <use xlink:href="#DejaVuSans-30" transform="translate(127.246094 0)"/>
      </g>
     </g>
    </g>
   </g>
   <g id="matplotlib.axis_8">
    <g id="ytick_7">
     <g id="line2d_42">
      <g>
       <use xlink:href="#ma6e5f808e8" x="43.2" y="508.219364" style="stroke: #000000; stroke-width: 0.8"/>
      </g>
     </g>
     <g id="text_39">
      <!-- 30 -->
      <g transform="translate(23.475 512.018583) scale(0.1 -0.1)">
       <use xlink:href="#DejaVuSans-33"/>
       <use xlink:href="#DejaVuSans-30" transform="translate(63.623047 0)"/>
      </g>
     </g>
    </g>
    <g id="ytick_8">
     <g id="line2d_43">
      <g>
       <use xlink:href="#ma6e5f808e8" x="43.2" y="465.756798" style="stroke: #000000; stroke-width: 0.8"/>
      </g>
     </g>
     <g id="text_40">
      <!-- 35 -->
      <g transform="translate(23.475 469.556017) scale(0.1 -0.1)">
       <use xlink:href="#DejaVuSans-33"/>
       <use xlink:href="#DejaVuSans-35" transform="translate(63.623047 0)"/>
      </g>
     </g>
    </g>
   </g>
   <g id="line2d_44">
    <path d="M 43.2 542.953743 
L 691.2 542.953743 
" clip-path="url(#p395e0bbd2a)" style="fill: none; stroke-dasharray: 5.55,2.4; stroke-dashoffset: 0; stroke: #808080; stroke-width: 1.5"/>
   </g>
   <g id="line2d_45">
    <path d="M 43.2 508.474145 
L 691.2 508.474145 
" clip-path="url(#p395e0bbd2a)" style="fill: none; stroke-dasharray: 5.55,2.4; stroke-dashoffset: 0; stroke: #808080; stroke-width: 1.5"/>
   </g>
   <g id="line2d_46">
    <path d="M 43.2 476.202586 
L 691.2 476.202586 
" clip-path="url(#p395e0bbd2a)" style="fill: none; stroke-dasharray: 5.55,2.4; stroke-dashoffset: 0; stroke: #808080; stroke-width: 1.5"/>
   </g>
   <g id="line2d_47">
    <path d="M 43.2 438.750604 
L 691.2 438.750604 
" clip-path="url(#p395e0bbd2a)" style="fill: none; stroke-dasharray: 5.55,2.4; stroke-dashoffset: 0; stroke: #808080; stroke-width: 1.5"/>
   </g>
   <g id="patch_58">
    <path d="M 43.2 547.2 
L 43.2 434.504348 
" style="fill: none; stroke: #000000; stroke-width: 0.8; stroke-linejoin: miter; stroke-linecap: square"/>
   </g>
   <g id="patch_59">
    <path d="M 691.2 547.2 
L 691.2 434.504348 
" style="fill: none; stroke: #000000; stroke-width: 0.8; stroke-linejoin: miter; stroke-linecap: square"/>
   </g>
   <g id="patch_60">
    <path d="M 43.2 547.2 
L 691.2 547.2 
" style="fill: none; stroke: #000000; stroke-width: 0.8; stroke-linejoin: miter; stroke-linecap: square"/>
   </g>
   <g id="patch_61">
    <path d="M 43.2 434.504348 
L 691.2 434.504348 
" style="fill: none; stroke: #000000; stroke-width: 0.8; stroke-linejoin: miter; stroke-linecap: square"/>
   </g>
   <g id="text_41">
    <!-- t = 4.5 s -->
    <g transform="translate(261.256877 546.945244) scale(0.1 -0.1)">
     <use xlink:href="#DejaVuSans-74"/>
     <use xlink:href="#DejaVuSans-20" transform="translate(39.208984 0)"/>
     <use xlink:href="#DejaVuSans-3d" transform="translate(70.996094 0)"/>
     <use xlink:href="#DejaVuSans-20" transform="translate(154.785156 0)"/>
     <use xlink:href="#DejaVuSans-34" transform="translate(186.572266 0)"/>
     <use xlink:href="#DejaVuSans-2e" transform="translate(250.195312 0)"/>
     <use xlink:href="#DejaVuSans-35" transform="translate(281.982422 0)"/>
     <use xlink:href="#DejaVuSans-20" transform="translate(345.605469 0)"/>
     <use xlink:href="#DejaVuSans-73" transform="translate(377.392578 0)"/>
    </g>
   </g>
  </g>
 </g>
 <defs>
  <clipPath id="p9b38e61d4b">
   <rect x="43.2" y="28.8" width="648" height="112.695652"/>
  </clipPath>
  <clipPath id="pbd17c8b8e9">
   <rect x="43.2" y="164.034783" width="648" height="112.695652"/>
  </clipPath>
  <clipPath id="p3589086909">
   <rect x="43.2" y="299.269565" width="648" height="112.695652"/>
  </clipPath>
  <clipPath id="p395e0bbd2a">
   <rect x="43.2" y="434.504348" width="648" height="112.695652"/>
  </clipPath>
 </defs>
</svg>
